<?xml version="1.0" encoding="UTF-8" standalone="no"?>
<svg width="3060px" height="1260px" viewBox="0 0 3060 1260"
 xmlns="http://www.w3.org/2000/svg" xmlns:xlink="http://www.w3.org/1999/xlink" version="1.2" baseProfile="tiny">
<title>pred</title>
<desc>Generated by MuseScore Studio 4.3.0</desc>
<polyline class="StaffLines" fill="none" stroke="#000000" stroke-width="2.73" stroke-linejoin="bevel" points="155.803,173.622 3060,173.622"/>
<polyline class="StaffLines" fill="none" stroke="#000000" stroke-width="2.73" stroke-linejoin="bevel" points="155.803,198.425 3060,198.425"/>
<polyline class="StaffLines" fill="none" stroke="#000000" stroke-width="2.73" stroke-linejoin="bevel" points="155.803,223.228 3060,223.228"/>
<polyline class="StaffLines" fill="none" stroke="#000000" stroke-width="2.73" stroke-linejoin="bevel" points="155.803,248.031 3060,248.031"/>
<polyline class="StaffLines" fill="none" stroke="#000000" stroke-width="2.73" stroke-linejoin="bevel" points="155.803,272.835 3060,272.835"/>
<polyline class="StaffLines" fill="none" stroke="#000000" stroke-width="2.73" stroke-linejoin="bevel" points="155.803,410.616 3060,410.616"/>
<polyline class="StaffLines" fill="none" stroke="#000000" stroke-width="2.73" stroke-linejoin="bevel" points="155.803,435.419 3060,435.419"/>
<polyline class="StaffLines" fill="none" stroke="#000000" stroke-width="2.73" stroke-linejoin="bevel" points="155.803,460.222 3060,460.222"/>
<polyline class="StaffLines" fill="none" stroke="#000000" stroke-width="2.73" stroke-linejoin="bevel" points="155.803,485.026 3060,485.026"/>
<polyline class="StaffLines" fill="none" stroke="#000000" stroke-width="2.73" stroke-linejoin="bevel" points="155.803,509.829 3060,509.829"/>
<polyline class="StaffLines" fill="none" stroke="#000000" stroke-width="2.73" stroke-linejoin="bevel" points="122.803,731.558 3060,731.558"/>
<polyline class="StaffLines" fill="none" stroke="#000000" stroke-width="2.73" stroke-linejoin="bevel" points="122.803,756.361 3060,756.361"/>
<polyline class="StaffLines" fill="none" stroke="#000000" stroke-width="2.73" stroke-linejoin="bevel" points="122.803,781.164 3060,781.164"/>
<polyline class="StaffLines" fill="none" stroke="#000000" stroke-width="2.73" stroke-linejoin="bevel" points="122.803,805.968 3060,805.968"/>
<polyline class="StaffLines" fill="none" stroke="#000000" stroke-width="2.73" stroke-linejoin="bevel" points="122.803,830.771 3060,830.771"/>
<polyline class="StaffLines" fill="none" stroke="#000000" stroke-width="2.73" stroke-linejoin="bevel" points="122.803,987.165 3060,987.165"/>
<polyline class="StaffLines" fill="none" stroke="#000000" stroke-width="2.73" stroke-linejoin="bevel" points="122.803,1011.97 3060,1011.97"/>
<polyline class="StaffLines" fill="none" stroke="#000000" stroke-width="2.73" stroke-linejoin="bevel" points="122.803,1036.77 3060,1036.77"/>
<polyline class="StaffLines" fill="none" stroke="#000000" stroke-width="2.73" stroke-linejoin="bevel" points="122.803,1061.57 3060,1061.57"/>
<polyline class="StaffLines" fill="none" stroke="#000000" stroke-width="2.73" stroke-linejoin="bevel" points="122.803,1086.38 3060,1086.38"/>
<path class="MeasureNumber" d="M127.288,666.639 C126.038,667.389 125.678,667.874 125.678,668.671 C125.678,669.436 126.319,669.999 127.116,669.999 C128.163,669.999 128.756,669.233 128.881,667.749 C130.116,666.749 131.444,666.311 133.038,666.311 C136.006,666.311 137.647,668.155 137.647,671.467 C137.647,676.671 134.288,680.905 130.163,680.905 C127.803,680.905 125.881,679.796 125.881,678.467 C125.881,678.233 125.928,678.155 126.116,678.03 C127.397,677.436 128.444,676.999 128.444,675.311 C128.444,674.03 127.444,673.077 126.038,673.077 C124.288,673.077 122.959,674.546 122.959,676.467 C122.959,679.999 126.006,682.546 130.288,682.546 C136.756,682.546 142.006,677.389 142.006,670.999 C142.006,666.952 138.928,664.108 134.569,664.108 C132.834,664.108 131.444,664.467 129.522,665.436 L131.756,657.874 C133.881,658.311 135.569,658.514 137.006,658.514 C139.647,658.514 142.006,657.671 143.319,656.28 C144.006,655.483 144.397,654.796 144.397,654.28 C144.397,654.03 144.272,653.796 144.116,653.796 C144.006,653.796 143.913,653.842 143.678,653.952 C142.366,654.592 140.678,654.952 139.116,654.952 C136.725,654.952 133.881,654.561 130.928,653.796 L127.288,666.639 "/>
<path class="InstrumentName" d="M11.4063,224.681 L17.0469,224.681 C21.5469,224.681 23.9063,224.322 25.9531,223.385 C29.4531,221.681 31.4531,218.478 31.4531,214.525 C31.4531,206.572 24.4531,204.619 17.9063,204.619 L0.40625,204.619 L0.40625,206.978 L1.29688,206.978 C4.15625,207.025 5.09375,207.181 5.5,207.681 C5.79688,208.119 5.79688,208.228 5.79688,210.775 L5.79688,234.572 C5.79688,237.135 5.79688,237.228 5.5,237.681 C5.09375,238.181 4.15625,238.385 1.29688,238.385 L0.40625,238.385 L0.40625,240.728 L17.2031,240.728 L17.2031,238.385 L15.9063,238.385 C13.0469,238.385 12.0938,238.181 11.7031,237.681 C11.4063,237.228 11.4063,237.135 11.4063,234.572 L11.4063,224.681 M11.4063,222.322 L11.4063,209.525 C11.4063,207.228 11.6563,206.978 14.4531,206.978 L17.6563,206.978 C22.8438,206.978 25.2969,209.431 25.2969,214.728 C25.2969,219.885 22.75,222.322 17.4531,222.322 L11.4063,222.322 M40.9531,204.978 C39.3438,204.978 38.0469,206.275 38.0469,207.869 C38.0469,209.478 39.3438,210.775 40.9063,210.775 C42.5469,210.775 43.8438,209.478 43.8438,207.869 C43.8438,206.275 42.5469,204.978 40.9531,204.978 M43.2969,217.431 L33.9063,217.978 L33.9063,220.135 L36.4531,220.135 C38.3438,220.181 38.5938,220.478 38.5938,222.635 L38.5938,236.931 C38.5469,237.681 38.5,237.978 38.2969,238.228 C37.9531,238.681 37,238.885 34.8438,238.931 L34.5,238.931 L34.5,240.728 L47.4531,240.728 L47.4531,238.931 L47.0938,238.931 C43.75,238.822 43.2969,238.572 43.2969,236.775 L43.2969,217.431 M71.5938,224.635 C71.5938,221.478 71.0469,219.885 69.5938,218.681 C67.9531,217.322 65.5,216.681 62.2969,216.681 C56.6563,216.681 52.5469,219.322 52.5469,222.978 C52.5469,224.822 53.7031,226.025 55.4531,226.025 C57.0469,226.025 58.1563,224.978 58.1563,223.478 C58.1563,222.822 57.9063,222.135 57.4063,221.431 C57.0938,221.072 57.0469,220.978 57.0469,220.728 C57.0469,219.728 59.0469,218.822 61.4531,218.822 C63.0469,218.822 64.7969,219.322 65.5938,220.072 C66.5469,220.885 66.9063,222.072 66.9063,224.322 L66.9063,226.275 C61.7031,227.181 60.0469,227.572 57.5938,228.525 C53.25,230.135 51.2031,232.431 51.2031,235.635 C51.2031,239.228 54,241.478 58.4531,241.478 C61.9063,241.478 65,240.072 67.1563,237.525 C67.9531,240.072 69.2031,241.072 71.5469,241.072 C73.7969,241.072 76.1563,239.635 76.1563,238.181 C76.1563,237.822 75.9531,237.572 75.6563,237.572 C75.4531,237.572 75.25,237.635 74.9063,237.775 C74.2031,238.072 73.9063,238.135 73.5,238.135 C72.0938,238.135 71.5938,237.228 71.5938,234.681 L71.5938,224.635 M66.9063,230.728 C66.9063,233.728 66.75,234.431 65.9063,235.728 C64.6563,237.572 62.4063,238.822 60.2031,238.822 C57.9063,238.822 56.25,237.181 56.25,234.931 C56.25,232.822 57.2969,231.322 59.5,230.275 C61.0469,229.572 63,229.072 66.9063,228.431 L66.9063,230.728 M87,217.431 L78.3438,217.978 L78.3438,220.135 L80.1563,220.135 C82.0469,220.181 82.2969,220.478 82.2969,222.635 L82.2969,236.931 C82.25,237.681 82.2031,237.978 82,238.228 C81.6563,238.681 80.7031,238.885 78.5469,238.931 L78.3438,238.931 L78.3438,240.728 L91,240.728 L91,238.931 L90.7969,238.931 C87.4531,238.822 87,238.572 87,236.775 L87,229.385 C87,226.931 87.3438,224.681 87.9063,223.525 C88.9531,221.275 91.2031,219.728 93.3438,219.728 C94.6563,219.728 96.1563,220.431 96.9063,221.478 C97.6563,222.572 98,224.072 98,226.478 L98,236.931 C97.9531,237.681 97.9063,237.978 97.7031,238.228 C97.3438,238.681 96.3438,238.885 94.2031,238.931 L94,238.931 L94,240.728 L106.656,240.728 L106.656,238.931 L106.453,238.931 C103.156,238.822 102.703,238.572 102.703,236.775 L102.703,226.728 C102.703,223.135 102.547,222.228 101.656,220.525 C100.406,218.135 97.9063,216.681 94.9063,216.681 C91.6563,216.681 89.2031,218.181 87,221.478 L87,217.431 M120.594,216.681 C114.453,216.681 109.703,222.135 109.703,229.135 C109.703,235.978 114.5,241.478 120.5,241.478 C126.5,241.478 131.297,235.978 131.297,229.072 C131.297,222.228 126.5,216.681 120.594,216.681 M120.594,218.822 C124.094,218.822 126.047,222.478 126.047,229.072 C126.047,235.728 124.094,239.322 120.5,239.322 C116.906,239.322 114.953,235.728 114.953,229.135 C114.953,222.322 116.844,218.822 120.594,218.822"/>
<path class="InstrumentName" d="M11.4063,782.617 L17.0469,782.617 C21.5469,782.617 23.9063,782.258 25.9531,781.321 C29.4531,779.617 31.4531,776.414 31.4531,772.461 C31.4531,764.508 24.4531,762.555 17.9063,762.555 L0.40625,762.555 L0.40625,764.914 L1.29688,764.914 C4.15625,764.961 5.09375,765.117 5.5,765.617 C5.79688,766.055 5.79688,766.164 5.79688,768.711 L5.79688,792.508 C5.79688,795.071 5.79688,795.164 5.5,795.617 C5.09375,796.117 4.15625,796.321 1.29688,796.321 L0.40625,796.321 L0.40625,798.664 L17.2031,798.664 L17.2031,796.321 L15.9063,796.321 C13.0469,796.321 12.0938,796.117 11.7031,795.617 C11.4063,795.164 11.4063,795.071 11.4063,792.508 L11.4063,782.617 M11.4063,780.258 L11.4063,767.461 C11.4063,765.164 11.6563,764.914 14.4531,764.914 L17.6563,764.914 C22.8438,764.914 25.2969,767.367 25.2969,772.664 C25.2969,777.821 22.75,780.258 17.4531,780.258 L11.4063,780.258 M42,775.367 L33.3438,775.914 L33.3438,778.071 L35.1563,778.071 C37.0469,778.117 37.2969,778.414 37.2969,780.571 L37.2969,794.867 C37.25,795.617 37.2031,795.914 37,796.164 C36.6563,796.617 35.7031,796.821 33.5469,796.867 L33.3438,796.867 L33.3438,798.664 L46,798.664 L46,796.867 L45.7969,796.867 C42.4531,796.758 42,796.508 42,794.711 L42,787.321 C42,784.867 42.3438,782.617 42.9063,781.461 C43.9531,779.211 46.2031,777.664 48.3438,777.664 C49.6563,777.664 51.1563,778.367 51.9063,779.414 C52.6563,780.508 53,782.008 53,784.414 L53,794.867 C52.9531,795.617 52.9063,795.914 52.7031,796.164 C52.3438,796.617 51.3438,796.821 49.2031,796.867 L49,796.867 L49,798.664 L61.6563,798.664 L61.6563,796.867 L61.4531,796.867 C58.1563,796.758 57.7031,796.508 57.7031,794.711 L57.7031,784.664 C57.7031,781.071 57.5469,780.164 56.6563,778.461 C55.4063,776.071 52.9063,774.617 49.9063,774.617 C46.6563,774.617 44.2031,776.117 42,779.414 L42,775.367 M75.5938,774.617 C69.4531,774.617 64.7031,780.071 64.7031,787.071 C64.7031,793.914 69.5,799.414 75.5,799.414 C81.5,799.414 86.2969,793.914 86.2969,787.008 C86.2969,780.164 81.5,774.617 75.5938,774.617 M75.5938,776.758 C79.0938,776.758 81.0469,780.414 81.0469,787.008 C81.0469,793.664 79.0938,797.258 75.5,797.258 C71.9063,797.258 69.9531,793.664 69.9531,787.071 C69.9531,780.258 71.8438,776.758 75.5938,776.758 M93.8438,793.117 C92.0938,793.117 90.7031,794.508 90.7031,796.211 C90.7031,797.961 92.0938,799.367 93.7969,799.367 C95.5469,799.367 96.9531,797.961 96.9531,796.211 C96.9531,794.508 95.5469,793.117 93.8438,793.117"/>
<path class="InstrumentName" d="M11.4063,461.676 L17.0469,461.676 C21.5469,461.676 23.9063,461.316 25.9531,460.379 C29.4531,458.676 31.4531,455.472 31.4531,451.519 C31.4531,443.566 24.4531,441.613 17.9063,441.613 L0.40625,441.613 L0.40625,443.972 L1.29688,443.972 C4.15625,444.019 5.09375,444.176 5.5,444.676 C5.79688,445.113 5.79688,445.222 5.79688,447.769 L5.79688,471.566 C5.79688,474.129 5.79688,474.222 5.5,474.676 C5.09375,475.176 4.15625,475.379 1.29688,475.379 L0.40625,475.379 L0.40625,477.722 L17.2031,477.722 L17.2031,475.379 L15.9063,475.379 C13.0469,475.379 12.0938,475.176 11.7031,474.676 C11.4063,474.222 11.4063,474.129 11.4063,471.566 L11.4063,461.676 M11.4063,459.316 L11.4063,446.519 C11.4063,444.222 11.6563,443.972 14.4531,443.972 L17.6563,443.972 C22.8438,443.972 25.2969,446.426 25.2969,451.722 C25.2969,456.879 22.75,459.316 17.4531,459.316 L11.4063,459.316 M40.9531,441.972 C39.3438,441.972 38.0469,443.269 38.0469,444.863 C38.0469,446.472 39.3438,447.769 40.9063,447.769 C42.5469,447.769 43.8438,446.472 43.8438,444.863 C43.8438,443.269 42.5469,441.972 40.9531,441.972 M43.2969,454.426 L33.9063,454.972 L33.9063,457.129 L36.4531,457.129 C38.3438,457.176 38.5938,457.472 38.5938,459.629 L38.5938,473.926 C38.5469,474.676 38.5,474.972 38.2969,475.222 C37.9531,475.676 37,475.879 34.8438,475.926 L34.5,475.926 L34.5,477.722 L47.4531,477.722 L47.4531,475.926 L47.0938,475.926 C43.75,475.816 43.2969,475.566 43.2969,473.769 L43.2969,454.426 M71.5938,461.629 C71.5938,458.472 71.0469,456.879 69.5938,455.676 C67.9531,454.316 65.5,453.676 62.2969,453.676 C56.6563,453.676 52.5469,456.316 52.5469,459.972 C52.5469,461.816 53.7031,463.019 55.4531,463.019 C57.0469,463.019 58.1563,461.972 58.1563,460.472 C58.1563,459.816 57.9063,459.129 57.4063,458.426 C57.0938,458.066 57.0469,457.972 57.0469,457.722 C57.0469,456.722 59.0469,455.816 61.4531,455.816 C63.0469,455.816 64.7969,456.316 65.5938,457.066 C66.5469,457.879 66.9063,459.066 66.9063,461.316 L66.9063,463.269 C61.7031,464.176 60.0469,464.566 57.5938,465.519 C53.25,467.129 51.2031,469.426 51.2031,472.629 C51.2031,476.222 54,478.472 58.4531,478.472 C61.9063,478.472 65,477.066 67.1563,474.519 C67.9531,477.066 69.2031,478.066 71.5469,478.066 C73.7969,478.066 76.1563,476.629 76.1563,475.176 C76.1563,474.816 75.9531,474.566 75.6563,474.566 C75.4531,474.566 75.25,474.629 74.9063,474.769 C74.2031,475.066 73.9063,475.129 73.5,475.129 C72.0938,475.129 71.5938,474.222 71.5938,471.676 L71.5938,461.629 M66.9063,467.722 C66.9063,470.722 66.75,471.426 65.9063,472.722 C64.6563,474.566 62.4063,475.816 60.2031,475.816 C57.9063,475.816 56.25,474.176 56.25,471.926 C56.25,469.816 57.2969,468.316 59.5,467.269 C61.0469,466.566 63,466.066 66.9063,465.426 L66.9063,467.722 M87,454.426 L78.3438,454.972 L78.3438,457.129 L80.1563,457.129 C82.0469,457.176 82.2969,457.472 82.2969,459.629 L82.2969,473.926 C82.25,474.676 82.2031,474.972 82,475.222 C81.6563,475.676 80.7031,475.879 78.5469,475.926 L78.3438,475.926 L78.3438,477.722 L91,477.722 L91,475.926 L90.7969,475.926 C87.4531,475.816 87,475.566 87,473.769 L87,466.379 C87,463.926 87.3438,461.676 87.9063,460.519 C88.9531,458.269 91.2031,456.722 93.3438,456.722 C94.6563,456.722 96.1563,457.426 96.9063,458.472 C97.6563,459.566 98,461.066 98,463.472 L98,473.926 C97.9531,474.676 97.9063,474.972 97.7031,475.222 C97.3438,475.676 96.3438,475.879 94.2031,475.926 L94,475.926 L94,477.722 L106.656,477.722 L106.656,475.926 L106.453,475.926 C103.156,475.816 102.703,475.566 102.703,473.769 L102.703,463.722 C102.703,460.129 102.547,459.222 101.656,457.519 C100.406,455.129 97.9063,453.676 94.9063,453.676 C91.6563,453.676 89.2031,455.176 87,458.472 L87,454.426 M120.594,453.676 C114.453,453.676 109.703,459.129 109.703,466.129 C109.703,472.972 114.5,478.472 120.5,478.472 C126.5,478.472 131.297,472.972 131.297,466.066 C131.297,459.222 126.5,453.676 120.594,453.676 M120.594,455.816 C124.094,455.816 126.047,459.472 126.047,466.066 C126.047,472.722 124.094,476.316 120.5,476.316 C116.906,476.316 114.953,472.722 114.953,466.129 C114.953,459.316 116.844,455.816 120.594,455.816"/>
<path class="InstrumentName" d="M11.4063,1038.22 L17.0469,1038.22 C21.5469,1038.22 23.9063,1037.87 25.9531,1036.93 C29.4531,1035.22 31.4531,1032.02 31.4531,1028.07 C31.4531,1020.12 24.4531,1018.16 17.9063,1018.16 L0.40625,1018.16 L0.40625,1020.52 L1.29688,1020.52 C4.15625,1020.57 5.09375,1020.72 5.5,1021.22 C5.79688,1021.66 5.79688,1021.77 5.79688,1024.32 L5.79688,1048.12 C5.79688,1050.68 5.79688,1050.77 5.5,1051.22 C5.09375,1051.72 4.15625,1051.93 1.29688,1051.93 L0.40625,1051.93 L0.40625,1054.27 L17.2031,1054.27 L17.2031,1051.93 L15.9063,1051.93 C13.0469,1051.93 12.0938,1051.72 11.7031,1051.22 C11.4063,1050.77 11.4063,1050.68 11.4063,1048.12 L11.4063,1038.22 M11.4063,1035.87 L11.4063,1023.07 C11.4063,1020.77 11.6563,1020.52 14.4531,1020.52 L17.6563,1020.52 C22.8438,1020.52 25.2969,1022.97 25.2969,1028.27 C25.2969,1033.43 22.75,1035.87 17.4531,1035.87 L11.4063,1035.87 M42,1030.97 L33.3438,1031.52 L33.3438,1033.68 L35.1563,1033.68 C37.0469,1033.72 37.2969,1034.02 37.2969,1036.18 L37.2969,1050.47 C37.25,1051.22 37.2031,1051.52 37,1051.77 C36.6563,1052.22 35.7031,1052.43 33.5469,1052.47 L33.3438,1052.47 L33.3438,1054.27 L46,1054.27 L46,1052.47 L45.7969,1052.47 C42.4531,1052.37 42,1052.12 42,1050.32 L42,1042.93 C42,1040.47 42.3438,1038.22 42.9063,1037.07 C43.9531,1034.82 46.2031,1033.27 48.3438,1033.27 C49.6563,1033.27 51.1563,1033.97 51.9063,1035.02 C52.6563,1036.12 53,1037.62 53,1040.02 L53,1050.47 C52.9531,1051.22 52.9063,1051.52 52.7031,1051.77 C52.3438,1052.22 51.3438,1052.43 49.2031,1052.47 L49,1052.47 L49,1054.27 L61.6563,1054.27 L61.6563,1052.47 L61.4531,1052.47 C58.1563,1052.37 57.7031,1052.12 57.7031,1050.32 L57.7031,1040.27 C57.7031,1036.68 57.5469,1035.77 56.6563,1034.07 C55.4063,1031.68 52.9063,1030.22 49.9063,1030.22 C46.6563,1030.22 44.2031,1031.72 42,1035.02 L42,1030.97 M75.5938,1030.22 C69.4531,1030.22 64.7031,1035.68 64.7031,1042.68 C64.7031,1049.52 69.5,1055.02 75.5,1055.02 C81.5,1055.02 86.2969,1049.52 86.2969,1042.62 C86.2969,1035.77 81.5,1030.22 75.5938,1030.22 M75.5938,1032.37 C79.0938,1032.37 81.0469,1036.02 81.0469,1042.62 C81.0469,1049.27 79.0938,1052.87 75.5,1052.87 C71.9063,1052.87 69.9531,1049.27 69.9531,1042.68 C69.9531,1035.87 71.8438,1032.37 75.5938,1032.37 M93.8438,1048.72 C92.0938,1048.72 90.7031,1050.12 90.7031,1051.82 C90.7031,1053.57 92.0938,1054.97 93.7969,1054.97 C95.5469,1054.97 96.9531,1053.57 96.9531,1051.82 C96.9531,1050.12 95.5469,1048.72 93.8438,1048.72"/>
<polyline class="BarLine" fill="none" stroke="#000000" stroke-width="4.46" stroke-linejoin="bevel" points="158.035,172.258 158.035,410.616"/>
<polyline class="BarLine" fill="none" stroke="#000000" stroke-width="4.46" stroke-linejoin="bevel" points="2652.42,172.258 2652.42,274.199"/>
<polyline class="BarLine" fill="none" stroke="#000000" stroke-width="4.46" stroke-linejoin="bevel" points="1276.03,172.258 1276.03,274.199"/>
<polyline class="BarLine" fill="none" stroke="#000000" stroke-width="4.46" stroke-linejoin="bevel" points="2247.08,172.258 2247.08,274.199"/>
<polyline class="BarLine" fill="none" stroke="#000000" stroke-width="4.46" stroke-linejoin="bevel" points="3057.77,730.194 3057.77,832.135"/>
<polyline class="BarLine" fill="none" stroke="#000000" stroke-width="4.46" stroke-linejoin="bevel" points="3057.77,172.258 3057.77,274.199"/>
<polyline class="BarLine" fill="none" stroke="#000000" stroke-width="4.46" stroke-linejoin="bevel" points="125.035,730.194 125.035,987.165"/>
<polyline class="BarLine" fill="none" stroke="#000000" stroke-width="4.46" stroke-linejoin="bevel" points="2652.42,409.252 2652.42,511.193"/>
<polyline class="BarLine" fill="none" stroke="#000000" stroke-width="4.46" stroke-linejoin="bevel" points="2247.08,409.252 2247.08,511.193"/>
<polyline class="BarLine" fill="none" stroke="#000000" stroke-width="4.46" stroke-linejoin="bevel" points="158.035,409.252 158.035,511.193"/>
<polyline class="BarLine" fill="none" stroke="#000000" stroke-width="4.46" stroke-linejoin="bevel" points="3057.77,409.252 3057.77,511.193"/>
<polyline class="BarLine" fill="none" stroke="#000000" stroke-width="4.46" stroke-linejoin="bevel" points="1276.03,409.252 1276.03,511.193"/>
<polyline class="BarLine" fill="none" stroke="#000000" stroke-width="4.46" stroke-linejoin="bevel" points="125.035,985.801 125.035,1087.74"/>
<polyline class="BarLine" fill="none" stroke="#000000" stroke-width="4.46" stroke-linejoin="bevel" points="3057.77,985.801 3057.77,1087.74"/>
<path class="Accidental" transform="matrix(0.992126,0,0,0.992126,512.147,99.2126)" d="M12,-15.5 C7,-15.5 4.09375,-12.4063 3.59375,-11.7969 L4,-43.9063 C4,-44.7031 3.40625,-45.2969 2.59375,-45.2969 L1.40625,-45.2969 C0.59375,-45.2969 0,-44.7031 0,-43.9063 L0.5,16.2031 C0.5,17 1.09375,17.5938 1.90625,17.5938 C2.09375,17.5938 2.5,17.5 2.70313,17.4063 C11.2969,13.0938 20.2969,4.90625 20.2969,-5.40625 C20.2969,-10.5938 17.9063,-15.5 12,-15.5 M3.29688,12.7031 L3.59375,-6.79688 C3.79688,-7.70313 5.29688,-10.5938 9.29688,-10.5938 C12.9063,-10.5938 13.2031,-7.20313 13.2031,-5.09375 C13.2031,3.79688 9.90625,7.5 3.29688,12.7031"/>
<path class="Accidental" transform="matrix(0.992126,0,0,0.992126,1845.98,148.819)" d="M12,-15.5 C7,-15.5 4.09375,-12.4063 3.59375,-11.7969 L4,-43.9063 C4,-44.7031 3.40625,-45.2969 2.59375,-45.2969 L1.40625,-45.2969 C0.59375,-45.2969 0,-44.7031 0,-43.9063 L0.5,16.2031 C0.5,17 1.09375,17.5938 1.90625,17.5938 C2.09375,17.5938 2.5,17.5 2.70313,17.4063 C11.2969,13.0938 20.2969,4.90625 20.2969,-5.40625 C20.2969,-10.5938 17.9063,-15.5 12,-15.5 M3.29688,12.7031 L3.59375,-6.79688 C3.79688,-7.70313 5.29688,-10.5938 9.29688,-10.5938 C12.9063,-10.5938 13.2031,-7.20313 13.2031,-5.09375 C13.2031,3.79688 9.90625,7.5 3.29688,12.7031"/>
<path class="Accidental" transform="matrix(0.992126,0,0,0.992126,2015.16,186.024)" d="M12,-15.5 C7,-15.5 4.09375,-12.4063 3.59375,-11.7969 L4,-43.9063 C4,-44.7031 3.40625,-45.2969 2.59375,-45.2969 L1.40625,-45.2969 C0.59375,-45.2969 0,-44.7031 0,-43.9063 L0.5,16.2031 C0.5,17 1.09375,17.5938 1.90625,17.5938 C2.09375,17.5938 2.5,17.5 2.70313,17.4063 C11.2969,13.0938 20.2969,4.90625 20.2969,-5.40625 C20.2969,-10.5938 17.9063,-15.5 12,-15.5 M3.29688,12.7031 L3.59375,-6.79688 C3.79688,-7.70313 5.29688,-10.5938 9.29688,-10.5938 C12.9063,-10.5938 13.2031,-7.20313 13.2031,-5.09375 C13.2031,3.79688 9.90625,7.5 3.29688,12.7031"/>
<path class="Accidental" transform="matrix(0.992126,0,0,0.992126,2347.38,272.835)" d="M12,-15.5 C7,-15.5 4.09375,-12.4063 3.59375,-11.7969 L4,-43.9063 C4,-44.7031 3.40625,-45.2969 2.59375,-45.2969 L1.40625,-45.2969 C0.59375,-45.2969 0,-44.7031 0,-43.9063 L0.5,16.2031 C0.5,17 1.09375,17.5938 1.90625,17.5938 C2.09375,17.5938 2.5,17.5 2.70313,17.4063 C11.2969,13.0938 20.2969,4.90625 20.2969,-5.40625 C20.2969,-10.5938 17.9063,-15.5 12,-15.5 M3.29688,12.7031 L3.59375,-6.79688 C3.79688,-7.70313 5.29688,-10.5938 9.29688,-10.5938 C12.9063,-10.5938 13.2031,-7.20313 13.2031,-5.09375 C13.2031,3.79688 9.90625,7.5 3.29688,12.7031"/>
<path class="Accidental" transform="matrix(0.992126,0,0,0.992126,2431.35,310.039)" d="M12,-15.5 C7,-15.5 4.09375,-12.4063 3.59375,-11.7969 L4,-43.9063 C4,-44.7031 3.40625,-45.2969 2.59375,-45.2969 L1.40625,-45.2969 C0.59375,-45.2969 0,-44.7031 0,-43.9063 L0.5,16.2031 C0.5,17 1.09375,17.5938 1.90625,17.5938 C2.09375,17.5938 2.5,17.5 2.70313,17.4063 C11.2969,13.0938 20.2969,4.90625 20.2969,-5.40625 C20.2969,-10.5938 17.9063,-15.5 12,-15.5 M3.29688,12.7031 L3.59375,-6.79688 C3.79688,-7.70313 5.29688,-10.5938 9.29688,-10.5938 C12.9063,-10.5938 13.2031,-7.20313 13.2031,-5.09375 C13.2031,3.79688 9.90625,7.5 3.29688,12.7031"/>
<path class="Accidental" transform="matrix(0.992126,0,0,0.992126,1490.79,99.2126)" d="M12,-15.5 C7,-15.5 4.09375,-12.4063 3.59375,-11.7969 L4,-43.9063 C4,-44.7031 3.40625,-45.2969 2.59375,-45.2969 L1.40625,-45.2969 C0.59375,-45.2969 0,-44.7031 0,-43.9063 L0.5,16.2031 C0.5,17 1.09375,17.5938 1.90625,17.5938 C2.09375,17.5938 2.5,17.5 2.70313,17.4063 C11.2969,13.0938 20.2969,4.90625 20.2969,-5.40625 C20.2969,-10.5938 17.9063,-15.5 12,-15.5 M3.29688,12.7031 L3.59375,-6.79688 C3.79688,-7.70313 5.29688,-10.5938 9.29688,-10.5938 C12.9063,-10.5938 13.2031,-7.20313 13.2031,-5.09375 C13.2031,3.79688 9.90625,7.5 3.29688,12.7031"/>
<path class="Accidental" transform="matrix(0.992126,0,0,0.992126,2431.35,447.821)" d="M12,-15.5 C7,-15.5 4.09375,-12.4063 3.59375,-11.7969 L4,-43.9063 C4,-44.7031 3.40625,-45.2969 2.59375,-45.2969 L1.40625,-45.2969 C0.59375,-45.2969 0,-44.7031 0,-43.9063 L0.5,16.2031 C0.5,17 1.09375,17.5938 1.90625,17.5938 C2.09375,17.5938 2.5,17.5 2.70313,17.4063 C11.2969,13.0938 20.2969,4.90625 20.2969,-5.40625 C20.2969,-10.5938 17.9063,-15.5 12,-15.5 M3.29688,12.7031 L3.59375,-6.79688 C3.79688,-7.70313 5.29688,-10.5938 9.29688,-10.5938 C12.9063,-10.5938 13.2031,-7.20313 13.2031,-5.09375 C13.2031,3.79688 9.90625,7.5 3.29688,12.7031"/>
<path class="Accidental" transform="matrix(0.992126,0,0,0.992126,2431.35,534.632)" d="M12,-15.5 C7,-15.5 4.09375,-12.4063 3.59375,-11.7969 L4,-43.9063 C4,-44.7031 3.40625,-45.2969 2.59375,-45.2969 L1.40625,-45.2969 C0.59375,-45.2969 0,-44.7031 0,-43.9063 L0.5,16.2031 C0.5,17 1.09375,17.5938 1.90625,17.5938 C2.09375,17.5938 2.5,17.5 2.70313,17.4063 C11.2969,13.0938 20.2969,4.90625 20.2969,-5.40625 C20.2969,-10.5938 17.9063,-15.5 12,-15.5 M3.29688,12.7031 L3.59375,-6.79688 C3.79688,-7.70313 5.29688,-10.5938 9.29688,-10.5938 C12.9063,-10.5938 13.2031,-7.20313 13.2031,-5.09375 C13.2031,3.79688 9.90625,7.5 3.29688,12.7031"/>
<polyline class="LedgerLine" fill="none" stroke="#000000" stroke-width="3.97" stroke-linejoin="bevel" points="2365.53,297.638 2414.14,297.638"/>
<polyline class="LedgerLine" fill="none" stroke="#000000" stroke-width="3.97" stroke-linejoin="bevel" points="2365.53,322.441 2414.14,322.441"/>
<polyline class="LedgerLine" fill="none" stroke="#000000" stroke-width="3.97" stroke-linejoin="bevel" points="1681.55,124.016 1730.16,124.016"/>
<polyline class="LedgerLine" fill="none" stroke="#000000" stroke-width="3.97" stroke-linejoin="bevel" points="538.485,148.819 587.091,148.819"/>
<polyline class="LedgerLine" fill="none" stroke="#000000" stroke-width="3.97" stroke-linejoin="bevel" points="538.485,124.016 587.091,124.016"/>
<polyline class="LedgerLine" fill="none" stroke="#000000" stroke-width="3.97" stroke-linejoin="bevel" points="538.485,99.2126 587.091,99.2126"/>
<polyline class="LedgerLine" fill="none" stroke="#000000" stroke-width="3.97" stroke-linejoin="bevel" points="1517.13,99.2126 1565.74,99.2126"/>
<polyline class="LedgerLine" fill="none" stroke="#000000" stroke-width="3.97" stroke-linejoin="bevel" points="1441.69,124.016 1490.3,124.016"/>
<polyline class="LedgerLine" fill="none" stroke="#000000" stroke-width="3.97" stroke-linejoin="bevel" points="593.292,148.819 641.898,148.819"/>
<polyline class="LedgerLine" fill="none" stroke="#000000" stroke-width="3.97" stroke-linejoin="bevel" points="593.292,124.016 641.898,124.016"/>
<polyline class="LedgerLine" fill="none" stroke="#000000" stroke-width="3.97" stroke-linejoin="bevel" points="593.292,99.2126 641.898,99.2126"/>
<polyline class="LedgerLine" fill="none" stroke="#000000" stroke-width="3.97" stroke-linejoin="bevel" points="1736.36,124.016 1784.97,124.016"/>
<polyline class="LedgerLine" fill="none" stroke="#000000" stroke-width="3.97" stroke-linejoin="bevel" points="1441.69,148.819 1490.3,148.819"/>
<polyline class="LedgerLine" fill="none" stroke="#000000" stroke-width="3.97" stroke-linejoin="bevel" points="1681.55,148.819 1730.16,148.819"/>
<polyline class="LedgerLine" fill="none" stroke="#000000" stroke-width="3.97" stroke-linejoin="bevel" points="2273.37,297.638 2321.98,297.638"/>
<polyline class="LedgerLine" fill="none" stroke="#000000" stroke-width="3.97" stroke-linejoin="bevel" points="1386.88,124.016 1435.49,124.016"/>
<polyline class="LedgerLine" fill="none" stroke="#000000" stroke-width="3.97" stroke-linejoin="bevel" points="1386.88,148.819 1435.49,148.819"/>
<polyline class="LedgerLine" fill="none" stroke="#000000" stroke-width="3.97" stroke-linejoin="bevel" points="648.099,148.819 696.706,148.819"/>
<polyline class="LedgerLine" fill="none" stroke="#000000" stroke-width="3.97" stroke-linejoin="bevel" points="648.099,124.016 696.706,124.016"/>
<polyline class="LedgerLine" fill="none" stroke="#000000" stroke-width="3.97" stroke-linejoin="bevel" points="648.099,99.2126 696.706,99.2126"/>
<polyline class="LedgerLine" fill="none" stroke="#000000" stroke-width="3.97" stroke-linejoin="bevel" points="2549.85,297.638 2598.45,297.638"/>
<polyline class="LedgerLine" fill="none" stroke="#000000" stroke-width="3.97" stroke-linejoin="bevel" points="1791.17,148.819 1839.77,148.819"/>
<polyline class="LedgerLine" fill="none" stroke="#000000" stroke-width="3.97" stroke-linejoin="bevel" points="702.906,148.819 751.513,148.819"/>
<polyline class="LedgerLine" fill="none" stroke="#000000" stroke-width="3.97" stroke-linejoin="bevel" points="702.906,124.016 751.513,124.016"/>
<polyline class="LedgerLine" fill="none" stroke="#000000" stroke-width="3.97" stroke-linejoin="bevel" points="1332.08,148.819 1380.68,148.819"/>
<polyline class="LedgerLine" fill="none" stroke="#000000" stroke-width="3.97" stroke-linejoin="bevel" points="1626.75,148.819 1675.35,148.819"/>
<polyline class="LedgerLine" fill="none" stroke="#000000" stroke-width="3.97" stroke-linejoin="bevel" points="353.43,148.819 402.036,148.819"/>
<polyline class="LedgerLine" fill="none" stroke="#000000" stroke-width="3.97" stroke-linejoin="bevel" points="2678.72,297.638 2727.32,297.638"/>
<polyline class="LedgerLine" fill="none" stroke="#000000" stroke-width="3.97" stroke-linejoin="bevel" points="1626.75,124.016 1675.35,124.016"/>
<polyline class="LedgerLine" fill="none" stroke="#000000" stroke-width="3.97" stroke-linejoin="bevel" points="757.714,148.819 806.32,148.819"/>
<polyline class="LedgerLine" fill="none" stroke="#000000" stroke-width="3.97" stroke-linejoin="bevel" points="757.714,124.016 806.32,124.016"/>
<polyline class="LedgerLine" fill="none" stroke="#000000" stroke-width="3.97" stroke-linejoin="bevel" points="1571.94,148.819 1620.55,148.819"/>
<polyline class="LedgerLine" fill="none" stroke="#000000" stroke-width="3.97" stroke-linejoin="bevel" points="1086.56,99.2126 1135.16,99.2126"/>
<polyline class="LedgerLine" fill="none" stroke="#000000" stroke-width="3.97" stroke-linejoin="bevel" points="812.521,148.819 861.127,148.819"/>
<polyline class="LedgerLine" fill="none" stroke="#000000" stroke-width="3.97" stroke-linejoin="bevel" points="1571.94,124.016 1620.55,124.016"/>
<polyline class="LedgerLine" fill="none" stroke="#000000" stroke-width="3.97" stroke-linejoin="bevel" points="976.942,148.819 1025.55,148.819"/>
<polyline class="LedgerLine" fill="none" stroke="#000000" stroke-width="3.97" stroke-linejoin="bevel" points="2678.72,322.441 2727.32,322.441"/>
<polyline class="LedgerLine" fill="none" stroke="#000000" stroke-width="3.97" stroke-linejoin="bevel" points="1736.36,148.819 1784.97,148.819"/>
<polyline class="LedgerLine" fill="none" stroke="#000000" stroke-width="3.97" stroke-linejoin="bevel" points="1196.17,124.016 1244.78,124.016"/>
<polyline class="LedgerLine" fill="none" stroke="#000000" stroke-width="3.97" stroke-linejoin="bevel" points="1196.17,148.819 1244.78,148.819"/>
<polyline class="LedgerLine" fill="none" stroke="#000000" stroke-width="3.97" stroke-linejoin="bevel" points="1872.31,148.819 1920.92,148.819"/>
<polyline class="LedgerLine" fill="none" stroke="#000000" stroke-width="3.97" stroke-linejoin="bevel" points="867.328,148.819 915.934,148.819"/>
<polyline class="LedgerLine" fill="none" stroke="#000000" stroke-width="3.97" stroke-linejoin="bevel" points="867.328,124.016 915.934,124.016"/>
<polyline class="LedgerLine" fill="none" stroke="#000000" stroke-width="3.97" stroke-linejoin="bevel" points="408.237,148.819 456.844,148.819"/>
<polyline class="LedgerLine" fill="none" stroke="#000000" stroke-width="3.97" stroke-linejoin="bevel" points="1626.75,99.2126 1675.35,99.2126"/>
<polyline class="LedgerLine" fill="none" stroke="#000000" stroke-width="3.97" stroke-linejoin="bevel" points="922.135,148.819 970.742,148.819"/>
<polyline class="LedgerLine" fill="none" stroke="#000000" stroke-width="3.97" stroke-linejoin="bevel" points="408.237,124.016 456.844,124.016"/>
<polyline class="LedgerLine" fill="none" stroke="#000000" stroke-width="3.97" stroke-linejoin="bevel" points="1141.36,124.016 1189.97,124.016"/>
<polyline class="LedgerLine" fill="none" stroke="#000000" stroke-width="3.97" stroke-linejoin="bevel" points="1141.36,148.819 1189.97,148.819"/>
<polyline class="LedgerLine" fill="none" stroke="#000000" stroke-width="3.97" stroke-linejoin="bevel" points="1031.75,148.819 1080.36,148.819"/>
<polyline class="LedgerLine" fill="none" stroke="#000000" stroke-width="3.97" stroke-linejoin="bevel" points="1031.75,124.016 1080.36,124.016"/>
<polyline class="LedgerLine" fill="none" stroke="#000000" stroke-width="3.97" stroke-linejoin="bevel" points="1031.75,99.2126 1080.36,99.2126"/>
<polyline class="LedgerLine" fill="none" stroke="#000000" stroke-width="3.97" stroke-linejoin="bevel" points="1517.13,148.819 1565.74,148.819"/>
<polyline class="LedgerLine" fill="none" stroke="#000000" stroke-width="3.97" stroke-linejoin="bevel" points="2457.69,297.638 2506.3,297.638"/>
<polyline class="LedgerLine" fill="none" stroke="#000000" stroke-width="3.97" stroke-linejoin="bevel" points="463.044,148.819 511.651,148.819"/>
<polyline class="LedgerLine" fill="none" stroke="#000000" stroke-width="3.97" stroke-linejoin="bevel" points="463.044,124.016 511.651,124.016"/>
<polyline class="LedgerLine" fill="none" stroke="#000000" stroke-width="3.97" stroke-linejoin="bevel" points="1517.13,124.016 1565.74,124.016"/>
<polyline class="LedgerLine" fill="none" stroke="#000000" stroke-width="3.97" stroke-linejoin="bevel" points="976.942,124.016 1025.55,124.016"/>
<polyline class="LedgerLine" fill="none" stroke="#000000" stroke-width="3.97" stroke-linejoin="bevel" points="976.942,99.2126 1025.55,99.2126"/>
<polyline class="LedgerLine" fill="none" stroke="#000000" stroke-width="3.97" stroke-linejoin="bevel" points="922.135,124.016 970.742,124.016"/>
<polyline class="LedgerLine" fill="none" stroke="#000000" stroke-width="3.97" stroke-linejoin="bevel" points="787.153,855.574 835.759,855.574"/>
<polyline class="LedgerLine" fill="none" stroke="#000000" stroke-width="3.97" stroke-linejoin="bevel" points="1134.88,855.574 1183.48,855.574"/>
<polyline class="LedgerLine" fill="none" stroke="#000000" stroke-width="3.97" stroke-linejoin="bevel" points="1482.6,880.377 1531.2,880.377"/>
<polyline class="LedgerLine" fill="none" stroke="#000000" stroke-width="3.97" stroke-linejoin="bevel" points="1482.6,855.574 1531.2,855.574"/>
<polyline class="LedgerLine" fill="none" stroke="#000000" stroke-width="3.97" stroke-linejoin="bevel" points="1830.32,855.574 1878.93,855.574"/>
<polyline class="LedgerLine" fill="none" stroke="#000000" stroke-width="3.97" stroke-linejoin="bevel" points="2178.04,880.377 2226.65,880.377"/>
<polyline class="LedgerLine" fill="none" stroke="#000000" stroke-width="3.97" stroke-linejoin="bevel" points="2178.04,855.574 2226.65,855.574"/>
<polyline class="LedgerLine" fill="none" stroke="#000000" stroke-width="3.97" stroke-linejoin="bevel" points="2525.77,880.377 2574.37,880.377"/>
<polyline class="LedgerLine" fill="none" stroke="#000000" stroke-width="3.97" stroke-linejoin="bevel" points="2525.77,855.574 2574.37,855.574"/>
<polyline class="LedgerLine" fill="none" stroke="#000000" stroke-width="3.97" stroke-linejoin="bevel" points="2873.49,855.574 2922.1,855.574"/>
<polyline class="LedgerLine" fill="none" stroke="#000000" stroke-width="3.97" stroke-linejoin="bevel" points="1086.56,124.016 1135.16,124.016"/>
<polyline class="LedgerLine" fill="none" stroke="#000000" stroke-width="3.97" stroke-linejoin="bevel" points="1086.56,148.819 1135.16,148.819"/>
<polyline class="LedgerLine" fill="none" stroke="#000000" stroke-width="3.97" stroke-linejoin="bevel" points="439.43,855.574 488.036,855.574"/>
<polyline class="LedgerLine" fill="none" stroke="#000000" stroke-width="3.97" stroke-linejoin="bevel" points="353.43,559.435 402.036,559.435"/>
<polyline class="LedgerLine" fill="none" stroke="#000000" stroke-width="3.97" stroke-linejoin="bevel" points="353.43,534.632 402.036,534.632"/>
<polyline class="LedgerLine" fill="none" stroke="#000000" stroke-width="3.97" stroke-linejoin="bevel" points="463.044,609.041 511.651,609.041"/>
<polyline class="LedgerLine" fill="none" stroke="#000000" stroke-width="3.97" stroke-linejoin="bevel" points="463.044,584.238 511.651,584.238"/>
<polyline class="LedgerLine" fill="none" stroke="#000000" stroke-width="3.97" stroke-linejoin="bevel" points="265.569,1135.98 314.175,1135.98"/>
<polyline class="LedgerLine" fill="none" stroke="#000000" stroke-width="3.97" stroke-linejoin="bevel" points="265.569,1111.18 314.175,1111.18"/>
<polyline class="LedgerLine" fill="none" stroke="#000000" stroke-width="3.97" stroke-linejoin="bevel" points="463.044,559.435 511.651,559.435"/>
<polyline class="LedgerLine" fill="none" stroke="#000000" stroke-width="3.97" stroke-linejoin="bevel" points="463.044,534.632 511.651,534.632"/>
<polyline class="LedgerLine" fill="none" stroke="#000000" stroke-width="3.97" stroke-linejoin="bevel" points="961.014,1135.98 1009.62,1135.98"/>
<polyline class="LedgerLine" fill="none" stroke="#000000" stroke-width="3.97" stroke-linejoin="bevel" points="961.014,1111.18 1009.62,1111.18"/>
<polyline class="LedgerLine" fill="none" stroke="#000000" stroke-width="3.97" stroke-linejoin="bevel" points="922.135,609.041 970.742,609.041"/>
<polyline class="LedgerLine" fill="none" stroke="#000000" stroke-width="3.97" stroke-linejoin="bevel" points="922.135,584.238 970.742,584.238"/>
<polyline class="LedgerLine" fill="none" stroke="#000000" stroke-width="3.97" stroke-linejoin="bevel" points="922.135,559.435 970.742,559.435"/>
<polyline class="LedgerLine" fill="none" stroke="#000000" stroke-width="3.97" stroke-linejoin="bevel" points="1656.46,1135.98 1705.07,1135.98"/>
<polyline class="LedgerLine" fill="none" stroke="#000000" stroke-width="3.97" stroke-linejoin="bevel" points="1656.46,1111.18 1705.07,1111.18"/>
<polyline class="LedgerLine" fill="none" stroke="#000000" stroke-width="3.97" stroke-linejoin="bevel" points="922.135,534.632 970.742,534.632"/>
<polyline class="LedgerLine" fill="none" stroke="#000000" stroke-width="3.97" stroke-linejoin="bevel" points="2678.72,534.632 2727.32,534.632"/>
<polyline class="LedgerLine" fill="none" stroke="#000000" stroke-width="3.97" stroke-linejoin="bevel" points="2549.85,559.435 2598.45,559.435"/>
<polyline class="LedgerLine" fill="none" stroke="#000000" stroke-width="3.97" stroke-linejoin="bevel" points="2549.85,534.632 2598.45,534.632"/>
<polyline class="LedgerLine" fill="none" stroke="#000000" stroke-width="3.97" stroke-linejoin="bevel" points="2678.72,584.238 2727.32,584.238"/>
<polyline class="LedgerLine" fill="none" stroke="#000000" stroke-width="3.97" stroke-linejoin="bevel" points="2678.72,559.435 2727.32,559.435"/>
<polyline class="LedgerLine" fill="none" stroke="#000000" stroke-width="3.97" stroke-linejoin="bevel" points="2457.69,534.632 2506.3,534.632"/>
<polyline class="LedgerLine" fill="none" stroke="#000000" stroke-width="3.97" stroke-linejoin="bevel" points="353.43,609.041 402.036,609.041"/>
<polyline class="LedgerLine" fill="none" stroke="#000000" stroke-width="3.97" stroke-linejoin="bevel" points="353.43,584.238 402.036,584.238"/>
<polyline class="Stem" fill="none" stroke="#000000" stroke-width="2.48" stroke-linejoin="bevel" points="622.716,834.938 622.716,929.983"/>
<polyline class="Stem" fill="none" stroke="#000000" stroke-width="2.48" stroke-linejoin="bevel" points="1451.12,115.781 1451.12,219.563"/>
<polyline class="Stem" fill="none" stroke="#000000" stroke-width="2.48" stroke-linejoin="bevel" points="2374.96,277.002 2374.96,396.85"/>
<polyline class="Stem" fill="none" stroke="#000000" stroke-width="2.48" stroke-linejoin="bevel" points="602.717,90.978 602.717,217.074"/>
<polyline class="Stem" fill="none" stroke="#000000" stroke-width="2.48" stroke-linejoin="bevel" points="547.91,103.38 547.91,217.069"/>
<polyline class="Stem" fill="none" stroke="#000000" stroke-width="2.48" stroke-linejoin="bevel" points="1526.56,103.38 1526.56,217.069"/>
<polyline class="Stem" fill="none" stroke="#000000" stroke-width="2.48" stroke-linejoin="bevel" points="1800.59,140.584 1800.59,241.874"/>
<polyline class="Stem" fill="none" stroke="#000000" stroke-width="2.48" stroke-linejoin="bevel" points="796.578,859.741 796.578,929.983"/>
<polyline class="Stem" fill="none" stroke="#000000" stroke-width="2.48" stroke-linejoin="bevel" points="1318.16,834.938 1318.16,956.829"/>
<polyline class="Stem" fill="none" stroke="#000000" stroke-width="2.48" stroke-linejoin="bevel" points="274.994,834.938 274.994,929.983"/>
<polyline class="Stem" fill="none" stroke="#000000" stroke-width="2.48" stroke-linejoin="bevel" points="472.47,115.781 472.47,219.563"/>
<polyline class="Stem" fill="none" stroke="#000000" stroke-width="2.48" stroke-linejoin="bevel" points="417.662,128.183 417.662,221.375"/>
<polyline class="Stem" fill="none" stroke="#000000" stroke-width="2.48" stroke-linejoin="bevel" points="1205.6,128.183 1205.6,223.182"/>
<polyline class="Stem" fill="none" stroke="#000000" stroke-width="2.48" stroke-linejoin="bevel" points="2688.14,339.009 2688.14,396.85"/>
<polyline class="Stem" fill="none" stroke="#000000" stroke-width="2.48" stroke-linejoin="bevel" points="2467.11,277.002 2467.11,372.047"/>
<polyline class="Stem" fill="none" stroke="#000000" stroke-width="2.48" stroke-linejoin="bevel" points="931.56,115.781 931.56,219.11"/>
<polyline class="Stem" fill="none" stroke="#000000" stroke-width="2.48" stroke-linejoin="bevel" points="1745.79,128.183 1745.79,223.182"/>
<polyline class="Stem" fill="none" stroke="#000000" stroke-width="2.48" stroke-linejoin="bevel" points="1930.84,165.387 1930.84,246.428"/>
<polyline class="Stem" fill="none" stroke="#000000" stroke-width="2.48" stroke-linejoin="bevel" points="1095.98,103.38 1095.98,219.11"/>
<polyline class="Stem" fill="none" stroke="#000000" stroke-width="2.48" stroke-linejoin="bevel" points="362.855,140.584 362.855,223.187"/>
<polyline class="Stem" fill="none" stroke="#000000" stroke-width="2.48" stroke-linejoin="bevel" points="448.855,859.741 448.855,929.983"/>
<polyline class="Stem" fill="none" stroke="#000000" stroke-width="2.48" stroke-linejoin="bevel" points="2559.27,277.002 2559.27,359.646"/>
<polyline class="Stem" fill="none" stroke="#000000" stroke-width="2.48" stroke-linejoin="bevel" points="1041.17,90.978 1041.17,217.074"/>
<polyline class="Stem" fill="none" stroke="#000000" stroke-width="2.48" stroke-linejoin="bevel" points="1636.17,103.38 1636.17,219.11"/>
<polyline class="Stem" fill="none" stroke="#000000" stroke-width="2.48" stroke-linejoin="bevel" points="986.368,103.38 986.368,217.074"/>
<polyline class="Stem" fill="none" stroke="#000000" stroke-width="2.48" stroke-linejoin="bevel" points="2042.73,190.191 2042.73,285.349"/>
<polyline class="Stem" fill="none" stroke="#000000" stroke-width="2.48" stroke-linejoin="bevel" points="1150.79,115.781 1150.79,221.146"/>
<polyline class="Stem" fill="none" stroke="#000000" stroke-width="2.48" stroke-linejoin="bevel" points="2087.37,202.592 2087.37,289.408"/>
<polyline class="Stem" fill="none" stroke="#000000" stroke-width="2.48" stroke-linejoin="bevel" points="970.439,834.938 970.439,936.257"/>
<polyline class="Stem" fill="none" stroke="#000000" stroke-width="2.48" stroke-linejoin="bevel" points="2132.01,214.994 2132.01,293.466"/>
<polyline class="Stem" fill="none" stroke="#000000" stroke-width="2.48" stroke-linejoin="bevel" points="2176.65,227.395 2176.65,297.525"/>
<polyline class="Stem" fill="none" stroke="#000000" stroke-width="2.48" stroke-linejoin="bevel" points="1144.3,859.741 1144.3,946.543"/>
<polyline class="Stem" fill="none" stroke="#000000" stroke-width="2.48" stroke-linejoin="bevel" points="876.753,128.183 876.753,221.146"/>
<polyline class="Stem" fill="none" stroke="#000000" stroke-width="2.48" stroke-linejoin="bevel" points="1492.02,896.945 1492.02,967.115"/>
<polyline class="Stem" fill="none" stroke="#000000" stroke-width="2.48" stroke-linejoin="bevel" points="821.946,140.584 821.946,223.182"/>
<polyline class="Stem" fill="none" stroke="#000000" stroke-width="2.48" stroke-linejoin="bevel" points="767.139,128.183 767.139,223.182"/>
<polyline class="Stem" fill="none" stroke="#000000" stroke-width="2.48" stroke-linejoin="bevel" points="1665.88,834.938 1665.88,936.257"/>
<polyline class="Stem" fill="none" stroke="#000000" stroke-width="2.48" stroke-linejoin="bevel" points="1341.5,140.584 1341.5,223.187"/>
<polyline class="Stem" fill="none" stroke="#000000" stroke-width="2.48" stroke-linejoin="bevel" points="1839.75,859.741 1839.75,946.543"/>
<polyline class="Stem" fill="none" stroke="#000000" stroke-width="2.48" stroke-linejoin="bevel" points="1581.36,115.781 1581.36,217.074"/>
<polyline class="Stem" fill="none" stroke="#000000" stroke-width="2.48" stroke-linejoin="bevel" points="2013.61,834.938 2013.61,956.829"/>
<polyline class="Stem" fill="none" stroke="#000000" stroke-width="2.48" stroke-linejoin="bevel" points="2187.47,896.945 2187.47,967.115"/>
<polyline class="Stem" fill="none" stroke="#000000" stroke-width="2.48" stroke-linejoin="bevel" points="1690.98,115.781 1690.98,221.146"/>
<polyline class="Stem" fill="none" stroke="#000000" stroke-width="2.48" stroke-linejoin="bevel" points="1975.48,177.789 1975.48,247.988"/>
<polyline class="Stem" fill="none" stroke="#000000" stroke-width="2.48" stroke-linejoin="bevel" points="2361.33,834.938 2361.33,967.188"/>
<polyline class="Stem" fill="none" stroke="#000000" stroke-width="2.48" stroke-linejoin="bevel" points="2535.19,896.945 2535.19,967.188"/>
<polyline class="Stem" fill="none" stroke="#000000" stroke-width="2.48" stroke-linejoin="bevel" points="1881.74,152.986 1881.74,244.711"/>
<polyline class="Stem" fill="none" stroke="#000000" stroke-width="2.48" stroke-linejoin="bevel" points="2709.05,834.938 2709.05,967.188"/>
<polyline class="Stem" fill="none" stroke="#000000" stroke-width="2.48" stroke-linejoin="bevel" points="2882.91,859.741 2882.91,967.188"/>
<polyline class="Stem" fill="none" stroke="#000000" stroke-width="2.48" stroke-linejoin="bevel" points="712.332,115.781 712.332,221.146"/>
<polyline class="Stem" fill="none" stroke="#000000" stroke-width="2.48" stroke-linejoin="bevel" points="1396.31,128.183 1396.31,221.375"/>
<polyline class="Stem" fill="none" stroke="#000000" stroke-width="2.48" stroke-linejoin="bevel" points="657.524,103.38 657.524,219.11"/>
<polyline class="Stem" fill="none" stroke="#000000" stroke-width="2.48" stroke-linejoin="bevel" points="2282.8,214.994 2282.8,359.646"/>
<polyline class="Stem" fill="none" stroke="#000000" stroke-width="2.48" stroke-linejoin="bevel" points="2374.96,427.185 2374.96,571.837"/>
<polyline class="Stem" fill="none" stroke="#000000" stroke-width="2.48" stroke-linejoin="bevel" points="392.611,605.073 392.611,441.62"/>
<polyline class="Stem" fill="none" stroke="#000000" stroke-width="2.48" stroke-linejoin="bevel" points="851.702,518.262 851.702,373.549"/>
<polyline class="Stem" fill="none" stroke="#000000" stroke-width="2.48" stroke-linejoin="bevel" points="2688.14,513.996 2688.14,658.648"/>
<polyline class="Stem" fill="none" stroke="#000000" stroke-width="2.48" stroke-linejoin="bevel" points="2467.11,451.988 2467.11,596.64"/>
<polyline class="Stem" fill="none" stroke="#000000" stroke-width="2.48" stroke-linejoin="bevel" points="2361.33,1053.34 2361.33,1117.38"/>
<polyline class="Stem" fill="none" stroke="#000000" stroke-width="2.48" stroke-linejoin="bevel" points="274.994,1053.34 274.994,1197.99"/>
<polyline class="Stem" fill="none" stroke="#000000" stroke-width="2.48" stroke-linejoin="bevel" points="961.316,605.073 961.316,385.676"/>
<polyline class="Stem" fill="none" stroke="#000000" stroke-width="2.48" stroke-linejoin="bevel" points="1041.17,526.397 1041.17,602.741"/>
<polyline class="Stem" fill="none" stroke="#000000" stroke-width="2.48" stroke-linejoin="bevel" points="632.473,518.262 632.473,373.411"/>
<polyline class="Stem" fill="none" stroke="#000000" stroke-width="2.48" stroke-linejoin="bevel" points="1665.88,1053.34 1665.88,1197.99"/>
<polyline class="Stem" fill="none" stroke="#000000" stroke-width="2.48" stroke-linejoin="bevel" points="742.088,518.262 742.088,373.411"/>
<polyline class="Stem" fill="none" stroke="#000000" stroke-width="2.48" stroke-linejoin="bevel" points="2559.27,476.791 2559.27,621.443"/>
<polyline class="Stem" fill="none" stroke="#000000" stroke-width="2.48" stroke-linejoin="bevel" points="970.439,1053.34 970.439,1197.99"/>
<polyline class="Stem" fill="none" stroke="#000000" stroke-width="2.48" stroke-linejoin="bevel" points="502.226,605.073 502.226,441.62"/>
<polyline class="Stem" fill="none" stroke="#000000" stroke-width="2.48" stroke-linejoin="bevel" points="1341.5,513.996 1341.5,584.238"/>
<path class="Hook" transform="matrix(0.992126,0,0,0.992126,1039.93,602.841)" d="M0,-0.09375 C0,0.59375 0.59375,1.20313 1.29688,1.20313 C1.79688,1.20313 2.40625,0.796875 2.5,0.40625 C2.5,0.296875 3.40625,-3.20313 3.5,-3.5 C3.59375,-3.90625 4.5,-7.70313 8.09375,-13.5938 C12,-20.0938 18,-24.7969 23,-31.7969 C28,-38.7969 30.9063,-45.4063 30.9063,-54.2031 C30.9063,-63.2969 28.9063,-70.9063 23.5,-80.6094 C23.2031,-81.3125 22.5938,-81.7031 22,-81.7031 C21.7969,-81.7031 21.5938,-81.7031 21.5,-81.6094 C21,-81.4063 20.7969,-81 20.7969,-80.4063 C20.7969,-80.1094 20.9063,-79.7031 21.0938,-79.2031 C25.0938,-69.9063 26.7031,-64.6094 26.7031,-57.4063 C26.7031,-49.1094 23.7969,-44.7969 22,-41.7031 C15.5,-30.6094 5,-25.2031 0.796875,-23.7969 C0.09375,-23.5938 0,-23 0,-22.7031 L0,-0.09375 "/>
<path class="Note" transform="matrix(0.992126,0,0,0.992126,273.754,830.771)" d="M0,4.20313 C0,8.5 3.09375,13.2969 11.2031,13.2969 C21.5938,13.2969 32.5,4.79688 32.5,-4 C32.5,-9.90625 27.5,-13.2031 21.2969,-13.2031 C11.5938,-13.2031 0,-5 0,4.20313"/>
<path class="Note" transform="matrix(0.992126,0,0,0.992126,1880.5,148.819)" d="M0,4.20313 C0,8.5 3.09375,13.2969 11.2031,13.2969 C21.5938,13.2969 32.5,4.79688 32.5,-4 C32.5,-9.90625 27.5,-13.2031 21.2969,-13.2031 C11.5938,-13.2031 0,-5 0,4.20313"/>
<path class="Note" transform="matrix(0.992126,0,0,0.992126,1929.6,161.22)" d="M0,4.20313 C0,8.5 3.09375,13.2969 11.2031,13.2969 C21.5938,13.2969 32.5,4.79688 32.5,-4 C32.5,-9.90625 27.5,-13.2031 21.2969,-13.2031 C11.5938,-13.2031 0,-5 0,4.20313"/>
<path class="Note" transform="matrix(0.992126,0,0,0.992126,1974.24,173.622)" d="M0,4.20313 C0,8.5 3.09375,13.2969 11.2031,13.2969 C21.5938,13.2969 32.5,4.79688 32.5,-4 C32.5,-9.90625 27.5,-13.2031 21.2969,-13.2031 C11.5938,-13.2031 0,-5 0,4.20313"/>
<path class="Note" transform="matrix(0.992126,0,0,0.992126,2041.49,186.024)" d="M0,4.20313 C0,8.5 3.09375,13.2969 11.2031,13.2969 C21.5938,13.2969 32.5,4.79688 32.5,-4 C32.5,-9.90625 27.5,-13.2031 21.2969,-13.2031 C11.5938,-13.2031 0,-5 0,4.20313"/>
<path class="Note" transform="matrix(0.992126,0,0,0.992126,2086.13,198.425)" d="M0,4.20313 C0,8.5 3.09375,13.2969 11.2031,13.2969 C21.5938,13.2969 32.5,4.79688 32.5,-4 C32.5,-9.90625 27.5,-13.2031 21.2969,-13.2031 C11.5938,-13.2031 0,-5 0,4.20313"/>
<path class="Note" transform="matrix(0.992126,0,0,0.992126,447.615,855.574)" d="M0,4.20313 C0,8.5 3.09375,13.2969 11.2031,13.2969 C21.5938,13.2969 32.5,4.79688 32.5,-4 C32.5,-9.90625 27.5,-13.2031 21.2969,-13.2031 C11.5938,-13.2031 0,-5 0,4.20313"/>
<path class="Note" transform="matrix(0.992126,0,0,0.992126,2130.77,210.827)" d="M0,4.20313 C0,8.5 3.09375,13.2969 11.2031,13.2969 C21.5938,13.2969 32.5,4.79688 32.5,-4 C32.5,-9.90625 27.5,-13.2031 21.2969,-13.2031 C11.5938,-13.2031 0,-5 0,4.20313"/>
<path class="Note" transform="matrix(0.992126,0,0,0.992126,621.476,830.771)" d="M0,4.20313 C0,8.5 3.09375,13.2969 11.2031,13.2969 C21.5938,13.2969 32.5,4.79688 32.5,-4 C32.5,-9.90625 27.5,-13.2031 21.2969,-13.2031 C11.5938,-13.2031 0,-5 0,4.20313"/>
<path class="Note" transform="matrix(0.992126,0,0,0.992126,2175.41,223.228)" d="M0,4.20313 C0,8.5 3.09375,13.2969 11.2031,13.2969 C21.5938,13.2969 32.5,4.79688 32.5,-4 C32.5,-9.90625 27.5,-13.2031 21.2969,-13.2031 C11.5938,-13.2031 0,-5 0,4.20313"/>
<path class="Note" transform="matrix(0.992126,0,0,0.992126,2281.56,297.638)" d="M0,4.20313 C0,8.5 3.09375,13.2969 11.2031,13.2969 C21.5938,13.2969 32.5,4.79688 32.5,-4 C32.5,-9.90625 27.5,-13.2031 21.2969,-13.2031 C11.5938,-13.2031 0,-5 0,4.20313"/>
<path class="Note" transform="matrix(0.992126,0,0,0.992126,795.338,855.574)" d="M0,4.20313 C0,8.5 3.09375,13.2969 11.2031,13.2969 C21.5938,13.2969 32.5,4.79688 32.5,-4 C32.5,-9.90625 27.5,-13.2031 21.2969,-13.2031 C11.5938,-13.2031 0,-5 0,4.20313"/>
<path class="Note" transform="matrix(0.992126,0,0,0.992126,2281.56,210.827)" d="M0,4.20313 C0,8.5 3.09375,13.2969 11.2031,13.2969 C21.5938,13.2969 32.5,4.79688 32.5,-4 C32.5,-9.90625 27.5,-13.2031 21.2969,-13.2031 C11.5938,-13.2031 0,-5 0,4.20313"/>
<path class="Note" transform="matrix(0.992126,0,0,0.992126,969.199,830.771)" d="M0,4.20313 C0,8.5 3.09375,13.2969 11.2031,13.2969 C21.5938,13.2969 32.5,4.79688 32.5,-4 C32.5,-9.90625 27.5,-13.2031 21.2969,-13.2031 C11.5938,-13.2031 0,-5 0,4.20313"/>
<path class="Note" transform="matrix(0.992126,0,0,0.992126,2373.72,334.843)" d="M0,4.20313 C0,8.5 3.09375,13.2969 11.2031,13.2969 C21.5938,13.2969 32.5,4.79688 32.5,-4 C32.5,-9.90625 27.5,-13.2031 21.2969,-13.2031 C11.5938,-13.2031 0,-5 0,4.20313"/>
<path class="Note" transform="matrix(0.992126,0,0,0.992126,2373.72,272.835)" d="M0,4.20313 C0,8.5 3.09375,13.2969 11.2031,13.2969 C21.5938,13.2969 32.5,4.79688 32.5,-4 C32.5,-9.90625 27.5,-13.2031 21.2969,-13.2031 C11.5938,-13.2031 0,-5 0,4.20313"/>
<path class="Note" transform="matrix(0.992126,0,0,0.992126,2465.87,310.039)" d="M0,4.20313 C0,8.5 3.09375,13.2969 11.2031,13.2969 C21.5938,13.2969 32.5,4.79688 32.5,-4 C32.5,-9.90625 27.5,-13.2031 21.2969,-13.2031 C11.5938,-13.2031 0,-5 0,4.20313"/>
<path class="Note" transform="matrix(0.992126,0,0,0.992126,2465.87,272.835)" d="M0,4.20313 C0,8.5 3.09375,13.2969 11.2031,13.2969 C21.5938,13.2969 32.5,4.79688 32.5,-4 C32.5,-9.90625 27.5,-13.2031 21.2969,-13.2031 C11.5938,-13.2031 0,-5 0,4.20313"/>
<path class="Note" transform="matrix(0.992126,0,0,0.992126,2558.03,297.638)" d="M0,4.20313 C0,8.5 3.09375,13.2969 11.2031,13.2969 C21.5938,13.2969 32.5,4.79688 32.5,-4 C32.5,-9.90625 27.5,-13.2031 21.2969,-13.2031 C11.5938,-13.2031 0,-5 0,4.20313"/>
<path class="Note" transform="matrix(0.992126,0,0,0.992126,1143.06,855.574)" d="M0,4.20313 C0,8.5 3.09375,13.2969 11.2031,13.2969 C21.5938,13.2969 32.5,4.79688 32.5,-4 C32.5,-9.90625 27.5,-13.2031 21.2969,-13.2031 C11.5938,-13.2031 0,-5 0,4.20313"/>
<path class="Note" transform="matrix(0.992126,0,0,0.992126,2558.03,272.835)" d="M0,4.20313 C0,8.5 3.09375,13.2969 11.2031,13.2969 C21.5938,13.2969 32.5,4.79688 32.5,-4 C32.5,-9.90625 27.5,-13.2031 21.2969,-13.2031 C11.5938,-13.2031 0,-5 0,4.20313"/>
<path class="Note" transform="matrix(0.992126,0,0,0.992126,1316.92,830.771)" d="M0,4.20313 C0,8.5 3.09375,13.2969 11.2031,13.2969 C21.5938,13.2969 32.5,4.79688 32.5,-4 C32.5,-9.90625 27.5,-13.2031 21.2969,-13.2031 C11.5938,-13.2031 0,-5 0,4.20313"/>
<path class="Note" transform="matrix(0.992126,0,0,0.992126,416.422,124.016)" d="M0,4.20313 C0,8.5 3.09375,13.2969 11.2031,13.2969 C21.5938,13.2969 32.5,4.79688 32.5,-4 C32.5,-9.90625 27.5,-13.2031 21.2969,-13.2031 C11.5938,-13.2031 0,-5 0,4.20313"/>
<path class="Note" transform="matrix(0.992126,0,0,0.992126,471.229,111.614)" d="M0,4.20313 C0,8.5 3.09375,13.2969 11.2031,13.2969 C21.5938,13.2969 32.5,4.79688 32.5,-4 C32.5,-9.90625 27.5,-13.2031 21.2969,-13.2031 C11.5938,-13.2031 0,-5 0,4.20313"/>
<path class="Note" transform="matrix(0.992126,0,0,0.992126,546.67,99.2126)" d="M0,4.20313 C0,8.5 3.09375,13.2969 11.2031,13.2969 C21.5938,13.2969 32.5,4.79688 32.5,-4 C32.5,-9.90625 27.5,-13.2031 21.2969,-13.2031 C11.5938,-13.2031 0,-5 0,4.20313"/>
<path class="Note" transform="matrix(0.992126,0,0,0.992126,1490.78,892.779)" d="M0,4.20313 C0,8.5 3.09375,13.2969 11.2031,13.2969 C21.5938,13.2969 32.5,4.79688 32.5,-4 C32.5,-9.90625 27.5,-13.2031 21.2969,-13.2031 C11.5938,-13.2031 0,-5 0,4.20313"/>
<path class="Note" transform="matrix(0.992126,0,0,0.992126,601.477,86.811)" d="M0,4.20313 C0,8.5 3.09375,13.2969 11.2031,13.2969 C21.5938,13.2969 32.5,4.79688 32.5,-4 C32.5,-9.90625 27.5,-13.2031 21.2969,-13.2031 C11.5938,-13.2031 0,-5 0,4.20313"/>
<path class="Note" transform="matrix(0.992126,0,0,0.992126,1664.64,830.771)" d="M0,4.20313 C0,8.5 3.09375,13.2969 11.2031,13.2969 C21.5938,13.2969 32.5,4.79688 32.5,-4 C32.5,-9.90625 27.5,-13.2031 21.2969,-13.2031 C11.5938,-13.2031 0,-5 0,4.20313"/>
<path class="Note" transform="matrix(0.992126,0,0,0.992126,656.284,99.2126)" d="M0,4.20313 C0,8.5 3.09375,13.2969 11.2031,13.2969 C21.5938,13.2969 32.5,4.79688 32.5,-4 C32.5,-9.90625 27.5,-13.2031 21.2969,-13.2031 C11.5938,-13.2031 0,-5 0,4.20313"/>
<path class="Note" transform="matrix(0.992126,0,0,0.992126,711.091,111.614)" d="M0,4.20313 C0,8.5 3.09375,13.2969 11.2031,13.2969 C21.5938,13.2969 32.5,4.79688 32.5,-4 C32.5,-9.90625 27.5,-13.2031 21.2969,-13.2031 C11.5938,-13.2031 0,-5 0,4.20313"/>
<path class="Note" transform="matrix(0.992126,0,0,0.992126,765.899,124.016)" d="M0,4.20313 C0,8.5 3.09375,13.2969 11.2031,13.2969 C21.5938,13.2969 32.5,4.79688 32.5,-4 C32.5,-9.90625 27.5,-13.2031 21.2969,-13.2031 C11.5938,-13.2031 0,-5 0,4.20313"/>
<path class="Note" transform="matrix(0.992126,0,0,0.992126,820.706,136.417)" d="M0,4.20313 C0,8.5 3.09375,13.2969 11.2031,13.2969 C21.5938,13.2969 32.5,4.79688 32.5,-4 C32.5,-9.90625 27.5,-13.2031 21.2969,-13.2031 C11.5938,-13.2031 0,-5 0,4.20313"/>
<path class="Note" transform="matrix(0.992126,0,0,0.992126,875.513,124.016)" d="M0,4.20313 C0,8.5 3.09375,13.2969 11.2031,13.2969 C21.5938,13.2969 32.5,4.79688 32.5,-4 C32.5,-9.90625 27.5,-13.2031 21.2969,-13.2031 C11.5938,-13.2031 0,-5 0,4.20313"/>
<path class="Note" transform="matrix(0.992126,0,0,0.992126,1838.51,855.574)" d="M0,4.20313 C0,8.5 3.09375,13.2969 11.2031,13.2969 C21.5938,13.2969 32.5,4.79688 32.5,-4 C32.5,-9.90625 27.5,-13.2031 21.2969,-13.2031 C11.5938,-13.2031 0,-5 0,4.20313"/>
<path class="Note" transform="matrix(0.992126,0,0,0.992126,930.32,111.614)" d="M0,4.20313 C0,8.5 3.09375,13.2969 11.2031,13.2969 C21.5938,13.2969 32.5,4.79688 32.5,-4 C32.5,-9.90625 27.5,-13.2031 21.2969,-13.2031 C11.5938,-13.2031 0,-5 0,4.20313"/>
<path class="Note" transform="matrix(0.992126,0,0,0.992126,2012.37,830.771)" d="M0,4.20313 C0,8.5 3.09375,13.2969 11.2031,13.2969 C21.5938,13.2969 32.5,4.79688 32.5,-4 C32.5,-9.90625 27.5,-13.2031 21.2969,-13.2031 C11.5938,-13.2031 0,-5 0,4.20313"/>
<path class="Note" transform="matrix(0.992126,0,0,0.992126,2686.9,334.843)" d="M0,4.20313 C0,8.5 3.09375,13.2969 11.2031,13.2969 C21.5938,13.2969 32.5,4.79688 32.5,-4 C32.5,-9.90625 27.5,-13.2031 21.2969,-13.2031 C11.5938,-13.2031 0,-5 0,4.20313"/>
<path class="Note" transform="matrix(0.992126,0,0,0.992126,985.127,99.2126)" d="M0,4.20313 C0,8.5 3.09375,13.2969 11.2031,13.2969 C21.5938,13.2969 32.5,4.79688 32.5,-4 C32.5,-9.90625 27.5,-13.2031 21.2969,-13.2031 C11.5938,-13.2031 0,-5 0,4.20313"/>
<path class="Note" transform="matrix(0.992126,0,0,0.992126,1039.93,86.811)" d="M0,4.20313 C0,8.5 3.09375,13.2969 11.2031,13.2969 C21.5938,13.2969 32.5,4.79688 32.5,-4 C32.5,-9.90625 27.5,-13.2031 21.2969,-13.2031 C11.5938,-13.2031 0,-5 0,4.20313"/>
<path class="Note" transform="matrix(0.992126,0,0,0.992126,2186.23,892.779)" d="M0,4.20313 C0,8.5 3.09375,13.2969 11.2031,13.2969 C21.5938,13.2969 32.5,4.79688 32.5,-4 C32.5,-9.90625 27.5,-13.2031 21.2969,-13.2031 C11.5938,-13.2031 0,-5 0,4.20313"/>
<path class="Note" transform="matrix(0.992126,0,0,0.992126,1094.74,99.2126)" d="M0,4.20313 C0,8.5 3.09375,13.2969 11.2031,13.2969 C21.5938,13.2969 32.5,4.79688 32.5,-4 C32.5,-9.90625 27.5,-13.2031 21.2969,-13.2031 C11.5938,-13.2031 0,-5 0,4.20313"/>
<path class="Note" transform="matrix(0.992126,0,0,0.992126,2360.09,830.771)" d="M0,4.20313 C0,8.5 3.09375,13.2969 11.2031,13.2969 C21.5938,13.2969 32.5,4.79688 32.5,-4 C32.5,-9.90625 27.5,-13.2031 21.2969,-13.2031 C11.5938,-13.2031 0,-5 0,4.20313"/>
<path class="Note" transform="matrix(0.992126,0,0,0.992126,1149.55,111.614)" d="M0,4.20313 C0,8.5 3.09375,13.2969 11.2031,13.2969 C21.5938,13.2969 32.5,4.79688 32.5,-4 C32.5,-9.90625 27.5,-13.2031 21.2969,-13.2031 C11.5938,-13.2031 0,-5 0,4.20313"/>
<path class="Note" transform="matrix(0.992126,0,0,0.992126,1204.36,124.016)" d="M0,4.20313 C0,8.5 3.09375,13.2969 11.2031,13.2969 C21.5938,13.2969 32.5,4.79688 32.5,-4 C32.5,-9.90625 27.5,-13.2031 21.2969,-13.2031 C11.5938,-13.2031 0,-5 0,4.20313"/>
<path class="Note" transform="matrix(0.992126,0,0,0.992126,1340.26,136.417)" d="M0,4.20313 C0,8.5 3.09375,13.2969 11.2031,13.2969 C21.5938,13.2969 32.5,4.79688 32.5,-4 C32.5,-9.90625 27.5,-13.2031 21.2969,-13.2031 C11.5938,-13.2031 0,-5 0,4.20313"/>
<path class="Note" transform="matrix(0.992126,0,0,0.992126,1395.07,124.016)" d="M0,4.20313 C0,8.5 3.09375,13.2969 11.2031,13.2969 C21.5938,13.2969 32.5,4.79688 32.5,-4 C32.5,-9.90625 27.5,-13.2031 21.2969,-13.2031 C11.5938,-13.2031 0,-5 0,4.20313"/>
<path class="Note" transform="matrix(0.992126,0,0,0.992126,2533.95,892.779)" d="M0,4.20313 C0,8.5 3.09375,13.2969 11.2031,13.2969 C21.5938,13.2969 32.5,4.79688 32.5,-4 C32.5,-9.90625 27.5,-13.2031 21.2969,-13.2031 C11.5938,-13.2031 0,-5 0,4.20313"/>
<path class="Note" transform="matrix(0.992126,0,0,0.992126,1449.88,111.614)" d="M0,4.20313 C0,8.5 3.09375,13.2969 11.2031,13.2969 C21.5938,13.2969 32.5,4.79688 32.5,-4 C32.5,-9.90625 27.5,-13.2031 21.2969,-13.2031 C11.5938,-13.2031 0,-5 0,4.20313"/>
<path class="Note" transform="matrix(0.992126,0,0,0.992126,2707.81,830.771)" d="M0,4.20313 C0,8.5 3.09375,13.2969 11.2031,13.2969 C21.5938,13.2969 32.5,4.79688 32.5,-4 C32.5,-9.90625 27.5,-13.2031 21.2969,-13.2031 C11.5938,-13.2031 0,-5 0,4.20313"/>
<path class="Note" transform="matrix(0.992126,0,0,0.992126,1525.32,99.2126)" d="M0,4.20313 C0,8.5 3.09375,13.2969 11.2031,13.2969 C21.5938,13.2969 32.5,4.79688 32.5,-4 C32.5,-9.90625 27.5,-13.2031 21.2969,-13.2031 C11.5938,-13.2031 0,-5 0,4.20313"/>
<path class="Note" transform="matrix(0.992126,0,0,0.992126,1580.12,111.614)" d="M0,4.20313 C0,8.5 3.09375,13.2969 11.2031,13.2969 C21.5938,13.2969 32.5,4.79688 32.5,-4 C32.5,-9.90625 27.5,-13.2031 21.2969,-13.2031 C11.5938,-13.2031 0,-5 0,4.20313"/>
<path class="Note" transform="matrix(0.992126,0,0,0.992126,2881.67,855.574)" d="M0,4.20313 C0,8.5 3.09375,13.2969 11.2031,13.2969 C21.5938,13.2969 32.5,4.79688 32.5,-4 C32.5,-9.90625 27.5,-13.2031 21.2969,-13.2031 C11.5938,-13.2031 0,-5 0,4.20313"/>
<path class="Note" transform="matrix(0.992126,0,0,0.992126,1634.93,99.2126)" d="M0,4.20313 C0,8.5 3.09375,13.2969 11.2031,13.2969 C21.5938,13.2969 32.5,4.79688 32.5,-4 C32.5,-9.90625 27.5,-13.2031 21.2969,-13.2031 C11.5938,-13.2031 0,-5 0,4.20313"/>
<path class="Note" transform="matrix(0.992126,0,0,0.992126,1689.74,111.614)" d="M0,4.20313 C0,8.5 3.09375,13.2969 11.2031,13.2969 C21.5938,13.2969 32.5,4.79688 32.5,-4 C32.5,-9.90625 27.5,-13.2031 21.2969,-13.2031 C11.5938,-13.2031 0,-5 0,4.20313"/>
<path class="Note" transform="matrix(0.992126,0,0,0.992126,1744.55,124.016)" d="M0,4.20313 C0,8.5 3.09375,13.2969 11.2031,13.2969 C21.5938,13.2969 32.5,4.79688 32.5,-4 C32.5,-9.90625 27.5,-13.2031 21.2969,-13.2031 C11.5938,-13.2031 0,-5 0,4.20313"/>
<path class="Note" transform="matrix(0.992126,0,0,0.992126,1799.35,136.417)" d="M0,4.20313 C0,8.5 3.09375,13.2969 11.2031,13.2969 C21.5938,13.2969 32.5,4.79688 32.5,-4 C32.5,-9.90625 27.5,-13.2031 21.2969,-13.2031 C11.5938,-13.2031 0,-5 0,4.20313"/>
<path class="Note" transform="matrix(0.992126,0,0,0.992126,1039.93,522.23)" d="M0,4.20313 C0,8.5 3.09375,13.2969 11.2031,13.2969 C21.5938,13.2969 32.5,4.79688 32.5,-4 C32.5,-9.90625 27.5,-13.2031 21.2969,-13.2031 C11.5938,-13.2031 0,-5 0,4.20313"/>
<path class="Note" transform="matrix(0.992126,0,0,0.992126,2686.9,596.64)" d="M0,4.20313 C0,8.5 3.09375,13.2969 11.2031,13.2969 C21.5938,13.2969 32.5,4.79688 32.5,-4 C32.5,-9.90625 27.5,-13.2031 21.2969,-13.2031 C11.5938,-13.2031 0,-5 0,4.20313"/>
<path class="Note" transform="matrix(0.992126,0,0,0.992126,273.754,1135.98)" d="M0,4.20313 C0,8.5 3.09375,13.2969 11.2031,13.2969 C21.5938,13.2969 32.5,4.79688 32.5,-4 C32.5,-9.90625 27.5,-13.2031 21.2969,-13.2031 C11.5938,-13.2031 0,-5 0,4.20313"/>
<path class="Note" transform="matrix(0.992126,0,0,0.992126,273.754,1049.17)" d="M0,4.20313 C0,8.5 3.09375,13.2969 11.2031,13.2969 C21.5938,13.2969 32.5,4.79688 32.5,-4 C32.5,-9.90625 27.5,-13.2031 21.2969,-13.2031 C11.5938,-13.2031 0,-5 0,4.20313"/>
<path class="Note" transform="matrix(0.992126,0,0,0.992126,930.32,522.23)" d="M0,4.20313 C0,8.5 3.09375,13.2969 11.2031,13.2969 C21.5938,13.2969 32.5,4.79688 32.5,-4 C32.5,-9.90625 27.5,-13.2031 21.2969,-13.2031 C11.5938,-13.2031 0,-5 0,4.20313"/>
<path class="Note" transform="matrix(0.992126,0,0,0.992126,2686.9,509.829)" d="M0,4.20313 C0,8.5 3.09375,13.2969 11.2031,13.2969 C21.5938,13.2969 32.5,4.79688 32.5,-4 C32.5,-9.90625 27.5,-13.2031 21.2969,-13.2031 C11.5938,-13.2031 0,-5 0,4.20313"/>
<path class="Note" transform="matrix(0.992126,0,0,0.992126,601.477,435.419)" d="M0,4.20313 C0,8.5 3.09375,13.2969 11.2031,13.2969 C21.5938,13.2969 32.5,4.79688 32.5,-4 C32.5,-9.90625 27.5,-13.2031 21.2969,-13.2031 C11.5938,-13.2031 0,-5 0,4.20313"/>
<path class="Note" transform="matrix(0.992126,0,0,0.992126,2465.87,534.632)" d="M0,4.20313 C0,8.5 3.09375,13.2969 11.2031,13.2969 C21.5938,13.2969 32.5,4.79688 32.5,-4 C32.5,-9.90625 27.5,-13.2031 21.2969,-13.2031 C11.5938,-13.2031 0,-5 0,4.20313"/>
<path class="Note" transform="matrix(0.992126,0,0,0.992126,361.615,522.23)" d="M0,4.20313 C0,8.5 3.09375,13.2969 11.2031,13.2969 C21.5938,13.2969 32.5,4.79688 32.5,-4 C32.5,-9.90625 27.5,-13.2031 21.2969,-13.2031 C11.5938,-13.2031 0,-5 0,4.20313"/>
<path class="Note" transform="matrix(0.992126,0,0,0.992126,2465.87,447.821)" d="M0,4.20313 C0,8.5 3.09375,13.2969 11.2031,13.2969 C21.5938,13.2969 32.5,4.79688 32.5,-4 C32.5,-9.90625 27.5,-13.2031 21.2969,-13.2031 C11.5938,-13.2031 0,-5 0,4.20313"/>
<path class="Note" transform="matrix(0.992126,0,0,0.992126,471.229,522.23)" d="M0,4.20313 C0,8.5 3.09375,13.2969 11.2031,13.2969 C21.5938,13.2969 32.5,4.79688 32.5,-4 C32.5,-9.90625 27.5,-13.2031 21.2969,-13.2031 C11.5938,-13.2031 0,-5 0,4.20313"/>
<path class="Note" transform="matrix(0.992126,0,0,0.992126,471.229,609.041)" d="M0,4.20313 C0,8.5 3.09375,13.2969 11.2031,13.2969 C21.5938,13.2969 32.5,4.79688 32.5,-4 C32.5,-9.90625 27.5,-13.2031 21.2969,-13.2031 C11.5938,-13.2031 0,-5 0,4.20313"/>
<path class="Note" transform="matrix(0.992126,0,0,0.992126,2360.09,1049.17)" d="M0,4.20313 C0,8.5 3.09375,13.2969 11.2031,13.2969 C21.5938,13.2969 32.5,4.79688 32.5,-4 C32.5,-9.90625 27.5,-13.2031 21.2969,-13.2031 C11.5938,-13.2031 0,-5 0,4.20313"/>
<path class="Note" transform="matrix(0.992126,0,0,0.992126,2373.72,509.829)" d="M0,4.20313 C0,8.5 3.09375,13.2969 11.2031,13.2969 C21.5938,13.2969 32.5,4.79688 32.5,-4 C32.5,-9.90625 27.5,-13.2031 21.2969,-13.2031 C11.5938,-13.2031 0,-5 0,4.20313"/>
<path class="Note" transform="matrix(0.992126,0,0,0.992126,711.091,435.419)" d="M0,4.20313 C0,8.5 3.09375,13.2969 11.2031,13.2969 C21.5938,13.2969 32.5,4.79688 32.5,-4 C32.5,-9.90625 27.5,-13.2031 21.2969,-13.2031 C11.5938,-13.2031 0,-5 0,4.20313"/>
<path class="Note" transform="matrix(0.992126,0,0,0.992126,930.32,609.041)" d="M0,4.20313 C0,8.5 3.09375,13.2969 11.2031,13.2969 C21.5938,13.2969 32.5,4.79688 32.5,-4 C32.5,-9.90625 27.5,-13.2031 21.2969,-13.2031 C11.5938,-13.2031 0,-5 0,4.20313"/>
<path class="Note" transform="matrix(0.992126,0,0,0.992126,711.091,522.23)" d="M0,4.20313 C0,8.5 3.09375,13.2969 11.2031,13.2969 C21.5938,13.2969 32.5,4.79688 32.5,-4 C32.5,-9.90625 27.5,-13.2031 21.2969,-13.2031 C11.5938,-13.2031 0,-5 0,4.20313"/>
<path class="Note" transform="matrix(0.992126,0,0,0.992126,2373.72,423.018)" d="M0,4.20313 C0,8.5 3.09375,13.2969 11.2031,13.2969 C21.5938,13.2969 32.5,4.79688 32.5,-4 C32.5,-9.90625 27.5,-13.2031 21.2969,-13.2031 C11.5938,-13.2031 0,-5 0,4.20313"/>
<path class="Note" transform="matrix(0.992126,0,0,0.992126,969.199,1135.98)" d="M0,4.20313 C0,8.5 3.09375,13.2969 11.2031,13.2969 C21.5938,13.2969 32.5,4.79688 32.5,-4 C32.5,-9.90625 27.5,-13.2031 21.2969,-13.2031 C11.5938,-13.2031 0,-5 0,4.20313"/>
<path class="Note" transform="matrix(0.992126,0,0,0.992126,969.199,1049.17)" d="M0,4.20313 C0,8.5 3.09375,13.2969 11.2031,13.2969 C21.5938,13.2969 32.5,4.79688 32.5,-4 C32.5,-9.90625 27.5,-13.2031 21.2969,-13.2031 C11.5938,-13.2031 0,-5 0,4.20313"/>
<path class="Note" transform="matrix(0.992126,0,0,0.992126,1310.51,522.23)" d="M21.2969,-13.2031 C11.5938,-13.2031 0,-5.09375 0,4.20313 C0,8.5 3.09375,13.2969 11.2031,13.2969 C21.5938,13.2969 32.5,4.79688 32.5,-4 C32.5,-9.90625 27.5,-13.2031 21.2969,-13.2031 M7.5,8.59375 C4.20313,8.59375 3.5,5.90625 3.5,5 C3.5,0.09375 20.2969,-8.5 25,-8.5 C27.4063,-8.5 29,-7.09375 29,-4.90625 C29,0.09375 12.0938,8.59375 7.5,8.59375"/>
<path class="Note" transform="matrix(0.992126,0,0,0.992126,2558.03,559.435)" d="M0,4.20313 C0,8.5 3.09375,13.2969 11.2031,13.2969 C21.5938,13.2969 32.5,4.79688 32.5,-4 C32.5,-9.90625 27.5,-13.2031 21.2969,-13.2031 C11.5938,-13.2031 0,-5 0,4.20313"/>
<path class="Note" transform="matrix(0.992126,0,0,0.992126,2558.03,472.624)" d="M0,4.20313 C0,8.5 3.09375,13.2969 11.2031,13.2969 C21.5938,13.2969 32.5,4.79688 32.5,-4 C32.5,-9.90625 27.5,-13.2031 21.2969,-13.2031 C11.5938,-13.2031 0,-5 0,4.20313"/>
<path class="Note" transform="matrix(0.992126,0,0,0.992126,820.706,435.419)" d="M0,4.20313 C0,8.5 3.09375,13.2969 11.2031,13.2969 C21.5938,13.2969 32.5,4.79688 32.5,-4 C32.5,-9.90625 27.5,-13.2031 21.2969,-13.2031 C11.5938,-13.2031 0,-5 0,4.20313"/>
<path class="Note" transform="matrix(0.992126,0,0,0.992126,361.615,609.041)" d="M0,4.20313 C0,8.5 3.09375,13.2969 11.2031,13.2969 C21.5938,13.2969 32.5,4.79688 32.5,-4 C32.5,-9.90625 27.5,-13.2031 21.2969,-13.2031 C11.5938,-13.2031 0,-5 0,4.20313"/>
<path class="Note" transform="matrix(0.992126,0,0,0.992126,820.706,522.23)" d="M0,4.20313 C0,8.5 3.09375,13.2969 11.2031,13.2969 C21.5938,13.2969 32.5,4.79688 32.5,-4 C32.5,-9.90625 27.5,-13.2031 21.2969,-13.2031 C11.5938,-13.2031 0,-5 0,4.20313"/>
<path class="Note" transform="matrix(0.992126,0,0,0.992126,1340.26,509.829)" d="M21.2969,-13.2031 C11.5938,-13.2031 0,-5.09375 0,4.20313 C0,8.5 3.09375,13.2969 11.2031,13.2969 C21.5938,13.2969 32.5,4.79688 32.5,-4 C32.5,-9.90625 27.5,-13.2031 21.2969,-13.2031 M7.5,8.59375 C4.20313,8.59375 3.5,5.90625 3.5,5 C3.5,0.09375 20.2969,-8.5 25,-8.5 C27.4063,-8.5 29,-7.09375 29,-4.90625 C29,0.09375 12.0938,8.59375 7.5,8.59375"/>
<path class="Note" transform="matrix(0.992126,0,0,0.992126,601.477,522.23)" d="M0,4.20313 C0,8.5 3.09375,13.2969 11.2031,13.2969 C21.5938,13.2969 32.5,4.79688 32.5,-4 C32.5,-9.90625 27.5,-13.2031 21.2969,-13.2031 C11.5938,-13.2031 0,-5 0,4.20313"/>
<path class="Note" transform="matrix(0.992126,0,0,0.992126,1664.64,1135.98)" d="M0,4.20313 C0,8.5 3.09375,13.2969 11.2031,13.2969 C21.5938,13.2969 32.5,4.79688 32.5,-4 C32.5,-9.90625 27.5,-13.2031 21.2969,-13.2031 C11.5938,-13.2031 0,-5 0,4.20313"/>
<path class="Note" transform="matrix(0.992126,0,0,0.992126,1664.64,1049.17)" d="M0,4.20313 C0,8.5 3.09375,13.2969 11.2031,13.2969 C21.5938,13.2969 32.5,4.79688 32.5,-4 C32.5,-9.90625 27.5,-13.2031 21.2969,-13.2031 C11.5938,-13.2031 0,-5 0,4.20313"/>
<path class="Note" transform="matrix(0.992126,0,0,0.992126,361.615,136.417)" d="M0,4.20313 C0,8.5 3.09375,13.2969 11.2031,13.2969 C21.5938,13.2969 32.5,4.79688 32.5,-4 C32.5,-9.90625 27.5,-13.2031 21.2969,-13.2031 C11.5938,-13.2031 0,-5 0,4.20313"/>
<path class="Clef" transform="matrix(0.992126,0,0,0.992126,178.87,248.031)" d="M12.2969,51.2969 C12.2969,57.9063 17.2969,66.6094 30.7969,66.6094 C35.5,66.6094 39.6094,65.4063 43.2031,63.2031 C48.6094,59.4063 50,52.7969 50,46.5 C50,42.6094 49.4063,38.1094 48.4063,32.4063 C48.1094,30.4063 47.5,27.4063 46.9063,23.5 C56.7031,20.2969 64,10.0938 64,-0.203125 C64,-15.2969 53.2969,-25.5 38.7031,-25.5 C37.7031,-31.5 36.7031,-37.4063 35.9063,-43 C46.4063,-54.1094 53.7031,-66.6094 53.7031,-82.5 C53.7031,-91.6094 50.9063,-99 49.2969,-102.609 C46.9063,-107.703 44,-111.203 42.2031,-111.203 C41.5,-111.203 38.4063,-110 35.1094,-106.109 C28.7031,-98.5 26.9063,-85.7031 26.9063,-77.3125 C26.9063,-71.9063 27.4063,-67 29.1094,-55.7969 C29,-55.7031 23.7969,-50.4063 21.7031,-48.7031 C12.5938,-40.2969 0,-28.1094 0,-8.09375 C0,10.5938 16.2969,25.2969 34.9063,25.2969 C37.7969,25.2969 40.5,25 42.7969,24.5938 C44.7031,34.2031 45.9063,41.2031 45.9063,46.5 C45.9063,56.9063 40.5,62.4063 30.4063,62.4063 C28,62.4063 25.9063,61.9063 25.7031,61.9063 C25.6094,61.7969 25.4063,61.7031 25.4063,61.6094 C25.4063,61.4063 25.6094,61.2969 25.9063,61.2969 C30.6094,60.5 35.2969,56.5 35.2969,50.1094 C35.2969,44.7031 31.2031,39 23.7031,39 C16.7031,39 12.2969,44.7031 12.2969,51.2969 M33.2031,-82.2031 C34.1094,-86.2031 38.7031,-96.7031 43.9063,-96.7031 C45.4063,-96.7031 47.7969,-91.9063 47.7969,-84.9063 C47.7969,-74.5 40.1094,-66.7031 33.2031,-59.9063 C32.6094,-63.9063 32.1094,-67.7969 32.1094,-72 C32.1094,-75.7031 32.4063,-79.1094 33.2031,-82.2031 M42,20.5938 C40,21 38.1094,21.2031 36.2031,21.2031 C21.9063,21.2031 9.70313,11.2031 9.70313,-3.90625 C9.70313,-16.0938 18.2969,-27 27.1094,-34.6094 C28.7969,-36.1094 30.4063,-37.5 31.9063,-39 C32.7969,-33.6094 33.5,-28.9063 34.2031,-24.7969 C25.0938,-22.0938 18.9063,-12.5 18.9063,-3.09375 C18.9063,3.90625 24.4063,13.5 32.4063,13.5 C33.2031,13.5 34.1094,13.0938 34.1094,12.2031 C34.1094,11.2969 33.1094,10.7969 31.9063,10 C28,7.59375 25.7969,5 25.7969,0.09375 C25.7969,-6 30.4063,-10.9063 36.2031,-12.2969 L42,20.5938 M56.2031,2.09375 C56.2031,9.20313 53.2969,16.5 46.2031,19.4063 C44.1094,7.40625 41.4063,-8.5 40.7031,-12.9063 C49.7031,-12.9063 56.2031,-6.79688 56.2031,2.09375"/>
<path class="Clef" transform="matrix(0.992126,0,0,0.992126,145.87,805.968)" d="M12.2969,51.2969 C12.2969,57.9063 17.2969,66.6094 30.7969,66.6094 C35.5,66.6094 39.6094,65.4063 43.2031,63.2031 C48.6094,59.4063 50,52.7969 50,46.5 C50,42.6094 49.4063,38.1094 48.4063,32.4063 C48.1094,30.4063 47.5,27.4063 46.9063,23.5 C56.7031,20.2969 64,10.0938 64,-0.203125 C64,-15.2969 53.2969,-25.5 38.7031,-25.5 C37.7031,-31.5 36.7031,-37.4063 35.9063,-43 C46.4063,-54.1094 53.7031,-66.6094 53.7031,-82.5 C53.7031,-91.6094 50.9063,-99 49.2969,-102.609 C46.9063,-107.703 44,-111.203 42.2031,-111.203 C41.5,-111.203 38.4063,-110 35.1094,-106.109 C28.7031,-98.5 26.9063,-85.7031 26.9063,-77.3125 C26.9063,-71.9063 27.4063,-67 29.1094,-55.7969 C29,-55.7031 23.7969,-50.4063 21.7031,-48.7031 C12.5938,-40.2969 0,-28.1094 0,-8.09375 C0,10.5938 16.2969,25.2969 34.9063,25.2969 C37.7969,25.2969 40.5,25 42.7969,24.5938 C44.7031,34.2031 45.9063,41.2031 45.9063,46.5 C45.9063,56.9063 40.5,62.4063 30.4063,62.4063 C28,62.4063 25.9063,61.9063 25.7031,61.9063 C25.6094,61.7969 25.4063,61.7031 25.4063,61.6094 C25.4063,61.4063 25.6094,61.2969 25.9063,61.2969 C30.6094,60.5 35.2969,56.5 35.2969,50.1094 C35.2969,44.7031 31.2031,39 23.7031,39 C16.7031,39 12.2969,44.7031 12.2969,51.2969 M33.2031,-82.2031 C34.1094,-86.2031 38.7031,-96.7031 43.9063,-96.7031 C45.4063,-96.7031 47.7969,-91.9063 47.7969,-84.9063 C47.7969,-74.5 40.1094,-66.7031 33.2031,-59.9063 C32.6094,-63.9063 32.1094,-67.7969 32.1094,-72 C32.1094,-75.7031 32.4063,-79.1094 33.2031,-82.2031 M42,20.5938 C40,21 38.1094,21.2031 36.2031,21.2031 C21.9063,21.2031 9.70313,11.2031 9.70313,-3.90625 C9.70313,-16.0938 18.2969,-27 27.1094,-34.6094 C28.7969,-36.1094 30.4063,-37.5 31.9063,-39 C32.7969,-33.6094 33.5,-28.9063 34.2031,-24.7969 C25.0938,-22.0938 18.9063,-12.5 18.9063,-3.09375 C18.9063,3.90625 24.4063,13.5 32.4063,13.5 C33.2031,13.5 34.1094,13.0938 34.1094,12.2031 C34.1094,11.2969 33.1094,10.7969 31.9063,10 C28,7.59375 25.7969,5 25.7969,0.09375 C25.7969,-6 30.4063,-10.9063 36.2031,-12.2969 L42,20.5938 M56.2031,2.09375 C56.2031,9.20313 53.2969,16.5 46.2031,19.4063 C44.1094,7.40625 41.4063,-8.5 40.7031,-12.9063 C49.7031,-12.9063 56.2031,-6.79688 56.2031,2.09375"/>
<path class="Clef" transform="matrix(0.992126,0,0,0.992126,178.87,435.419)" d="M25.4063,-25.0938 C17.7969,-25.0938 11.7031,-20.7031 11.5938,-20.7031 C5.70313,-16.4063 1.90625,-9.79688 1.90625,-2.5 C1.90625,4.79688 6.09375,10.2031 13.5,10.2031 C19.9063,10.2031 24.9063,5.90625 24.9063,-0.703125 C24.9063,-6.40625 19.9063,-11.0938 14.2969,-11.0938 C13.0938,-11.0938 12,-10.9063 11.0938,-10.5938 C10.0938,-10.2031 8.40625,-9.20313 7.59375,-8.5 C8.29688,-12.9063 11.2969,-17.2969 15.2031,-19.4063 C17.7031,-20.7969 20.9063,-21.4063 24.4063,-21.4063 C34.6094,-21.4063 39.6094,-13.2031 39.6094,3.59375 C39.6094,16.5938 31.2969,35.2969 21.5,44.1094 C11.0938,53.6094 1.29688,58.1094 1.20313,58.1094 C1.20313,58.1094 0,58.7969 0,60 C0,60.2031 0.09375,60.2969 0.09375,60.5 C0.40625,61.5 1.29688,61.7031 2,61.7031 L2.29688,61.6094 C2.5,61.6094 13.9063,56.9063 23,49.7969 C37,39.7031 52.7969,21.9063 52.7969,3.5 C52.7969,-13.9063 43.4063,-25.0938 25.4063,-25.0938 M56.7969,-12.4063 C56.7969,-9.59375 59,-7.40625 61.6094,-7.40625 C64.2031,-7.40625 66.4063,-9.59375 66.4063,-12.4063 C66.4063,-15.2031 64.2031,-17.5 61.6094,-17.5 C59,-17.5 56.7969,-15.2031 56.7969,-12.4063 M56.7969,12.2969 C56.7969,15.0938 59,17.4063 61.6094,17.4063 C64.2031,17.4063 66.4063,15.0938 66.4063,12.2969 C66.4063,9.5 64.2031,7.20313 61.6094,7.20313 C59,7.20313 56.7969,9.5 56.7969,12.2969"/>
<path class="Clef" transform="matrix(0.992126,0,0,0.992126,145.87,1011.97)" d="M25.4063,-25.0938 C17.7969,-25.0938 11.7031,-20.7031 11.5938,-20.7031 C5.70313,-16.4063 1.90625,-9.79688 1.90625,-2.5 C1.90625,4.79688 6.09375,10.2031 13.5,10.2031 C19.9063,10.2031 24.9063,5.90625 24.9063,-0.703125 C24.9063,-6.40625 19.9063,-11.0938 14.2969,-11.0938 C13.0938,-11.0938 12,-10.9063 11.0938,-10.5938 C10.0938,-10.2031 8.40625,-9.20313 7.59375,-8.5 C8.29688,-12.9063 11.2969,-17.2969 15.2031,-19.4063 C17.7031,-20.7969 20.9063,-21.4063 24.4063,-21.4063 C34.6094,-21.4063 39.6094,-13.2031 39.6094,3.59375 C39.6094,16.5938 31.2969,35.2969 21.5,44.1094 C11.0938,53.6094 1.29688,58.1094 1.20313,58.1094 C1.20313,58.1094 0,58.7969 0,60 C0,60.2031 0.09375,60.2969 0.09375,60.5 C0.40625,61.5 1.29688,61.7031 2,61.7031 L2.29688,61.6094 C2.5,61.6094 13.9063,56.9063 23,49.7969 C37,39.7031 52.7969,21.9063 52.7969,3.5 C52.7969,-13.9063 43.4063,-25.0938 25.4063,-25.0938 M56.7969,-12.4063 C56.7969,-9.59375 59,-7.40625 61.6094,-7.40625 C64.2031,-7.40625 66.4063,-9.59375 66.4063,-12.4063 C66.4063,-15.2031 64.2031,-17.5 61.6094,-17.5 C59,-17.5 56.7969,-15.2031 56.7969,-12.4063 M56.7969,12.2969 C56.7969,15.0938 59,17.4063 61.6094,17.4063 C64.2031,17.4063 66.4063,15.0938 66.4063,12.2969 C66.4063,9.5 64.2031,7.20313 61.6094,7.20313 C59,7.20313 56.7969,9.5 56.7969,12.2969"/>
<path class="TimeSig" transform="matrix(0.992126,0,0,0.992126,268.161,198.425)" d="M20.7969,12.7031 L20.7969,20.0938 L12.5,20.0938 C11.7969,20.0938 11.0938,20.7031 11.0938,21.5 L11.0938,23.4063 C11.0938,24.2031 11.7969,24.7969 12.5,24.7969 L42.7969,24.7969 C43.6094,24.7969 44.2031,24.2031 44.2031,23.4063 L44.2031,21.5 C44.2031,20.7031 43.6094,20.0938 42.7969,20.0938 L33.9063,20.0938 L33.9063,12.7031 L42.7969,12.7031 C43.6094,12.7031 44.2031,12 44.2031,11.2031 L44.2031,9.29688 C44.2031,8.59375 43.6094,7.90625 42.7969,7.90625 L33.9063,7.90625 L33.9063,-8 C33.9063,-8.59375 33.6094,-9.09375 33.1094,-9.29688 L31.9063,-9.90625 C31.7031,-10 31.4063,-10.0938 31.2031,-10.0938 C30.9063,-10 30.5,-9.90625 30.2969,-9.70313 L21.2031,-1.40625 C20.9063,-1.09375 20.7969,-0.703125 20.7969,-0.296875 L20.7969,7.90625 L9.29688,7.90625 C9.29688,7.90625 20.4063,-4.09375 32.2031,-19.9063 C32.6094,-20.4063 32.7031,-20.9063 32.7031,-21.2969 C32.7031,-21.7969 32.5,-22.2031 32.4063,-22.2969 L30.2031,-24.5 C30,-24.7031 29.6094,-24.9063 29.2031,-24.9063 C28.6094,-24.9063 15.0938,-24.9063 14.4063,-24.9063 C13.5938,-24.9063 13.0938,-24.2969 13,-23.7031 C13,-23.7031 12.5,-16.2969 9.90625,-8.20313 C7.29688,-0.09375 4.29688,4.90625 1.70313,8.59375 C1.70313,8.59375 1.40625,9.09375 1.40625,9.70313 C1.40625,9.90625 1.40625,10.0938 1.5,10.2969 C1.90625,11 2.5,12.0938 2.5,12.0938 C2.5,12.0938 2.70313,12.7031 3.59375,12.7031 L20.7969,12.7031 "/>
<path class="TimeSig" transform="matrix(0.992126,0,0,0.992126,268.161,248.031)" d="M20.7969,12.7031 L20.7969,20.0938 L12.5,20.0938 C11.7969,20.0938 11.0938,20.7031 11.0938,21.5 L11.0938,23.4063 C11.0938,24.2031 11.7969,24.7969 12.5,24.7969 L42.7969,24.7969 C43.6094,24.7969 44.2031,24.2031 44.2031,23.4063 L44.2031,21.5 C44.2031,20.7031 43.6094,20.0938 42.7969,20.0938 L33.9063,20.0938 L33.9063,12.7031 L42.7969,12.7031 C43.6094,12.7031 44.2031,12 44.2031,11.2031 L44.2031,9.29688 C44.2031,8.59375 43.6094,7.90625 42.7969,7.90625 L33.9063,7.90625 L33.9063,-8 C33.9063,-8.59375 33.6094,-9.09375 33.1094,-9.29688 L31.9063,-9.90625 C31.7031,-10 31.4063,-10.0938 31.2031,-10.0938 C30.9063,-10 30.5,-9.90625 30.2969,-9.70313 L21.2031,-1.40625 C20.9063,-1.09375 20.7969,-0.703125 20.7969,-0.296875 L20.7969,7.90625 L9.29688,7.90625 C9.29688,7.90625 20.4063,-4.09375 32.2031,-19.9063 C32.6094,-20.4063 32.7031,-20.9063 32.7031,-21.2969 C32.7031,-21.7969 32.5,-22.2031 32.4063,-22.2969 L30.2031,-24.5 C30,-24.7031 29.6094,-24.9063 29.2031,-24.9063 C28.6094,-24.9063 15.0938,-24.9063 14.4063,-24.9063 C13.5938,-24.9063 13.0938,-24.2969 13,-23.7031 C13,-23.7031 12.5,-16.2969 9.90625,-8.20313 C7.29688,-0.09375 4.29688,4.90625 1.70313,8.59375 C1.70313,8.59375 1.40625,9.09375 1.40625,9.70313 C1.40625,9.90625 1.40625,10.0938 1.5,10.2969 C1.90625,11 2.5,12.0938 2.5,12.0938 C2.5,12.0938 2.70313,12.7031 3.59375,12.7031 L20.7969,12.7031 "/>
<path class="TimeSig" transform="matrix(0.992126,0,0,0.992126,268.161,435.419)" d="M20.7969,12.7031 L20.7969,20.0938 L12.5,20.0938 C11.7969,20.0938 11.0938,20.7031 11.0938,21.5 L11.0938,23.4063 C11.0938,24.2031 11.7969,24.7969 12.5,24.7969 L42.7969,24.7969 C43.6094,24.7969 44.2031,24.2031 44.2031,23.4063 L44.2031,21.5 C44.2031,20.7031 43.6094,20.0938 42.7969,20.0938 L33.9063,20.0938 L33.9063,12.7031 L42.7969,12.7031 C43.6094,12.7031 44.2031,12 44.2031,11.2031 L44.2031,9.29688 C44.2031,8.59375 43.6094,7.90625 42.7969,7.90625 L33.9063,7.90625 L33.9063,-8 C33.9063,-8.59375 33.6094,-9.09375 33.1094,-9.29688 L31.9063,-9.90625 C31.7031,-10 31.4063,-10.0938 31.2031,-10.0938 C30.9063,-10 30.5,-9.90625 30.2969,-9.70313 L21.2031,-1.40625 C20.9063,-1.09375 20.7969,-0.703125 20.7969,-0.296875 L20.7969,7.90625 L9.29688,7.90625 C9.29688,7.90625 20.4063,-4.09375 32.2031,-19.9063 C32.6094,-20.4063 32.7031,-20.9063 32.7031,-21.2969 C32.7031,-21.7969 32.5,-22.2031 32.4063,-22.2969 L30.2031,-24.5 C30,-24.7031 29.6094,-24.9063 29.2031,-24.9063 C28.6094,-24.9063 15.0938,-24.9063 14.4063,-24.9063 C13.5938,-24.9063 13.0938,-24.2969 13,-23.7031 C13,-23.7031 12.5,-16.2969 9.90625,-8.20313 C7.29688,-0.09375 4.29688,4.90625 1.70313,8.59375 C1.70313,8.59375 1.40625,9.09375 1.40625,9.70313 C1.40625,9.90625 1.40625,10.0938 1.5,10.2969 C1.90625,11 2.5,12.0938 2.5,12.0938 C2.5,12.0938 2.70313,12.7031 3.59375,12.7031 L20.7969,12.7031 "/>
<path class="TimeSig" transform="matrix(0.992126,0,0,0.992126,268.161,485.026)" d="M20.7969,12.7031 L20.7969,20.0938 L12.5,20.0938 C11.7969,20.0938 11.0938,20.7031 11.0938,21.5 L11.0938,23.4063 C11.0938,24.2031 11.7969,24.7969 12.5,24.7969 L42.7969,24.7969 C43.6094,24.7969 44.2031,24.2031 44.2031,23.4063 L44.2031,21.5 C44.2031,20.7031 43.6094,20.0938 42.7969,20.0938 L33.9063,20.0938 L33.9063,12.7031 L42.7969,12.7031 C43.6094,12.7031 44.2031,12 44.2031,11.2031 L44.2031,9.29688 C44.2031,8.59375 43.6094,7.90625 42.7969,7.90625 L33.9063,7.90625 L33.9063,-8 C33.9063,-8.59375 33.6094,-9.09375 33.1094,-9.29688 L31.9063,-9.90625 C31.7031,-10 31.4063,-10.0938 31.2031,-10.0938 C30.9063,-10 30.5,-9.90625 30.2969,-9.70313 L21.2031,-1.40625 C20.9063,-1.09375 20.7969,-0.703125 20.7969,-0.296875 L20.7969,7.90625 L9.29688,7.90625 C9.29688,7.90625 20.4063,-4.09375 32.2031,-19.9063 C32.6094,-20.4063 32.7031,-20.9063 32.7031,-21.2969 C32.7031,-21.7969 32.5,-22.2031 32.4063,-22.2969 L30.2031,-24.5 C30,-24.7031 29.6094,-24.9063 29.2031,-24.9063 C28.6094,-24.9063 15.0938,-24.9063 14.4063,-24.9063 C13.5938,-24.9063 13.0938,-24.2969 13,-23.7031 C13,-23.7031 12.5,-16.2969 9.90625,-8.20313 C7.29688,-0.09375 4.29688,4.90625 1.70313,8.59375 C1.70313,8.59375 1.40625,9.09375 1.40625,9.70313 C1.40625,9.90625 1.40625,10.0938 1.5,10.2969 C1.90625,11 2.5,12.0938 2.5,12.0938 C2.5,12.0938 2.70313,12.7031 3.59375,12.7031 L20.7969,12.7031 "/>
<path class="Rest" transform="matrix(0.992126,0,0,0.992126,2779.06,223.228)" d="M23,16.5938 C22.9063,16.5 22.7031,16.2969 22.4063,15.9063 L10.9063,1.70313 C10.7969,1.59375 10.7031,1.29688 10.7031,1.09375 C10.7031,0.796875 10.7969,0.40625 10.9063,0.203125 L21.0938,-15.2031 C21.2031,-15.4063 21.2969,-15.7031 21.2969,-15.9063 L21.2969,-16.7969 C21.2969,-17.0938 21.2031,-17.4063 21,-17.5938 L4.79688,-39.5 C4.79688,-39.5 4.40625,-40.1094 3.79688,-40.1094 C3.5,-40.1094 3.29688,-40.1094 3,-39.7969 C2.59375,-39.5 2.5,-39.1094 2.5,-38.7969 C2.5,-38.2031 2.79688,-37.7031 2.79688,-37.7031 L10.4063,-27.2969 C10.5938,-27 10.7031,-26.6094 10.7031,-26.1094 C10.7031,-25.7031 10.5938,-25.2031 10.4063,-24.9063 L0.296875,-9.5 C0.203125,-9.29688 0.09375,-8.90625 0.09375,-8.70313 L0.09375,-7.79688 C0.09375,-7.5 0.203125,-7.20313 0.40625,-7 L11.5938,6.90625 C11.2031,6.79688 10.2969,6.59375 9.09375,6.59375 C4,6.59375 0,10.7969 0,15.9063 C0,17.2969 0.296875,18.7031 1.09375,19.7969 C3.20313,23 10.7031,32.5 10.7031,32.5 C10.7031,32.5 11.2031,33.1094 11.9063,33.1094 C12.0938,33.1094 12.2969,33.1094 12.5,32.9063 C13,32.5 13.2031,32.1094 13.2031,31.7031 C13.2031,31.2969 13,31 12.9063,30.7969 C12.5938,30.2969 9.40625,24.5 9.40625,24.5 C9.40625,24.5 8.70313,23.0938 8.70313,21.2969 C8.70313,18.0938 11.0938,15.5 14.2969,15.5 C15.5938,15.5 16.7031,15.9063 17.5,16.4063 L21.4063,18.9063 C21.4063,18.9063 21.7969,19.0938 22.2031,19.0938 C22.5938,19.0938 22.9063,19 23.2031,18.5938 C23.4063,18.2969 23.5,18 23.5,17.7031 C23.5,17.4063 23.4063,17.2031 23.2031,16.9063 L23,16.5938 "/>
<path class="Rest" transform="matrix(0.992126,0,0,0.992126,2871.22,223.228)" d="M23,16.5938 C22.9063,16.5 22.7031,16.2969 22.4063,15.9063 L10.9063,1.70313 C10.7969,1.59375 10.7031,1.29688 10.7031,1.09375 C10.7031,0.796875 10.7969,0.40625 10.9063,0.203125 L21.0938,-15.2031 C21.2031,-15.4063 21.2969,-15.7031 21.2969,-15.9063 L21.2969,-16.7969 C21.2969,-17.0938 21.2031,-17.4063 21,-17.5938 L4.79688,-39.5 C4.79688,-39.5 4.40625,-40.1094 3.79688,-40.1094 C3.5,-40.1094 3.29688,-40.1094 3,-39.7969 C2.59375,-39.5 2.5,-39.1094 2.5,-38.7969 C2.5,-38.2031 2.79688,-37.7031 2.79688,-37.7031 L10.4063,-27.2969 C10.5938,-27 10.7031,-26.6094 10.7031,-26.1094 C10.7031,-25.7031 10.5938,-25.2031 10.4063,-24.9063 L0.296875,-9.5 C0.203125,-9.29688 0.09375,-8.90625 0.09375,-8.70313 L0.09375,-7.79688 C0.09375,-7.5 0.203125,-7.20313 0.40625,-7 L11.5938,6.90625 C11.2031,6.79688 10.2969,6.59375 9.09375,6.59375 C4,6.59375 0,10.7969 0,15.9063 C0,17.2969 0.296875,18.7031 1.09375,19.7969 C3.20313,23 10.7031,32.5 10.7031,32.5 C10.7031,32.5 11.2031,33.1094 11.9063,33.1094 C12.0938,33.1094 12.2969,33.1094 12.5,32.9063 C13,32.5 13.2031,32.1094 13.2031,31.7031 C13.2031,31.2969 13,31 12.9063,30.7969 C12.5938,30.2969 9.40625,24.5 9.40625,24.5 C9.40625,24.5 8.70313,23.0938 8.70313,21.2969 C8.70313,18.0938 11.0938,15.5 14.2969,15.5 C15.5938,15.5 16.7031,15.9063 17.5,16.4063 L21.4063,18.9063 C21.4063,18.9063 21.7969,19.0938 22.2031,19.0938 C22.5938,19.0938 22.9063,19 23.2031,18.5938 C23.4063,18.2969 23.5,18 23.5,17.7031 C23.5,17.4063 23.4063,17.2031 23.2031,16.9063 L23,16.5938 "/>
<path class="Rest" transform="matrix(0.992126,0,0,0.992126,1799.35,460.222)" d="M0,-1 C0,0.40625 0,0.40625 1.40625,0.40625 L31.1094,0.40625 C32.5,0.40625 32.5,0.40625 32.5,-1 L32.5,-11.7969 C32.5,-13.2031 32.5,-13.2031 31.1094,-13.2031 L1.40625,-13.2031 C0,-13.2031 0,-13.2031 0,-11.7969 L0,-1 "/>
<path class="Rest" transform="matrix(0.992126,0,0,0.992126,2871.22,460.222)" d="M0,-1 C0,0.40625 0,0.40625 1.40625,0.40625 L31.1094,0.40625 C32.5,0.40625 32.5,0.40625 32.5,-1 L32.5,-11.7969 C32.5,-13.2031 32.5,-13.2031 31.1094,-13.2031 L1.40625,-13.2031 C0,-13.2031 0,-13.2031 0,-11.7969 L0,-1 "/>
<path class="Rest" transform="matrix(0.992126,0,0,0.992126,2779.06,460.222)" d="M23,16.5938 C22.9063,16.5 22.7031,16.2969 22.4063,15.9063 L10.9063,1.70313 C10.7969,1.59375 10.7031,1.29688 10.7031,1.09375 C10.7031,0.796875 10.7969,0.40625 10.9063,0.203125 L21.0938,-15.2031 C21.2031,-15.4063 21.2969,-15.7031 21.2969,-15.9063 L21.2969,-16.7969 C21.2969,-17.0938 21.2031,-17.4063 21,-17.5938 L4.79688,-39.5 C4.79688,-39.5 4.40625,-40.1094 3.79688,-40.1094 C3.5,-40.1094 3.29688,-40.1094 3,-39.7969 C2.59375,-39.5 2.5,-39.1094 2.5,-38.7969 C2.5,-38.2031 2.79688,-37.7031 2.79688,-37.7031 L10.4063,-27.2969 C10.5938,-27 10.7031,-26.6094 10.7031,-26.1094 C10.7031,-25.7031 10.5938,-25.2031 10.4063,-24.9063 L0.296875,-9.5 C0.203125,-9.29688 0.09375,-8.90625 0.09375,-8.70313 L0.09375,-7.79688 C0.09375,-7.5 0.203125,-7.20313 0.40625,-7 L11.5938,6.90625 C11.2031,6.79688 10.2969,6.59375 9.09375,6.59375 C4,6.59375 0,10.7969 0,15.9063 C0,17.2969 0.296875,18.7031 1.09375,19.7969 C3.20313,23 10.7031,32.5 10.7031,32.5 C10.7031,32.5 11.2031,33.1094 11.9063,33.1094 C12.0938,33.1094 12.2969,33.1094 12.5,32.9063 C13,32.5 13.2031,32.1094 13.2031,31.7031 C13.2031,31.2969 13,31 12.9063,30.7969 C12.5938,30.2969 9.40625,24.5 9.40625,24.5 C9.40625,24.5 8.70313,23.0938 8.70313,21.2969 C8.70313,18.0938 11.0938,15.5 14.2969,15.5 C15.5938,15.5 16.7031,15.9063 17.5,16.4063 L21.4063,18.9063 C21.4063,18.9063 21.7969,19.0938 22.2031,19.0938 C22.5938,19.0938 22.9063,19 23.2031,18.5938 C23.4063,18.2969 23.5,18 23.5,17.7031 C23.5,17.4063 23.4063,17.2031 23.2031,16.9063 L23,16.5938 "/>
<path class="Rest" transform="matrix(0.992126,0,0,0.992126,2281.56,460.222)" d="M23,16.5938 C22.9063,16.5 22.7031,16.2969 22.4063,15.9063 L10.9063,1.70313 C10.7969,1.59375 10.7031,1.29688 10.7031,1.09375 C10.7031,0.796875 10.7969,0.40625 10.9063,0.203125 L21.0938,-15.2031 C21.2031,-15.4063 21.2969,-15.7031 21.2969,-15.9063 L21.2969,-16.7969 C21.2969,-17.0938 21.2031,-17.4063 21,-17.5938 L4.79688,-39.5 C4.79688,-39.5 4.40625,-40.1094 3.79688,-40.1094 C3.5,-40.1094 3.29688,-40.1094 3,-39.7969 C2.59375,-39.5 2.5,-39.1094 2.5,-38.7969 C2.5,-38.2031 2.79688,-37.7031 2.79688,-37.7031 L10.4063,-27.2969 C10.5938,-27 10.7031,-26.6094 10.7031,-26.1094 C10.7031,-25.7031 10.5938,-25.2031 10.4063,-24.9063 L0.296875,-9.5 C0.203125,-9.29688 0.09375,-8.90625 0.09375,-8.70313 L0.09375,-7.79688 C0.09375,-7.5 0.203125,-7.20313 0.40625,-7 L11.5938,6.90625 C11.2031,6.79688 10.2969,6.59375 9.09375,6.59375 C4,6.59375 0,10.7969 0,15.9063 C0,17.2969 0.296875,18.7031 1.09375,19.7969 C3.20313,23 10.7031,32.5 10.7031,32.5 C10.7031,32.5 11.2031,33.1094 11.9063,33.1094 C12.0938,33.1094 12.2969,33.1094 12.5,32.9063 C13,32.5 13.2031,32.1094 13.2031,31.7031 C13.2031,31.2969 13,31 12.9063,30.7969 C12.5938,30.2969 9.40625,24.5 9.40625,24.5 C9.40625,24.5 8.70313,23.0938 8.70313,21.2969 C8.70313,18.0938 11.0938,15.5 14.2969,15.5 C15.5938,15.5 16.7031,15.9063 17.5,16.4063 L21.4063,18.9063 C21.4063,18.9063 21.7969,19.0938 22.2031,19.0938 C22.5938,19.0938 22.9063,19 23.2031,18.5938 C23.4063,18.2969 23.5,18 23.5,17.7031 C23.5,17.4063 23.4063,17.2031 23.2031,16.9063 L23,16.5938 "/>
<path class="Beam" fill-rule="evenodd" d="M1580.12,210.822 L1747.03,217.023 L1747.03,229.433 L1580.12,223.233 L1580.12,210.822 "/>
<path class="Beam" fill-rule="evenodd" d="M1580.12,192.22 L1637.41,194.348 L1637.41,206.759 L1580.12,204.63 L1580.12,192.22 "/>
<path class="Beam" fill-rule="evenodd" d="M1689.74,196.293 L1747.03,198.421 L1747.03,210.831 L1689.74,208.703 L1689.74,196.293 "/>
<path class="Beam" fill-rule="evenodd" d="M1039.93,210.822 L1206.84,217.023 L1206.84,229.433 L1039.93,223.233 L1039.93,210.822 "/>
<path class="Beam" fill-rule="evenodd" d="M1039.93,192.22 L1097.22,194.348 L1097.22,206.759 L1039.93,204.63 L1039.93,192.22 "/>
<path class="Beam" fill-rule="evenodd" d="M1149.55,196.293 L1206.84,198.421 L1206.84,210.831 L1149.55,208.703 L1149.55,196.293 "/>
<path class="Beam" fill-rule="evenodd" d="M1664.64,929.972 L2188.71,960.976 L2188.71,973.4 L1664.64,942.396 L1664.64,929.972 "/>
<path class="Beam" fill-rule="evenodd" d="M1664.64,911.37 L1840.99,921.803 L1840.99,934.226 L1664.64,923.793 L1664.64,911.37 "/>
<path class="Beam" fill-rule="evenodd" d="M2012.37,931.942 L2188.71,942.374 L2188.71,954.797 L2012.37,944.365 L2012.37,931.942 "/>
<path class="Beam" fill-rule="evenodd" d="M1799.35,235.626 L1976.72,241.827 L1976.72,254.236 L1799.35,248.035 L1799.35,235.626 "/>
<path class="Beam" fill-rule="evenodd" d="M1799.35,217.024 L1882.98,219.947 L1882.98,232.357 L1799.35,229.433 L1799.35,217.024 "/>
<path class="Beam" fill-rule="evenodd" d="M1929.6,221.577 L1976.72,223.225 L1976.72,235.634 L1929.6,233.986 L1929.6,221.577 "/>
<path class="Beam" fill-rule="evenodd" d="M2360.09,960.987 L2884.15,960.987 L2884.15,973.389 L2360.09,973.389 L2360.09,960.987 "/>
<path class="Beam" fill-rule="evenodd" d="M2360.09,942.385 L2536.43,942.385 L2536.43,954.786 L2360.09,954.786 L2360.09,942.385 "/>
<path class="Beam" fill-rule="evenodd" d="M2707.81,942.385 L2884.15,942.385 L2884.15,954.786 L2707.81,954.786 L2707.81,942.385 "/>
<path class="Beam" fill-rule="evenodd" d="M601.477,210.822 L768.379,217.023 L768.379,229.433 L601.477,223.233 L601.477,210.822 "/>
<path class="Beam" fill-rule="evenodd" d="M601.477,192.22 L658.765,194.348 L658.765,206.759 L601.477,204.63 L601.477,192.22 "/>
<path class="Beam" fill-rule="evenodd" d="M711.091,196.293 L768.379,198.421 L768.379,210.831 L711.091,208.703 L711.091,196.293 "/>
<path class="Beam" fill-rule="evenodd" d="M1340.26,217.024 L1527.8,210.823 L1527.8,223.232 L1340.26,229.433 L1340.26,217.024 "/>
<path class="Beam" fill-rule="evenodd" d="M1340.26,198.422 L1397.55,196.528 L1397.55,208.936 L1340.26,210.83 L1340.26,198.422 "/>
<path class="Beam" fill-rule="evenodd" d="M1449.88,194.797 L1527.8,192.221 L1527.8,204.629 L1449.88,207.206 L1449.88,194.797 "/>
<path class="Beam" fill-rule="evenodd" d="M969.199,929.972 L1493.26,960.976 L1493.26,973.4 L969.199,942.396 L969.199,929.972 "/>
<path class="Beam" fill-rule="evenodd" d="M969.199,911.37 L1145.54,921.803 L1145.54,934.226 L969.199,923.793 L969.199,911.37 "/>
<path class="Beam" fill-rule="evenodd" d="M1316.92,931.942 L1493.26,942.374 L1493.26,954.797 L1316.92,944.365 L1316.92,931.942 "/>
<path class="Beam" fill-rule="evenodd" d="M2041.49,279.01 L2177.89,291.411 L2177.89,303.864 L2041.49,291.463 L2041.49,279.01 "/>
<path class="Beam" fill-rule="evenodd" d="M2041.49,260.407 L2088.61,264.692 L2088.61,277.144 L2041.49,272.86 L2041.49,260.407 "/>
<path class="Beam" fill-rule="evenodd" d="M2130.77,268.525 L2177.89,272.809 L2177.89,285.262 L2130.77,280.978 L2130.77,268.525 "/>
<path class="Beam" fill-rule="evenodd" d="M820.706,217.023 L987.608,210.822 L987.608,223.233 L820.706,229.433 L820.706,217.023 "/>
<path class="Beam" fill-rule="evenodd" d="M820.706,198.421 L877.993,196.293 L877.993,208.703 L820.706,210.831 L820.706,198.421 "/>
<path class="Beam" fill-rule="evenodd" d="M930.32,194.348 L987.608,192.22 L987.608,204.63 L930.32,206.759 L930.32,194.348 "/>
<path class="Beam" fill-rule="evenodd" d="M273.754,923.782 L797.818,923.782 L797.818,936.184 L273.754,936.184 L273.754,923.782 "/>
<path class="Beam" fill-rule="evenodd" d="M273.754,905.18 L450.095,905.18 L450.095,917.582 L273.754,917.582 L273.754,905.18 "/>
<path class="Beam" fill-rule="evenodd" d="M621.476,905.18 L797.818,905.18 L797.818,917.582 L621.476,917.582 L621.476,905.18 "/>
<path class="Beam" fill-rule="evenodd" d="M361.615,217.024 L549.15,210.823 L549.15,223.232 L361.615,229.433 L361.615,217.024 "/>
<path class="Beam" fill-rule="evenodd" d="M361.615,198.422 L418.903,196.528 L418.903,208.936 L361.615,210.83 L361.615,198.422 "/>
<path class="Beam" fill-rule="evenodd" d="M471.229,194.797 L549.15,192.221 L549.15,204.629 L471.229,207.206 L471.229,194.797 "/>
<path class="Beam" fill-rule="evenodd" d="M850.462,367.173 L962.557,379.574 L962.557,392.052 L850.462,379.65 L850.462,367.173 "/>
<path class="Beam" fill-rule="evenodd" d="M391.371,435.419 L503.466,435.419 L503.466,447.821 L391.371,447.821 L391.371,435.419 "/>
<path class="Beam" fill-rule="evenodd" d="M631.233,367.211 L743.328,367.211 L743.328,379.612 L631.233,379.612 L631.233,367.211 "/>
</svg>
