<?xml version="1.0" encoding="UTF-8" standalone="no"?>
<svg width="3060px" height="1260px" viewBox="0 0 3060 1260"
 xmlns="http://www.w3.org/2000/svg" xmlns:xlink="http://www.w3.org/1999/xlink" version="1.2" baseProfile="tiny">
<title>pred</title>
<desc>Generated by MuseScore Studio 4.3.0</desc>
<polyline class="StaffLines" fill="none" stroke="#000000" stroke-width="2.73" stroke-linejoin="bevel" points="155.803,173.622 3060,173.622"/>
<polyline class="StaffLines" fill="none" stroke="#000000" stroke-width="2.73" stroke-linejoin="bevel" points="155.803,198.425 3060,198.425"/>
<polyline class="StaffLines" fill="none" stroke="#000000" stroke-width="2.73" stroke-linejoin="bevel" points="155.803,223.228 3060,223.228"/>
<polyline class="StaffLines" fill="none" stroke="#000000" stroke-width="2.73" stroke-linejoin="bevel" points="155.803,248.031 3060,248.031"/>
<polyline class="StaffLines" fill="none" stroke="#000000" stroke-width="2.73" stroke-linejoin="bevel" points="155.803,272.835 3060,272.835"/>
<polyline class="StaffLines" fill="none" stroke="#000000" stroke-width="2.73" stroke-linejoin="bevel" points="155.803,418.867 3060,418.867"/>
<polyline class="StaffLines" fill="none" stroke="#000000" stroke-width="2.73" stroke-linejoin="bevel" points="155.803,443.67 3060,443.67"/>
<polyline class="StaffLines" fill="none" stroke="#000000" stroke-width="2.73" stroke-linejoin="bevel" points="155.803,468.473 3060,468.473"/>
<polyline class="StaffLines" fill="none" stroke="#000000" stroke-width="2.73" stroke-linejoin="bevel" points="155.803,493.276 3060,493.276"/>
<polyline class="StaffLines" fill="none" stroke="#000000" stroke-width="2.73" stroke-linejoin="bevel" points="155.803,518.08 3060,518.08"/>
<polyline class="StaffLines" fill="none" stroke="#000000" stroke-width="2.73" stroke-linejoin="bevel" points="122.803,736.152 832.112,736.152"/>
<polyline class="StaffLines" fill="none" stroke="#000000" stroke-width="2.73" stroke-linejoin="bevel" points="122.803,760.955 832.112,760.955"/>
<polyline class="StaffLines" fill="none" stroke="#000000" stroke-width="2.73" stroke-linejoin="bevel" points="122.803,785.758 832.112,785.758"/>
<polyline class="StaffLines" fill="none" stroke="#000000" stroke-width="2.73" stroke-linejoin="bevel" points="122.803,810.561 832.112,810.561"/>
<polyline class="StaffLines" fill="none" stroke="#000000" stroke-width="2.73" stroke-linejoin="bevel" points="122.803,835.364 832.112,835.364"/>
<polyline class="StaffLines" fill="none" stroke="#000000" stroke-width="2.73" stroke-linejoin="bevel" points="122.803,987.165 832.112,987.165"/>
<polyline class="StaffLines" fill="none" stroke="#000000" stroke-width="2.73" stroke-linejoin="bevel" points="122.803,1011.97 832.112,1011.97"/>
<polyline class="StaffLines" fill="none" stroke="#000000" stroke-width="2.73" stroke-linejoin="bevel" points="122.803,1036.77 832.112,1036.77"/>
<polyline class="StaffLines" fill="none" stroke="#000000" stroke-width="2.73" stroke-linejoin="bevel" points="122.803,1061.57 832.112,1061.57"/>
<polyline class="StaffLines" fill="none" stroke="#000000" stroke-width="2.73" stroke-linejoin="bevel" points="122.803,1086.38 832.112,1086.38"/>
<path class="MeasureNumber" d="M127.288,671.233 C126.038,671.983 125.678,672.467 125.678,673.264 C125.678,674.03 126.319,674.592 127.116,674.592 C128.163,674.592 128.756,673.827 128.881,672.342 C130.116,671.342 131.444,670.905 133.038,670.905 C136.006,670.905 137.647,672.748 137.647,676.061 C137.647,681.264 134.288,685.498 130.163,685.498 C127.803,685.498 125.881,684.389 125.881,683.061 C125.881,682.827 125.928,682.748 126.116,682.623 C127.397,682.03 128.444,681.592 128.444,679.905 C128.444,678.623 127.444,677.67 126.038,677.67 C124.288,677.67 122.959,679.139 122.959,681.061 C122.959,684.592 126.006,687.139 130.288,687.139 C136.756,687.139 142.006,681.983 142.006,675.592 C142.006,671.545 138.928,668.702 134.569,668.702 C132.834,668.702 131.444,669.061 129.522,670.03 L131.756,662.467 C133.881,662.905 135.569,663.108 137.006,663.108 C139.647,663.108 142.006,662.264 143.319,660.873 C144.006,660.077 144.397,659.389 144.397,658.873 C144.397,658.623 144.272,658.389 144.116,658.389 C144.006,658.389 143.913,658.436 143.678,658.545 C142.366,659.186 140.678,659.545 139.116,659.545 C136.725,659.545 133.881,659.155 130.928,658.389 L127.288,671.233 "/>
<path class="InstrumentName" d="M11.4063,224.681 L17.0469,224.681 C21.5469,224.681 23.9063,224.322 25.9531,223.385 C29.4531,221.681 31.4531,218.478 31.4531,214.525 C31.4531,206.572 24.4531,204.619 17.9063,204.619 L0.40625,204.619 L0.40625,206.978 L1.29688,206.978 C4.15625,207.025 5.09375,207.181 5.5,207.681 C5.79688,208.119 5.79688,208.228 5.79688,210.775 L5.79688,234.572 C5.79688,237.135 5.79688,237.228 5.5,237.681 C5.09375,238.181 4.15625,238.385 1.29688,238.385 L0.40625,238.385 L0.40625,240.728 L17.2031,240.728 L17.2031,238.385 L15.9063,238.385 C13.0469,238.385 12.0938,238.181 11.7031,237.681 C11.4063,237.228 11.4063,237.135 11.4063,234.572 L11.4063,224.681 M11.4063,222.322 L11.4063,209.525 C11.4063,207.228 11.6563,206.978 14.4531,206.978 L17.6563,206.978 C22.8438,206.978 25.2969,209.431 25.2969,214.728 C25.2969,219.885 22.75,222.322 17.4531,222.322 L11.4063,222.322 M40.9531,204.978 C39.3438,204.978 38.0469,206.275 38.0469,207.869 C38.0469,209.478 39.3438,210.775 40.9063,210.775 C42.5469,210.775 43.8438,209.478 43.8438,207.869 C43.8438,206.275 42.5469,204.978 40.9531,204.978 M43.2969,217.431 L33.9063,217.978 L33.9063,220.135 L36.4531,220.135 C38.3438,220.181 38.5938,220.478 38.5938,222.635 L38.5938,236.931 C38.5469,237.681 38.5,237.978 38.2969,238.228 C37.9531,238.681 37,238.885 34.8438,238.931 L34.5,238.931 L34.5,240.728 L47.4531,240.728 L47.4531,238.931 L47.0938,238.931 C43.75,238.822 43.2969,238.572 43.2969,236.775 L43.2969,217.431 M71.5938,224.635 C71.5938,221.478 71.0469,219.885 69.5938,218.681 C67.9531,217.322 65.5,216.681 62.2969,216.681 C56.6563,216.681 52.5469,219.322 52.5469,222.978 C52.5469,224.822 53.7031,226.025 55.4531,226.025 C57.0469,226.025 58.1563,224.978 58.1563,223.478 C58.1563,222.822 57.9063,222.135 57.4063,221.431 C57.0938,221.072 57.0469,220.978 57.0469,220.728 C57.0469,219.728 59.0469,218.822 61.4531,218.822 C63.0469,218.822 64.7969,219.322 65.5938,220.072 C66.5469,220.885 66.9063,222.072 66.9063,224.322 L66.9063,226.275 C61.7031,227.181 60.0469,227.572 57.5938,228.525 C53.25,230.135 51.2031,232.431 51.2031,235.635 C51.2031,239.228 54,241.478 58.4531,241.478 C61.9063,241.478 65,240.072 67.1563,237.525 C67.9531,240.072 69.2031,241.072 71.5469,241.072 C73.7969,241.072 76.1563,239.635 76.1563,238.181 C76.1563,237.822 75.9531,237.572 75.6563,237.572 C75.4531,237.572 75.25,237.635 74.9063,237.775 C74.2031,238.072 73.9063,238.135 73.5,238.135 C72.0938,238.135 71.5938,237.228 71.5938,234.681 L71.5938,224.635 M66.9063,230.728 C66.9063,233.728 66.75,234.431 65.9063,235.728 C64.6563,237.572 62.4063,238.822 60.2031,238.822 C57.9063,238.822 56.25,237.181 56.25,234.931 C56.25,232.822 57.2969,231.322 59.5,230.275 C61.0469,229.572 63,229.072 66.9063,228.431 L66.9063,230.728 M87,217.431 L78.3438,217.978 L78.3438,220.135 L80.1563,220.135 C82.0469,220.181 82.2969,220.478 82.2969,222.635 L82.2969,236.931 C82.25,237.681 82.2031,237.978 82,238.228 C81.6563,238.681 80.7031,238.885 78.5469,238.931 L78.3438,238.931 L78.3438,240.728 L91,240.728 L91,238.931 L90.7969,238.931 C87.4531,238.822 87,238.572 87,236.775 L87,229.385 C87,226.931 87.3438,224.681 87.9063,223.525 C88.9531,221.275 91.2031,219.728 93.3438,219.728 C94.6563,219.728 96.1563,220.431 96.9063,221.478 C97.6563,222.572 98,224.072 98,226.478 L98,236.931 C97.9531,237.681 97.9063,237.978 97.7031,238.228 C97.3438,238.681 96.3438,238.885 94.2031,238.931 L94,238.931 L94,240.728 L106.656,240.728 L106.656,238.931 L106.453,238.931 C103.156,238.822 102.703,238.572 102.703,236.775 L102.703,226.728 C102.703,223.135 102.547,222.228 101.656,220.525 C100.406,218.135 97.9063,216.681 94.9063,216.681 C91.6563,216.681 89.2031,218.181 87,221.478 L87,217.431 M120.594,216.681 C114.453,216.681 109.703,222.135 109.703,229.135 C109.703,235.978 114.5,241.478 120.5,241.478 C126.5,241.478 131.297,235.978 131.297,229.072 C131.297,222.228 126.5,216.681 120.594,216.681 M120.594,218.822 C124.094,218.822 126.047,222.478 126.047,229.072 C126.047,235.728 124.094,239.322 120.5,239.322 C116.906,239.322 114.953,235.728 114.953,229.135 C114.953,222.322 116.844,218.822 120.594,218.822"/>
<path class="InstrumentName" d="M11.4063,787.211 L17.0469,787.211 C21.5469,787.211 23.9063,786.852 25.9531,785.914 C29.4531,784.211 31.4531,781.008 31.4531,777.055 C31.4531,769.102 24.4531,767.148 17.9063,767.148 L0.40625,767.148 L0.40625,769.508 L1.29688,769.508 C4.15625,769.555 5.09375,769.711 5.5,770.211 C5.79688,770.648 5.79688,770.758 5.79688,773.305 L5.79688,797.102 C5.79688,799.664 5.79688,799.758 5.5,800.211 C5.09375,800.711 4.15625,800.914 1.29688,800.914 L0.40625,800.914 L0.40625,803.258 L17.2031,803.258 L17.2031,800.914 L15.9063,800.914 C13.0469,800.914 12.0938,800.711 11.7031,800.211 C11.4063,799.758 11.4063,799.664 11.4063,797.102 L11.4063,787.211 M11.4063,784.852 L11.4063,772.055 C11.4063,769.758 11.6563,769.508 14.4531,769.508 L17.6563,769.508 C22.8438,769.508 25.2969,771.961 25.2969,777.258 C25.2969,782.414 22.75,784.852 17.4531,784.852 L11.4063,784.852 M42,779.961 L33.3438,780.508 L33.3438,782.664 L35.1563,782.664 C37.0469,782.711 37.2969,783.008 37.2969,785.164 L37.2969,799.461 C37.25,800.211 37.2031,800.508 37,800.758 C36.6563,801.211 35.7031,801.414 33.5469,801.461 L33.3438,801.461 L33.3438,803.258 L46,803.258 L46,801.461 L45.7969,801.461 C42.4531,801.352 42,801.102 42,799.305 L42,791.914 C42,789.461 42.3438,787.211 42.9063,786.055 C43.9531,783.805 46.2031,782.258 48.3438,782.258 C49.6563,782.258 51.1563,782.961 51.9063,784.008 C52.6563,785.102 53,786.602 53,789.008 L53,799.461 C52.9531,800.211 52.9063,800.508 52.7031,800.758 C52.3438,801.211 51.3438,801.414 49.2031,801.461 L49,801.461 L49,803.258 L61.6563,803.258 L61.6563,801.461 L61.4531,801.461 C58.1563,801.352 57.7031,801.102 57.7031,799.305 L57.7031,789.258 C57.7031,785.664 57.5469,784.758 56.6563,783.055 C55.4063,780.664 52.9063,779.211 49.9063,779.211 C46.6563,779.211 44.2031,780.711 42,784.008 L42,779.961 M75.5938,779.211 C69.4531,779.211 64.7031,784.664 64.7031,791.664 C64.7031,798.508 69.5,804.008 75.5,804.008 C81.5,804.008 86.2969,798.508 86.2969,791.602 C86.2969,784.758 81.5,779.211 75.5938,779.211 M75.5938,781.352 C79.0938,781.352 81.0469,785.008 81.0469,791.602 C81.0469,798.258 79.0938,801.852 75.5,801.852 C71.9063,801.852 69.9531,798.258 69.9531,791.664 C69.9531,784.852 71.8438,781.352 75.5938,781.352 M93.8438,797.711 C92.0938,797.711 90.7031,799.102 90.7031,800.805 C90.7031,802.555 92.0938,803.961 93.7969,803.961 C95.5469,803.961 96.9531,802.555 96.9531,800.805 C96.9531,799.102 95.5469,797.711 93.8438,797.711"/>
<path class="InstrumentName" d="M11.4063,469.926 L17.0469,469.926 C21.5469,469.926 23.9063,469.567 25.9531,468.63 C29.4531,466.926 31.4531,463.723 31.4531,459.77 C31.4531,451.817 24.4531,449.864 17.9063,449.864 L0.40625,449.864 L0.40625,452.223 L1.29688,452.223 C4.15625,452.27 5.09375,452.426 5.5,452.926 C5.79688,453.364 5.79688,453.473 5.79688,456.02 L5.79688,479.817 C5.79688,482.38 5.79688,482.473 5.5,482.926 C5.09375,483.426 4.15625,483.63 1.29688,483.63 L0.40625,483.63 L0.40625,485.973 L17.2031,485.973 L17.2031,483.63 L15.9063,483.63 C13.0469,483.63 12.0938,483.426 11.7031,482.926 C11.4063,482.473 11.4063,482.38 11.4063,479.817 L11.4063,469.926 M11.4063,467.567 L11.4063,454.77 C11.4063,452.473 11.6563,452.223 14.4531,452.223 L17.6563,452.223 C22.8438,452.223 25.2969,454.676 25.2969,459.973 C25.2969,465.13 22.75,467.567 17.4531,467.567 L11.4063,467.567 M40.9531,450.223 C39.3438,450.223 38.0469,451.52 38.0469,453.114 C38.0469,454.723 39.3438,456.02 40.9063,456.02 C42.5469,456.02 43.8438,454.723 43.8438,453.114 C43.8438,451.52 42.5469,450.223 40.9531,450.223 M43.2969,462.676 L33.9063,463.223 L33.9063,465.38 L36.4531,465.38 C38.3438,465.426 38.5938,465.723 38.5938,467.88 L38.5938,482.176 C38.5469,482.926 38.5,483.223 38.2969,483.473 C37.9531,483.926 37,484.13 34.8438,484.176 L34.5,484.176 L34.5,485.973 L47.4531,485.973 L47.4531,484.176 L47.0938,484.176 C43.75,484.067 43.2969,483.817 43.2969,482.02 L43.2969,462.676 M71.5938,469.88 C71.5938,466.723 71.0469,465.13 69.5938,463.926 C67.9531,462.567 65.5,461.926 62.2969,461.926 C56.6563,461.926 52.5469,464.567 52.5469,468.223 C52.5469,470.067 53.7031,471.27 55.4531,471.27 C57.0469,471.27 58.1563,470.223 58.1563,468.723 C58.1563,468.067 57.9063,467.38 57.4063,466.676 C57.0938,466.317 57.0469,466.223 57.0469,465.973 C57.0469,464.973 59.0469,464.067 61.4531,464.067 C63.0469,464.067 64.7969,464.567 65.5938,465.317 C66.5469,466.13 66.9063,467.317 66.9063,469.567 L66.9063,471.52 C61.7031,472.426 60.0469,472.817 57.5938,473.77 C53.25,475.38 51.2031,477.676 51.2031,480.88 C51.2031,484.473 54,486.723 58.4531,486.723 C61.9063,486.723 65,485.317 67.1563,482.77 C67.9531,485.317 69.2031,486.317 71.5469,486.317 C73.7969,486.317 76.1563,484.88 76.1563,483.426 C76.1563,483.067 75.9531,482.817 75.6563,482.817 C75.4531,482.817 75.25,482.88 74.9063,483.02 C74.2031,483.317 73.9063,483.38 73.5,483.38 C72.0938,483.38 71.5938,482.473 71.5938,479.926 L71.5938,469.88 M66.9063,475.973 C66.9063,478.973 66.75,479.676 65.9063,480.973 C64.6563,482.817 62.4063,484.067 60.2031,484.067 C57.9063,484.067 56.25,482.426 56.25,480.176 C56.25,478.067 57.2969,476.567 59.5,475.52 C61.0469,474.817 63,474.317 66.9063,473.676 L66.9063,475.973 M87,462.676 L78.3438,463.223 L78.3438,465.38 L80.1563,465.38 C82.0469,465.426 82.2969,465.723 82.2969,467.88 L82.2969,482.176 C82.25,482.926 82.2031,483.223 82,483.473 C81.6563,483.926 80.7031,484.13 78.5469,484.176 L78.3438,484.176 L78.3438,485.973 L91,485.973 L91,484.176 L90.7969,484.176 C87.4531,484.067 87,483.817 87,482.02 L87,474.63 C87,472.176 87.3438,469.926 87.9063,468.77 C88.9531,466.52 91.2031,464.973 93.3438,464.973 C94.6563,464.973 96.1563,465.676 96.9063,466.723 C97.6563,467.817 98,469.317 98,471.723 L98,482.176 C97.9531,482.926 97.9063,483.223 97.7031,483.473 C97.3438,483.926 96.3438,484.13 94.2031,484.176 L94,484.176 L94,485.973 L106.656,485.973 L106.656,484.176 L106.453,484.176 C103.156,484.067 102.703,483.817 102.703,482.02 L102.703,471.973 C102.703,468.38 102.547,467.473 101.656,465.77 C100.406,463.38 97.9063,461.926 94.9063,461.926 C91.6563,461.926 89.2031,463.426 87,466.723 L87,462.676 M120.594,461.926 C114.453,461.926 109.703,467.38 109.703,474.38 C109.703,481.223 114.5,486.723 120.5,486.723 C126.5,486.723 131.297,481.223 131.297,474.317 C131.297,467.473 126.5,461.926 120.594,461.926 M120.594,464.067 C124.094,464.067 126.047,467.723 126.047,474.317 C126.047,480.973 124.094,484.567 120.5,484.567 C116.906,484.567 114.953,480.973 114.953,474.38 C114.953,467.567 116.844,464.067 120.594,464.067"/>
<path class="InstrumentName" d="M11.4063,1038.22 L17.0469,1038.22 C21.5469,1038.22 23.9063,1037.87 25.9531,1036.93 C29.4531,1035.22 31.4531,1032.02 31.4531,1028.07 C31.4531,1020.12 24.4531,1018.16 17.9063,1018.16 L0.40625,1018.16 L0.40625,1020.52 L1.29688,1020.52 C4.15625,1020.57 5.09375,1020.72 5.5,1021.22 C5.79688,1021.66 5.79688,1021.77 5.79688,1024.32 L5.79688,1048.12 C5.79688,1050.68 5.79688,1050.77 5.5,1051.22 C5.09375,1051.72 4.15625,1051.93 1.29688,1051.93 L0.40625,1051.93 L0.40625,1054.27 L17.2031,1054.27 L17.2031,1051.93 L15.9063,1051.93 C13.0469,1051.93 12.0938,1051.72 11.7031,1051.22 C11.4063,1050.77 11.4063,1050.68 11.4063,1048.12 L11.4063,1038.22 M11.4063,1035.87 L11.4063,1023.07 C11.4063,1020.77 11.6563,1020.52 14.4531,1020.52 L17.6563,1020.52 C22.8438,1020.52 25.2969,1022.97 25.2969,1028.27 C25.2969,1033.43 22.75,1035.87 17.4531,1035.87 L11.4063,1035.87 M42,1030.97 L33.3438,1031.52 L33.3438,1033.68 L35.1563,1033.68 C37.0469,1033.72 37.2969,1034.02 37.2969,1036.18 L37.2969,1050.47 C37.25,1051.22 37.2031,1051.52 37,1051.77 C36.6563,1052.22 35.7031,1052.43 33.5469,1052.47 L33.3438,1052.47 L33.3438,1054.27 L46,1054.27 L46,1052.47 L45.7969,1052.47 C42.4531,1052.37 42,1052.12 42,1050.32 L42,1042.93 C42,1040.47 42.3438,1038.22 42.9063,1037.07 C43.9531,1034.82 46.2031,1033.27 48.3438,1033.27 C49.6563,1033.27 51.1563,1033.97 51.9063,1035.02 C52.6563,1036.12 53,1037.62 53,1040.02 L53,1050.47 C52.9531,1051.22 52.9063,1051.52 52.7031,1051.77 C52.3438,1052.22 51.3438,1052.43 49.2031,1052.47 L49,1052.47 L49,1054.27 L61.6563,1054.27 L61.6563,1052.47 L61.4531,1052.47 C58.1563,1052.37 57.7031,1052.12 57.7031,1050.32 L57.7031,1040.27 C57.7031,1036.68 57.5469,1035.77 56.6563,1034.07 C55.4063,1031.68 52.9063,1030.22 49.9063,1030.22 C46.6563,1030.22 44.2031,1031.72 42,1035.02 L42,1030.97 M75.5938,1030.22 C69.4531,1030.22 64.7031,1035.68 64.7031,1042.68 C64.7031,1049.52 69.5,1055.02 75.5,1055.02 C81.5,1055.02 86.2969,1049.52 86.2969,1042.62 C86.2969,1035.77 81.5,1030.22 75.5938,1030.22 M75.5938,1032.37 C79.0938,1032.37 81.0469,1036.02 81.0469,1042.62 C81.0469,1049.27 79.0938,1052.87 75.5,1052.87 C71.9063,1052.87 69.9531,1049.27 69.9531,1042.68 C69.9531,1035.87 71.8438,1032.37 75.5938,1032.37 M93.8438,1048.72 C92.0938,1048.72 90.7031,1050.12 90.7031,1051.82 C90.7031,1053.57 92.0938,1054.97 93.7969,1054.97 C95.5469,1054.97 96.9531,1053.57 96.9531,1051.82 C96.9531,1050.12 95.5469,1048.72 93.8438,1048.72"/>
<polyline class="BarLine" fill="none" stroke="#000000" stroke-width="4.46" stroke-linejoin="bevel" points="158.035,172.258 158.035,418.867"/>
<polyline class="BarLine" fill="none" stroke="#000000" stroke-width="4.46" stroke-linejoin="bevel" points="1053.29,172.258 1053.29,274.199"/>
<polyline class="BarLine" fill="none" stroke="#000000" stroke-width="4.46" stroke-linejoin="bevel" points="1706.93,172.258 1706.93,274.199"/>
<polyline class="BarLine" fill="none" stroke="#000000" stroke-width="4.46" stroke-linejoin="bevel" points="2387.56,172.258 2387.56,274.199"/>
<polyline class="BarLine" fill="none" stroke="#000000" stroke-width="4.46" stroke-linejoin="bevel" points="3057.77,172.258 3057.77,274.199"/>
<polyline class="BarLine" fill="none" stroke="#000000" stroke-width="4.46" stroke-linejoin="bevel" points="829.879,734.787 829.879,836.728"/>
<polyline class="BarLine" fill="none" stroke="#000000" stroke-width="4.46" stroke-linejoin="bevel" points="125.035,734.787 125.035,987.165"/>
<polyline class="BarLine" fill="none" stroke="#000000" stroke-width="4.46" stroke-linejoin="bevel" points="1053.29,417.503 1053.29,519.444"/>
<polyline class="BarLine" fill="none" stroke="#000000" stroke-width="4.46" stroke-linejoin="bevel" points="158.035,417.503 158.035,519.444"/>
<polyline class="BarLine" fill="none" stroke="#000000" stroke-width="4.46" stroke-linejoin="bevel" points="1706.93,417.503 1706.93,519.444"/>
<polyline class="BarLine" fill="none" stroke="#000000" stroke-width="4.46" stroke-linejoin="bevel" points="2387.56,417.503 2387.56,519.444"/>
<polyline class="BarLine" fill="none" stroke="#000000" stroke-width="4.46" stroke-linejoin="bevel" points="829.879,985.801 829.879,1087.74"/>
<polyline class="BarLine" fill="none" stroke="#000000" stroke-width="4.46" stroke-linejoin="bevel" points="3057.77,417.503 3057.77,519.444"/>
<polyline class="BarLine" fill="none" stroke="#000000" stroke-width="4.46" stroke-linejoin="bevel" points="125.035,985.801 125.035,1087.74"/>
<path class="Accidental" transform="matrix(0.992126,0,0,0.992126,2405.92,297.638)" d="M16.5938,-18.2969 C16.4063,-18.5 16.0938,-18.5938 15.7031,-18.5938 L15.5,-18.5 C15.5,-18.5 15.4063,-18.5 15.4063,-18.5 L2.79688,-15 L2.79688,-32.5 L0,-32.5 L0,17 C0,18.0938 0.90625,18.2969 1.79688,18.2969 L14.4063,14.7969 L14.4063,32.2969 L17.0938,32.2969 C17.0938,15.7031 17.0938,-0.09375 17.0938,-17.2031 C17.0938,-17.5938 16.9063,-18.0938 16.5938,-18.2969 M2.79688,9.70313 L2.79688,-6.70313 L14.4063,-10 L14.4063,6.5 L2.79688,9.70313 "/>
<path class="Accidental" transform="matrix(0.992126,0,0,0.992126,2483.88,272.835)" d="M16.5938,-18.2969 C16.4063,-18.5 16.0938,-18.5938 15.7031,-18.5938 L15.5,-18.5 C15.5,-18.5 15.4063,-18.5 15.4063,-18.5 L2.79688,-15 L2.79688,-32.5 L0,-32.5 L0,17 C0,18.0938 0.90625,18.2969 1.79688,18.2969 L14.4063,14.7969 L14.4063,32.2969 L17.0938,32.2969 C17.0938,15.7031 17.0938,-0.09375 17.0938,-17.2031 C17.0938,-17.5938 16.9063,-18.0938 16.5938,-18.2969 M2.79688,9.70313 L2.79688,-6.70313 L14.4063,-10 L14.4063,6.5 L2.79688,9.70313 "/>
<path class="Accidental" transform="matrix(0.992126,0,0,0.992126,2689.19,186.024)" d="M16.5938,-18.2969 C16.4063,-18.5 16.0938,-18.5938 15.7031,-18.5938 L15.5,-18.5 C15.5,-18.5 15.4063,-18.5 15.4063,-18.5 L2.79688,-15 L2.79688,-32.5 L0,-32.5 L0,17 C0,18.0938 0.90625,18.2969 1.79688,18.2969 L14.4063,14.7969 L14.4063,32.2969 L17.0938,32.2969 C17.0938,15.7031 17.0938,-0.09375 17.0938,-17.2031 C17.0938,-17.5938 16.9063,-18.0938 16.5938,-18.2969 M2.79688,9.70313 L2.79688,-6.70313 L14.4063,-10 L14.4063,6.5 L2.79688,9.70313 "/>
<path class="Accidental" transform="matrix(0.992126,0,0,0.992126,1725.28,124.016)" d="M23.2969,-10.5 C23.9063,-10.5938 24.4063,-11.2969 24.4063,-11.9063 L24.4063,-17.7969 C24.4063,-18.7969 23.7031,-19.2031 22.7969,-19.2031 L19.5,-18.5 L19.5,-33.4063 L16.7031,-33.4063 L16.7031,-17.9063 L7.79688,-16.0938 L7.79688,-30.2031 L5,-30.2031 L5,-15.5 L1.09375,-14.7031 C0.5,-14.5938 0,-13.9063 0,-13.2969 L0,-7.5 C0,-6.40625 0.796875,-6.09375 1.70313,-6.09375 L5,-6.79688 L5,9.70313 L1.09375,10.5 C0.5,10.5938 0,11.2969 0,11.9063 L0,17.7031 C0,18.7969 0.796875,19.0938 1.70313,19.0938 L5,18.4063 L5,33.2969 L7.79688,33.2969 L7.79688,17.7969 L16.7031,16 L16.7031,30.1094 L19.5,30.1094 L19.5,15.4063 L23.2969,14.7031 C23.9063,14.5938 24.4063,13.9063 24.4063,13.2969 L24.4063,7.40625 C24.4063,6.40625 23.7031,6 22.7969,6 L19.5,6.70313 L19.5,-9.79688 L23.2969,-10.5 M7.79688,-7.40625 L16.7031,-9.20313 L16.7031,7.29688 L7.79688,9.20313 L7.79688,-7.40625 "/>
<path class="Accidental" transform="matrix(0.992126,0,0,0.992126,1947.37,198.425)" d="M12,-15.5 C7,-15.5 4.09375,-12.4063 3.59375,-11.7969 L4,-43.9063 C4,-44.7031 3.40625,-45.2969 2.59375,-45.2969 L1.40625,-45.2969 C0.59375,-45.2969 0,-44.7031 0,-43.9063 L0.5,16.2031 C0.5,17 1.09375,17.5938 1.90625,17.5938 C2.09375,17.5938 2.5,17.5 2.70313,17.4063 C11.2969,13.0938 20.2969,4.90625 20.2969,-5.40625 C20.2969,-10.5938 17.9063,-15.5 12,-15.5 M3.29688,12.7031 L3.59375,-6.79688 C3.79688,-7.70313 5.29688,-10.5938 9.29688,-10.5938 C12.9063,-10.5938 13.2031,-7.20313 13.2031,-5.09375 C13.2031,3.79688 9.90625,7.5 3.29688,12.7031"/>
<path class="Accidental" transform="matrix(0.992126,0,0,0.992126,2084.24,248.031)" d="M12,-15.5 C7,-15.5 4.09375,-12.4063 3.59375,-11.7969 L4,-43.9063 C4,-44.7031 3.40625,-45.2969 2.59375,-45.2969 L1.40625,-45.2969 C0.59375,-45.2969 0,-44.7031 0,-43.9063 L0.5,16.2031 C0.5,17 1.09375,17.5938 1.90625,17.5938 C2.09375,17.5938 2.5,17.5 2.70313,17.4063 C11.2969,13.0938 20.2969,4.90625 20.2969,-5.40625 C20.2969,-10.5938 17.9063,-15.5 12,-15.5 M3.29688,12.7031 L3.59375,-6.79688 C3.79688,-7.70313 5.29688,-10.5938 9.29688,-10.5938 C12.9063,-10.5938 13.2031,-7.20313 13.2031,-5.09375 C13.2031,3.79688 9.90625,7.5 3.29688,12.7031"/>
<path class="Accidental" transform="matrix(0.992126,0,0,0.992126,1878.94,161.22)" d="M12,-15.5 C7,-15.5 4.09375,-12.4063 3.59375,-11.7969 L4,-43.9063 C4,-44.7031 3.40625,-45.2969 2.59375,-45.2969 L1.40625,-45.2969 C0.59375,-45.2969 0,-44.7031 0,-43.9063 L0.5,16.2031 C0.5,17 1.09375,17.5938 1.90625,17.5938 C2.09375,17.5938 2.5,17.5 2.70313,17.4063 C11.2969,13.0938 20.2969,4.90625 20.2969,-5.40625 C20.2969,-10.5938 17.9063,-15.5 12,-15.5 M3.29688,12.7031 L3.59375,-6.79688 C3.79688,-7.70313 5.29688,-10.5938 9.29688,-10.5938 C12.9063,-10.5938 13.2031,-7.20313 13.2031,-5.09375 C13.2031,3.79688 9.90625,7.5 3.29688,12.7031"/>
<path class="Accidental" transform="matrix(0.992126,0,0,0.992126,2152.68,285.236)" d="M12,-15.5 C7,-15.5 4.09375,-12.4063 3.59375,-11.7969 L4,-43.9063 C4,-44.7031 3.40625,-45.2969 2.59375,-45.2969 L1.40625,-45.2969 C0.59375,-45.2969 0,-44.7031 0,-43.9063 L0.5,16.2031 C0.5,17 1.09375,17.5938 1.90625,17.5938 C2.09375,17.5938 2.5,17.5 2.70313,17.4063 C11.2969,13.0938 20.2969,4.90625 20.2969,-5.40625 C20.2969,-10.5938 17.9063,-15.5 12,-15.5 M3.29688,12.7031 L3.59375,-6.79688 C3.79688,-7.70313 5.29688,-10.5938 9.29688,-10.5938 C12.9063,-10.5938 13.2031,-7.20313 13.2031,-5.09375 C13.2031,3.79688 9.90625,7.5 3.29688,12.7031"/>
<path class="Accidental" transform="matrix(0.992126,0,0,0.992126,2144.49,381.662)" d="M12,-15.5 C7,-15.5 4.09375,-12.4063 3.59375,-11.7969 L4,-43.9063 C4,-44.7031 3.40625,-45.2969 2.59375,-45.2969 L1.40625,-45.2969 C0.59375,-45.2969 0,-44.7031 0,-43.9063 L0.5,16.2031 C0.5,17 1.09375,17.5938 1.90625,17.5938 C2.09375,17.5938 2.5,17.5 2.70313,17.4063 C11.2969,13.0938 20.2969,4.90625 20.2969,-5.40625 C20.2969,-10.5938 17.9063,-15.5 12,-15.5 M3.29688,12.7031 L3.59375,-6.79688 C3.79688,-7.70313 5.29688,-10.5938 9.29688,-10.5938 C12.9063,-10.5938 13.2031,-7.20313 13.2031,-5.09375 C13.2031,3.79688 9.90625,7.5 3.29688,12.7031"/>
<path class="Accidental" transform="matrix(0.992126,0,0,0.992126,2132.34,431.269)" d="M12,-15.5 C7,-15.5 4.09375,-12.4063 3.59375,-11.7969 L4,-43.9063 C4,-44.7031 3.40625,-45.2969 2.59375,-45.2969 L1.40625,-45.2969 C0.59375,-45.2969 0,-44.7031 0,-43.9063 L0.5,16.2031 C0.5,17 1.09375,17.5938 1.90625,17.5938 C2.09375,17.5938 2.5,17.5 2.70313,17.4063 C11.2969,13.0938 20.2969,4.90625 20.2969,-5.40625 C20.2969,-10.5938 17.9063,-15.5 12,-15.5 M3.29688,12.7031 L3.59375,-6.79688 C3.79688,-7.70313 5.29688,-10.5938 9.29688,-10.5938 C12.9063,-10.5938 13.2031,-7.20313 13.2031,-5.09375 C13.2031,3.79688 9.90625,7.5 3.29688,12.7031"/>
<path class="Accidental" transform="matrix(0.992126,0,0,0.992126,2817.88,369.261)" d="M16.5938,-18.2969 C16.4063,-18.5 16.0938,-18.5938 15.7031,-18.5938 L15.5,-18.5 C15.5,-18.5 15.4063,-18.5 15.4063,-18.5 L2.79688,-15 L2.79688,-32.5 L0,-32.5 L0,17 C0,18.0938 0.90625,18.2969 1.79688,18.2969 L14.4063,14.7969 L14.4063,32.2969 L17.0938,32.2969 C17.0938,15.7031 17.0938,-0.09375 17.0938,-17.2031 C17.0938,-17.5938 16.9063,-18.0938 16.5938,-18.2969 M2.79688,9.70313 L2.79688,-6.70313 L14.4063,-10 L14.4063,6.5 L2.79688,9.70313 "/>
<path class="Accidental" transform="matrix(0.992126,0,0,0.992126,2812.42,431.269)" d="M16.5938,-18.2969 C16.4063,-18.5 16.0938,-18.5938 15.7031,-18.5938 L15.5,-18.5 C15.5,-18.5 15.4063,-18.5 15.4063,-18.5 L2.79688,-15 L2.79688,-32.5 L0,-32.5 L0,17 C0,18.0938 0.90625,18.2969 1.79688,18.2969 L14.4063,14.7969 L14.4063,32.2969 L17.0938,32.2969 C17.0938,15.7031 17.0938,-0.09375 17.0938,-17.2031 C17.0938,-17.5938 16.9063,-18.0938 16.5938,-18.2969 M2.79688,9.70313 L2.79688,-6.70313 L14.4063,-10 L14.4063,6.5 L2.79688,9.70313 "/>
<polyline class="LedgerLine" fill="none" stroke="#000000" stroke-width="3.97" stroke-linejoin="bevel" points="1627.07,124.016 1675.68,124.016"/>
<polyline class="LedgerLine" fill="none" stroke="#000000" stroke-width="3.97" stroke-linejoin="bevel" points="1627.07,148.819 1675.68,148.819"/>
<polyline class="LedgerLine" fill="none" stroke="#000000" stroke-width="3.97" stroke-linejoin="bevel" points="1755.69,148.819 1804.3,148.819"/>
<polyline class="LedgerLine" fill="none" stroke="#000000" stroke-width="3.97" stroke-linejoin="bevel" points="2977.91,148.819 3026.52,148.819"/>
<polyline class="LedgerLine" fill="none" stroke="#000000" stroke-width="3.97" stroke-linejoin="bevel" points="1824.13,148.819 1872.73,148.819"/>
<polyline class="LedgerLine" fill="none" stroke="#000000" stroke-width="3.97" stroke-linejoin="bevel" points="2977.91,124.016 3026.52,124.016"/>
<polyline class="LedgerLine" fill="none" stroke="#000000" stroke-width="3.97" stroke-linejoin="bevel" points="1490.2,124.016 1538.81,124.016"/>
<polyline class="LedgerLine" fill="none" stroke="#000000" stroke-width="3.97" stroke-linejoin="bevel" points="425.948,148.819 474.555,148.819"/>
<polyline class="LedgerLine" fill="none" stroke="#000000" stroke-width="3.97" stroke-linejoin="bevel" points="1490.2,148.819 1538.81,148.819"/>
<polyline class="LedgerLine" fill="none" stroke="#000000" stroke-width="3.97" stroke-linejoin="bevel" points="1421.76,148.819 1470.37,148.819"/>
<polyline class="LedgerLine" fill="none" stroke="#000000" stroke-width="3.97" stroke-linejoin="bevel" points="1755.69,124.016 1804.3,124.016"/>
<polyline class="LedgerLine" fill="none" stroke="#000000" stroke-width="3.97" stroke-linejoin="bevel" points="2841.04,148.819 2889.64,148.819"/>
<polyline class="LedgerLine" fill="none" stroke="#000000" stroke-width="3.97" stroke-linejoin="bevel" points="2429.08,297.638 2477.68,297.638"/>
<polyline class="LedgerLine" fill="none" stroke="#000000" stroke-width="3.97" stroke-linejoin="bevel" points="338.087,711.348 386.693,711.348"/>
<polyline class="LedgerLine" fill="none" stroke="#000000" stroke-width="3.97" stroke-linejoin="bevel" points="2841.04,124.016 2889.64,124.016"/>
<polyline class="LedgerLine" fill="none" stroke="#000000" stroke-width="3.97" stroke-linejoin="bevel" points="2772.6,148.819 2821.21,148.819"/>
<polyline class="LedgerLine" fill="none" stroke="#000000" stroke-width="3.97" stroke-linejoin="bevel" points="2841.04,394.064 2889.64,394.064"/>
<polyline class="LedgerLine" fill="none" stroke="#000000" stroke-width="3.97" stroke-linejoin="bevel" points="2841.04,369.261 2889.64,369.261"/>
<polyline class="LedgerLine" fill="none" stroke="#000000" stroke-width="3.97" stroke-linejoin="bevel" points="1490.2,394.064 1538.81,394.064"/>
<polyline class="LedgerLine" fill="none" stroke="#000000" stroke-width="3.97" stroke-linejoin="bevel" points="2170.83,394.064 2219.44,394.064"/>
<polyline class="LedgerLine" fill="none" stroke="#000000" stroke-width="3.97" stroke-linejoin="bevel" points="492.562,962.362 541.168,962.362"/>
<polyline class="LedgerLine" fill="none" stroke="#000000" stroke-width="3.97" stroke-linejoin="bevel" points="836.564,394.064 885.17,394.064"/>
<polyline class="LedgerLine" fill="none" stroke="#000000" stroke-width="3.97" stroke-linejoin="bevel" points="1284.89,394.064 1333.5,394.064"/>
<polyline class="LedgerLine" fill="none" stroke="#000000" stroke-width="3.97" stroke-linejoin="bevel" points="631.256,394.064 679.862,394.064"/>
<polyline class="LedgerLine" fill="none" stroke="#000000" stroke-width="3.97" stroke-linejoin="bevel" points="647.037,962.362 695.644,962.362"/>
<polyline class="Stem" fill="none" stroke="#000000" stroke-width="2.48" stroke-linejoin="bevel" points="1636.5,115.781 1636.5,272.835"/>
<polyline class="Stem" fill="none" stroke="#000000" stroke-width="2.48" stroke-linejoin="bevel" points="1765.12,128.183 1765.12,217.134"/>
<polyline class="Stem" fill="none" stroke="#000000" stroke-width="2.48" stroke-linejoin="bevel" points="1833.55,140.584 1833.55,223.033"/>
<polyline class="Stem" fill="none" stroke="#000000" stroke-width="2.48" stroke-linejoin="bevel" points="1906.51,165.387 1906.51,229.322"/>
<polyline class="Stem" fill="none" stroke="#000000" stroke-width="2.48" stroke-linejoin="bevel" points="1974.95,202.592 1974.95,291.603"/>
<polyline class="Stem" fill="none" stroke="#000000" stroke-width="2.48" stroke-linejoin="bevel" points="2043.38,227.395 2043.38,300.738"/>
<polyline class="Stem" fill="none" stroke="#000000" stroke-width="2.48" stroke-linejoin="bevel" points="435.373,152.986 435.373,241.941"/>
<polyline class="Stem" fill="none" stroke="#000000" stroke-width="2.48" stroke-linejoin="bevel" points="2111.82,252.198 2111.82,309.874"/>
<polyline class="Stem" fill="none" stroke="#000000" stroke-width="2.48" stroke-linejoin="bevel" points="1294.32,202.592 1294.32,272.779"/>
<polyline class="Stem" fill="none" stroke="#000000" stroke-width="2.48" stroke-linejoin="bevel" points="2180.26,289.403 2180.26,347.244"/>
<polyline class="Stem" fill="none" stroke="#000000" stroke-width="2.48" stroke-linejoin="bevel" points="2248.69,202.592 2248.69,347.244"/>
<polyline class="Stem" fill="none" stroke="#000000" stroke-width="2.48" stroke-linejoin="bevel" points="2317.13,289.403 2317.13,347.244"/>
<polyline class="Stem" fill="none" stroke="#000000" stroke-width="2.48" stroke-linejoin="bevel" points="503.809,177.789 503.809,248.031"/>
<polyline class="Stem" fill="none" stroke="#000000" stroke-width="2.48" stroke-linejoin="bevel" points="2438.5,301.805 2438.5,359.482"/>
<polyline class="Stem" fill="none" stroke="#000000" stroke-width="2.48" stroke-linejoin="bevel" points="572.245,190.191 572.245,254.122"/>
<polyline class="Stem" fill="none" stroke="#000000" stroke-width="2.48" stroke-linejoin="bevel" points="2508.28,277.002 2508.28,350.255"/>
<polyline class="Stem" fill="none" stroke="#000000" stroke-width="2.48" stroke-linejoin="bevel" points="640.681,214.994 640.681,304.004"/>
<polyline class="Stem" fill="none" stroke="#000000" stroke-width="2.48" stroke-linejoin="bevel" points="2576.72,227.395 2576.72,341.207"/>
<polyline class="Stem" fill="none" stroke="#000000" stroke-width="2.48" stroke-linejoin="bevel" points="2645.16,214.994 2645.16,278.925"/>
<polyline class="Stem" fill="none" stroke="#000000" stroke-width="2.48" stroke-linejoin="bevel" points="2713.59,190.191 2713.59,272.835"/>
<polyline class="Stem" fill="none" stroke="#000000" stroke-width="2.48" stroke-linejoin="bevel" points="2782.03,140.584 2782.03,266.744"/>
<polyline class="Stem" fill="none" stroke="#000000" stroke-width="2.48" stroke-linejoin="bevel" points="2850.46,128.183 2850.46,279.035"/>
<polyline class="Stem" fill="none" stroke="#000000" stroke-width="2.48" stroke-linejoin="bevel" points="709.117,239.797 709.117,313.14"/>
<polyline class="Stem" fill="none" stroke="#000000" stroke-width="2.48" stroke-linejoin="bevel" points="777.553,264.6 777.553,322.275"/>
<polyline class="Stem" fill="none" stroke="#000000" stroke-width="2.48" stroke-linejoin="bevel" points="2918.9,214.994 2918.9,279.035"/>
<polyline class="Stem" fill="none" stroke="#000000" stroke-width="2.48" stroke-linejoin="bevel" points="845.989,277.002 845.989,334.787"/>
<polyline class="Stem" fill="none" stroke="#000000" stroke-width="2.48" stroke-linejoin="bevel" points="2987.33,128.183 2987.33,279.035"/>
<polyline class="Stem" fill="none" stroke="#000000" stroke-width="2.48" stroke-linejoin="bevel" points="347.512,715.515 347.512,804.506"/>
<polyline class="Stem" fill="none" stroke="#000000" stroke-width="2.48" stroke-linejoin="bevel" points="399.004,740.319 399.004,810.561"/>
<polyline class="Stem" fill="none" stroke="#000000" stroke-width="2.48" stroke-linejoin="bevel" points="450.495,752.72 450.495,816.616"/>
<polyline class="Stem" fill="none" stroke="#000000" stroke-width="2.48" stroke-linejoin="bevel" points="501.987,777.523 501.987,872.715"/>
<polyline class="Stem" fill="none" stroke="#000000" stroke-width="2.48" stroke-linejoin="bevel" points="553.479,802.326 553.479,878.77"/>
<polyline class="Stem" fill="none" stroke="#000000" stroke-width="2.48" stroke-linejoin="bevel" points="914.425,252.198 914.425,331.742"/>
<polyline class="Stem" fill="none" stroke="#000000" stroke-width="2.48" stroke-linejoin="bevel" points="604.971,827.13 604.971,884.825"/>
<polyline class="Stem" fill="none" stroke="#000000" stroke-width="2.48" stroke-linejoin="bevel" points="982.861,264.6 982.861,328.697"/>
<polyline class="Stem" fill="none" stroke="#000000" stroke-width="2.48" stroke-linejoin="bevel" points="656.463,839.531 656.463,897.299"/>
<polyline class="Stem" fill="none" stroke="#000000" stroke-width="2.48" stroke-linejoin="bevel" points="1089.01,289.403 1089.01,347.079"/>
<polyline class="Stem" fill="none" stroke="#000000" stroke-width="2.48" stroke-linejoin="bevel" points="707.954,814.728 707.954,894.272"/>
<polyline class="Stem" fill="none" stroke="#000000" stroke-width="2.48" stroke-linejoin="bevel" points="759.446,827.13 759.446,891.244"/>
<polyline class="Stem" fill="none" stroke="#000000" stroke-width="2.48" stroke-linejoin="bevel" points="1157.45,264.6 1157.45,337.943"/>
<polyline class="Stem" fill="none" stroke="#000000" stroke-width="2.48" stroke-linejoin="bevel" points="1225.88,227.395 1225.88,328.807"/>
<polyline class="Stem" fill="none" stroke="#000000" stroke-width="2.48" stroke-linejoin="bevel" points="1362.75,177.789 1362.75,269.734"/>
<polyline class="Stem" fill="none" stroke="#000000" stroke-width="2.48" stroke-linejoin="bevel" points="1431.19,140.584 1431.19,266.689"/>
<polyline class="Stem" fill="none" stroke="#000000" stroke-width="2.48" stroke-linejoin="bevel" points="1499.63,115.781 1499.63,272.835"/>
<polyline class="Stem" fill="none" stroke="#000000" stroke-width="2.48" stroke-linejoin="bevel" points="1568.06,202.592 1568.06,272.835"/>
<polyline class="Stem" fill="none" stroke="#000000" stroke-width="2.48" stroke-linejoin="bevel" points="2850.46,373.428 2850.46,518.08"/>
<polyline class="Stem" fill="none" stroke="#000000" stroke-width="2.48" stroke-linejoin="bevel" points="1089.01,497.443 1089.01,555.284"/>
<polyline class="Stem" fill="none" stroke="#000000" stroke-width="2.48" stroke-linejoin="bevel" points="845.989,398.231 845.989,530.481"/>
<polyline class="Stem" fill="none" stroke="#000000" stroke-width="2.48" stroke-linejoin="bevel" points="435.373,534.648 435.373,592.489"/>
<polyline class="Stem" fill="none" stroke="#000000" stroke-width="2.48" stroke-linejoin="bevel" points="640.681,398.231 640.681,480.875"/>
<polyline class="Stem" fill="none" stroke="#000000" stroke-width="2.48" stroke-linejoin="bevel" points="501.987,966.529 501.987,1049.17"/>
<polyline class="Stem" fill="none" stroke="#000000" stroke-width="2.48" stroke-linejoin="bevel" points="347.512,1102.95 347.512,1160.79"/>
<polyline class="Stem" fill="none" stroke="#000000" stroke-width="2.48" stroke-linejoin="bevel" points="1294.32,385.829 1294.32,493.276"/>
<polyline class="Stem" fill="none" stroke="#000000" stroke-width="2.48" stroke-linejoin="bevel" points="2438.5,485.042 2438.5,549.083"/>
<polyline class="Stem" fill="none" stroke="#000000" stroke-width="2.48" stroke-linejoin="bevel" points="1765.12,497.443 1765.12,555.284"/>
<polyline class="Stem" fill="none" stroke="#000000" stroke-width="2.48" stroke-linejoin="bevel" points="2180.26,385.829 2180.26,518.08"/>
<polyline class="Stem" fill="none" stroke="#000000" stroke-width="2.48" stroke-linejoin="bevel" points="2681.11,410.632 2681.11,493.276"/>
<polyline class="Stem" fill="none" stroke="#000000" stroke-width="2.48" stroke-linejoin="bevel" points="1974.95,410.632 1974.95,493.276"/>
<polyline class="Stem" fill="none" stroke="#000000" stroke-width="2.48" stroke-linejoin="bevel" points="1499.63,385.829 1499.63,530.481"/>
<polyline class="Stem" fill="none" stroke="#000000" stroke-width="2.48" stroke-linejoin="bevel" points="656.463,966.529 656.463,1098.78"/>
<polyline class="Stem" fill="none" stroke="#000000" stroke-width="2.48" stroke-linejoin="bevel" points="2674.91,402.497 2674.91,344.458"/>
<path class="Note" transform="matrix(0.992126,0,0,0.992126,639.441,210.827)" d="M0,4.20313 C0,8.5 3.09375,13.2969 11.2031,13.2969 C21.5938,13.2969 32.5,4.79688 32.5,-4 C32.5,-9.90625 27.5,-13.2031 21.2969,-13.2031 C11.5938,-13.2031 0,-5 0,4.20313"/>
<path class="Note" transform="matrix(0.992126,0,0,0.992126,397.764,736.152)" d="M0,4.20313 C0,8.5 3.09375,13.2969 11.2031,13.2969 C21.5938,13.2969 32.5,4.79688 32.5,-4 C32.5,-9.90625 27.5,-13.2031 21.2969,-13.2031 C11.5938,-13.2031 0,-5 0,4.20313"/>
<path class="Note" transform="matrix(0.992126,0,0,0.992126,655.222,835.364)" d="M0,4.20313 C0,8.5 3.09375,13.2969 11.2031,13.2969 C21.5938,13.2969 32.5,4.79688 32.5,-4 C32.5,-9.90625 27.5,-13.2031 21.2969,-13.2031 C11.5938,-13.2031 0,-5 0,4.20313"/>
<path class="Note" transform="matrix(0.992126,0,0,0.992126,2780.79,136.417)" d="M0,4.20313 C0,8.5 3.09375,13.2969 11.2031,13.2969 C21.5938,13.2969 32.5,4.79688 32.5,-4 C32.5,-9.90625 27.5,-13.2031 21.2969,-13.2031 C11.5938,-13.2031 0,-5 0,4.20313"/>
<path class="Note" transform="matrix(0.992126,0,0,0.992126,776.313,260.433)" d="M0,4.20313 C0,8.5 3.09375,13.2969 11.2031,13.2969 C21.5938,13.2969 32.5,4.79688 32.5,-4 C32.5,-9.90625 27.5,-13.2031 21.2969,-13.2031 C11.5938,-13.2031 0,-5 0,4.20313"/>
<path class="Note" transform="matrix(0.992126,0,0,0.992126,844.749,272.835)" d="M0,4.20313 C0,8.5 3.09375,13.2969 11.2031,13.2969 C21.5938,13.2969 32.5,4.79688 32.5,-4 C32.5,-9.90625 27.5,-13.2031 21.2969,-13.2031 C11.5938,-13.2031 0,-5 0,4.20313"/>
<path class="Note" transform="matrix(0.992126,0,0,0.992126,2110.58,248.031)" d="M0,4.20313 C0,8.5 3.09375,13.2969 11.2031,13.2969 C21.5938,13.2969 32.5,4.79688 32.5,-4 C32.5,-9.90625 27.5,-13.2031 21.2969,-13.2031 C11.5938,-13.2031 0,-5 0,4.20313"/>
<path class="Note" transform="matrix(0.992126,0,0,0.992126,1566.82,198.425)" d="M0,4.20313 C0,8.5 3.09375,13.2969 11.2031,13.2969 C21.5938,13.2969 32.5,4.79688 32.5,-4 C32.5,-9.90625 27.5,-13.2031 21.2969,-13.2031 C11.5938,-13.2031 0,-5 0,4.20313"/>
<path class="Note" transform="matrix(0.992126,0,0,0.992126,1763.88,124.016)" d="M0,4.20313 C0,8.5 3.09375,13.2969 11.2031,13.2969 C21.5938,13.2969 32.5,4.79688 32.5,-4 C32.5,-9.90625 27.5,-13.2031 21.2969,-13.2031 C11.5938,-13.2031 0,-5 0,4.20313"/>
<path class="Note" transform="matrix(0.992126,0,0,0.992126,913.184,248.031)" d="M0,4.20313 C0,8.5 3.09375,13.2969 11.2031,13.2969 C21.5938,13.2969 32.5,4.79688 32.5,-4 C32.5,-9.90625 27.5,-13.2031 21.2969,-13.2031 C11.5938,-13.2031 0,-5 0,4.20313"/>
<path class="Note" transform="matrix(0.992126,0,0,0.992126,981.62,260.433)" d="M0,4.20313 C0,8.5 3.09375,13.2969 11.2031,13.2969 C21.5938,13.2969 32.5,4.79688 32.5,-4 C32.5,-9.90625 27.5,-13.2031 21.2969,-13.2031 C11.5938,-13.2031 0,-5 0,4.20313"/>
<path class="Note" transform="matrix(0.992126,0,0,0.992126,1087.77,285.236)" d="M0,4.20313 C0,8.5 3.09375,13.2969 11.2031,13.2969 C21.5938,13.2969 32.5,4.79688 32.5,-4 C32.5,-9.90625 27.5,-13.2031 21.2969,-13.2031 C11.5938,-13.2031 0,-5 0,4.20313"/>
<path class="Note" transform="matrix(0.992126,0,0,0.992126,346.272,711.348)" d="M0,4.20313 C0,8.5 3.09375,13.2969 11.2031,13.2969 C21.5938,13.2969 32.5,4.79688 32.5,-4 C32.5,-9.90625 27.5,-13.2031 21.2969,-13.2031 C11.5938,-13.2031 0,-5 0,4.20313"/>
<path class="Note" transform="matrix(0.992126,0,0,0.992126,2437.26,297.638)" d="M0,4.20313 C0,8.5 3.09375,13.2969 11.2031,13.2969 C21.5938,13.2969 32.5,4.79688 32.5,-4 C32.5,-9.90625 27.5,-13.2031 21.2969,-13.2031 C11.5938,-13.2031 0,-5 0,4.20313"/>
<path class="Note" transform="matrix(0.992126,0,0,0.992126,449.255,748.553)" d="M0,4.20313 C0,8.5 3.09375,13.2969 11.2031,13.2969 C21.5938,13.2969 32.5,4.79688 32.5,-4 C32.5,-9.90625 27.5,-13.2031 21.2969,-13.2031 C11.5938,-13.2031 0,-5 0,4.20313"/>
<path class="Note" transform="matrix(0.992126,0,0,0.992126,2247.45,198.425)" d="M0,4.20313 C0,8.5 3.09375,13.2969 11.2031,13.2969 C21.5938,13.2969 32.5,4.79688 32.5,-4 C32.5,-9.90625 27.5,-13.2031 21.2969,-13.2031 C11.5938,-13.2031 0,-5 0,4.20313"/>
<path class="Note" transform="matrix(0.992126,0,0,0.992126,603.731,822.963)" d="M0,4.20313 C0,8.5 3.09375,13.2969 11.2031,13.2969 C21.5938,13.2969 32.5,4.79688 32.5,-4 C32.5,-9.90625 27.5,-13.2031 21.2969,-13.2031 C11.5938,-13.2031 0,-5 0,4.20313"/>
<path class="Note" transform="matrix(0.992126,0,0,0.992126,1973.71,198.425)" d="M0,4.20313 C0,8.5 3.09375,13.2969 11.2031,13.2969 C21.5938,13.2969 32.5,4.79688 32.5,-4 C32.5,-9.90625 27.5,-13.2031 21.2969,-13.2031 C11.5938,-13.2031 0,-5 0,4.20313"/>
<path class="Note" transform="matrix(0.992126,0,0,0.992126,1635.26,111.614)" d="M0,4.20313 C0,8.5 3.09375,13.2969 11.2031,13.2969 C21.5938,13.2969 32.5,4.79688 32.5,-4 C32.5,-9.90625 27.5,-13.2031 21.2969,-13.2031 C11.5938,-13.2031 0,-5 0,4.20313"/>
<path class="Note" transform="matrix(0.992126,0,0,0.992126,1361.51,173.622)" d="M0,4.20313 C0,8.5 3.09375,13.2969 11.2031,13.2969 C21.5938,13.2969 32.5,4.79688 32.5,-4 C32.5,-9.90625 27.5,-13.2031 21.2969,-13.2031 C11.5938,-13.2031 0,-5 0,4.20313"/>
<path class="Note" transform="matrix(0.992126,0,0,0.992126,1429.95,136.417)" d="M0,4.20313 C0,8.5 3.09375,13.2969 11.2031,13.2969 C21.5938,13.2969 32.5,4.79688 32.5,-4 C32.5,-9.90625 27.5,-13.2031 21.2969,-13.2031 C11.5938,-13.2031 0,-5 0,4.20313"/>
<path class="Note" transform="matrix(0.992126,0,0,0.992126,2507.04,272.835)" d="M0,4.20313 C0,8.5 3.09375,13.2969 11.2031,13.2969 C21.5938,13.2969 32.5,4.79688 32.5,-4 C32.5,-9.90625 27.5,-13.2031 21.2969,-13.2031 C11.5938,-13.2031 0,-5 0,4.20313"/>
<path class="Note" transform="matrix(0.992126,0,0,0.992126,552.239,798.159)" d="M0,4.20313 C0,8.5 3.09375,13.2969 11.2031,13.2969 C21.5938,13.2969 32.5,4.79688 32.5,-4 C32.5,-9.90625 27.5,-13.2031 21.2969,-13.2031 C11.5938,-13.2031 0,-5 0,4.20313"/>
<path class="Note" transform="matrix(0.992126,0,0,0.992126,707.877,235.63)" d="M0,4.20313 C0,8.5 3.09375,13.2969 11.2031,13.2969 C21.5938,13.2969 32.5,4.79688 32.5,-4 C32.5,-9.90625 27.5,-13.2031 21.2969,-13.2031 C11.5938,-13.2031 0,-5 0,4.20313"/>
<path class="Note" transform="matrix(0.992126,0,0,0.992126,2575.48,223.228)" d="M0,4.20313 C0,8.5 3.09375,13.2969 11.2031,13.2969 C21.5938,13.2969 32.5,4.79688 32.5,-4 C32.5,-9.90625 27.5,-13.2031 21.2969,-13.2031 C11.5938,-13.2031 0,-5 0,4.20313"/>
<path class="Note" transform="matrix(0.992126,0,0,0.992126,2042.14,223.228)" d="M0,4.20313 C0,8.5 3.09375,13.2969 11.2031,13.2969 C21.5938,13.2969 32.5,4.79688 32.5,-4 C32.5,-9.90625 27.5,-13.2031 21.2969,-13.2031 C11.5938,-13.2031 0,-5 0,4.20313"/>
<path class="Note" transform="matrix(0.992126,0,0,0.992126,2643.91,210.827)" d="M0,4.20313 C0,8.5 3.09375,13.2969 11.2031,13.2969 C21.5938,13.2969 32.5,4.79688 32.5,-4 C32.5,-9.90625 27.5,-13.2031 21.2969,-13.2031 C11.5938,-13.2031 0,-5 0,4.20313"/>
<path class="Note" transform="matrix(0.992126,0,0,0.992126,1498.39,111.614)" d="M0,4.20313 C0,8.5 3.09375,13.2969 11.2031,13.2969 C21.5938,13.2969 32.5,4.79688 32.5,-4 C32.5,-9.90625 27.5,-13.2031 21.2969,-13.2031 C11.5938,-13.2031 0,-5 0,4.20313"/>
<path class="Note" transform="matrix(0.992126,0,0,0.992126,2986.09,124.016)" d="M0,4.20313 C0,8.5 3.09375,13.2969 11.2031,13.2969 C21.5938,13.2969 32.5,4.79688 32.5,-4 C32.5,-9.90625 27.5,-13.2031 21.2969,-13.2031 C11.5938,-13.2031 0,-5 0,4.20313"/>
<path class="Note" transform="matrix(0.992126,0,0,0.992126,500.747,773.356)" d="M0,4.20313 C0,8.5 3.09375,13.2969 11.2031,13.2969 C21.5938,13.2969 32.5,4.79688 32.5,-4 C32.5,-9.90625 27.5,-13.2031 21.2969,-13.2031 C11.5938,-13.2031 0,-5 0,4.20313"/>
<path class="Note" transform="matrix(0.992126,0,0,0.992126,2849.22,124.016)" d="M0,4.20313 C0,8.5 3.09375,13.2969 11.2031,13.2969 C21.5938,13.2969 32.5,4.79688 32.5,-4 C32.5,-9.90625 27.5,-13.2031 21.2969,-13.2031 C11.5938,-13.2031 0,-5 0,4.20313"/>
<path class="Note" transform="matrix(0.992126,0,0,0.992126,2315.89,285.236)" d="M0,4.20313 C0,8.5 3.09375,13.2969 11.2031,13.2969 C21.5938,13.2969 32.5,4.79688 32.5,-4 C32.5,-9.90625 27.5,-13.2031 21.2969,-13.2031 C11.5938,-13.2031 0,-5 0,4.20313"/>
<path class="Note" transform="matrix(0.992126,0,0,0.992126,2917.66,210.827)" d="M0,4.20313 C0,8.5 3.09375,13.2969 11.2031,13.2969 C21.5938,13.2969 32.5,4.79688 32.5,-4 C32.5,-9.90625 27.5,-13.2031 21.2969,-13.2031 C11.5938,-13.2031 0,-5 0,4.20313"/>
<path class="Note" transform="matrix(0.992126,0,0,0.992126,2179.02,285.236)" d="M0,4.20313 C0,8.5 3.09375,13.2969 11.2031,13.2969 C21.5938,13.2969 32.5,4.79688 32.5,-4 C32.5,-9.90625 27.5,-13.2031 21.2969,-13.2031 C11.5938,-13.2031 0,-5 0,4.20313"/>
<path class="Note" transform="matrix(0.992126,0,0,0.992126,2712.35,186.024)" d="M0,4.20313 C0,8.5 3.09375,13.2969 11.2031,13.2969 C21.5938,13.2969 32.5,4.79688 32.5,-4 C32.5,-9.90625 27.5,-13.2031 21.2969,-13.2031 C11.5938,-13.2031 0,-5 0,4.20313"/>
<path class="Note" transform="matrix(0.992126,0,0,0.992126,502.569,173.622)" d="M0,4.20313 C0,8.5 3.09375,13.2969 11.2031,13.2969 C21.5938,13.2969 32.5,4.79688 32.5,-4 C32.5,-9.90625 27.5,-13.2031 21.2969,-13.2031 C11.5938,-13.2031 0,-5 0,4.20313"/>
<path class="Note" transform="matrix(0.992126,0,0,0.992126,1293.08,198.425)" d="M0,4.20313 C0,8.5 3.09375,13.2969 11.2031,13.2969 C21.5938,13.2969 32.5,4.79688 32.5,-4 C32.5,-9.90625 27.5,-13.2031 21.2969,-13.2031 C11.5938,-13.2031 0,-5 0,4.20313"/>
<path class="Note" transform="matrix(0.992126,0,0,0.992126,571.005,186.024)" d="M0,4.20313 C0,8.5 3.09375,13.2969 11.2031,13.2969 C21.5938,13.2969 32.5,4.79688 32.5,-4 C32.5,-9.90625 27.5,-13.2031 21.2969,-13.2031 C11.5938,-13.2031 0,-5 0,4.20313"/>
<path class="Note" transform="matrix(0.992126,0,0,0.992126,1224.64,223.228)" d="M0,4.20313 C0,8.5 3.09375,13.2969 11.2031,13.2969 C21.5938,13.2969 32.5,4.79688 32.5,-4 C32.5,-9.90625 27.5,-13.2031 21.2969,-13.2031 C11.5938,-13.2031 0,-5 0,4.20313"/>
<path class="Note" transform="matrix(0.992126,0,0,0.992126,706.714,810.561)" d="M0,4.20313 C0,8.5 3.09375,13.2969 11.2031,13.2969 C21.5938,13.2969 32.5,4.79688 32.5,-4 C32.5,-9.90625 27.5,-13.2031 21.2969,-13.2031 C11.5938,-13.2031 0,-5 0,4.20313"/>
<path class="Note" transform="matrix(0.992126,0,0,0.992126,1832.31,136.417)" d="M0,4.20313 C0,8.5 3.09375,13.2969 11.2031,13.2969 C21.5938,13.2969 32.5,4.79688 32.5,-4 C32.5,-9.90625 27.5,-13.2031 21.2969,-13.2031 C11.5938,-13.2031 0,-5 0,4.20313"/>
<path class="Note" transform="matrix(0.992126,0,0,0.992126,758.206,822.963)" d="M0,4.20313 C0,8.5 3.09375,13.2969 11.2031,13.2969 C21.5938,13.2969 32.5,4.79688 32.5,-4 C32.5,-9.90625 27.5,-13.2031 21.2969,-13.2031 C11.5938,-13.2031 0,-5 0,4.20313"/>
<path class="Note" transform="matrix(0.992126,0,0,0.992126,1156.21,260.433)" d="M0,4.20313 C0,8.5 3.09375,13.2969 11.2031,13.2969 C21.5938,13.2969 32.5,4.79688 32.5,-4 C32.5,-9.90625 27.5,-13.2031 21.2969,-13.2031 C11.5938,-13.2031 0,-5 0,4.20313"/>
<path class="Note" transform="matrix(0.992126,0,0,0.992126,1905.27,161.22)" d="M0,4.20313 C0,8.5 3.09375,13.2969 11.2031,13.2969 C21.5938,13.2969 32.5,4.79688 32.5,-4 C32.5,-9.90625 27.5,-13.2031 21.2969,-13.2031 C11.5938,-13.2031 0,-5 0,4.20313"/>
<path class="Note" transform="matrix(0.992126,0,0,0.992126,2179.02,431.269)" d="M0,4.20313 C0,8.5 3.09375,13.2969 11.2031,13.2969 C21.5938,13.2969 32.5,4.79688 32.5,-4 C32.5,-9.90625 27.5,-13.2031 21.2969,-13.2031 C11.5938,-13.2031 0,-5 0,4.20313"/>
<path class="Note" transform="matrix(0.992126,0,0,0.992126,1973.71,406.465)" d="M0,4.20313 C0,8.5 3.09375,13.2969 11.2031,13.2969 C21.5938,13.2969 32.5,4.79688 32.5,-4 C32.5,-9.90625 27.5,-13.2031 21.2969,-13.2031 C11.5938,-13.2031 0,-5 0,4.20313"/>
<path class="Note" transform="matrix(0.992126,0,0,0.992126,2179.02,381.662)" d="M0,4.20313 C0,8.5 3.09375,13.2969 11.2031,13.2969 C21.5938,13.2969 32.5,4.79688 32.5,-4 C32.5,-9.90625 27.5,-13.2031 21.2969,-13.2031 C11.5938,-13.2031 0,-5 0,4.20313"/>
<path class="Note" transform="matrix(0.992126,0,0,0.992126,1293.08,381.662)" d="M0,4.20313 C0,8.5 3.09375,13.2969 11.2031,13.2969 C21.5938,13.2969 32.5,4.79688 32.5,-4 C32.5,-9.90625 27.5,-13.2031 21.2969,-13.2031 C11.5938,-13.2031 0,-5 0,4.20313"/>
<path class="Note" transform="matrix(0.992126,0,0,0.992126,2849.22,431.269)" d="M0,4.20313 C0,8.5 3.09375,13.2969 11.2031,13.2969 C21.5938,13.2969 32.5,4.79688 32.5,-4 C32.5,-9.90625 27.5,-13.2031 21.2969,-13.2031 C11.5938,-13.2031 0,-5 0,4.20313"/>
<path class="Note" transform="matrix(0.992126,0,0,0.992126,1498.39,406.465)" d="M0,4.20313 C0,8.5 3.09375,13.2969 11.2031,13.2969 C21.5938,13.2969 32.5,4.79688 32.5,-4 C32.5,-9.90625 27.5,-13.2031 21.2969,-13.2031 C11.5938,-13.2031 0,-5 0,4.20313"/>
<path class="Note" transform="matrix(0.992126,0,0,0.992126,2849.22,369.261)" d="M0,4.20313 C0,8.5 3.09375,13.2969 11.2031,13.2969 C21.5938,13.2969 32.5,4.79688 32.5,-4 C32.5,-9.90625 27.5,-13.2031 21.2969,-13.2031 C11.5938,-13.2031 0,-5 0,4.20313"/>
<path class="Note" transform="matrix(0.992126,0,0,0.992126,1498.39,443.67)" d="M0,4.20313 C0,8.5 3.09375,13.2969 11.2031,13.2969 C21.5938,13.2969 32.5,4.79688 32.5,-4 C32.5,-9.90625 27.5,-13.2031 21.2969,-13.2031 C11.5938,-13.2031 0,-5 0,4.20313"/>
<path class="Note" transform="matrix(0.992126,0,0,0.992126,1293.08,406.465)" d="M0,4.20313 C0,8.5 3.09375,13.2969 11.2031,13.2969 C21.5938,13.2969 32.5,4.79688 32.5,-4 C32.5,-9.90625 27.5,-13.2031 21.2969,-13.2031 C11.5938,-13.2031 0,-5 0,4.20313"/>
<path class="Note" transform="matrix(0.992126,0,0,0.992126,346.272,1098.78)" d="M0,4.20313 C0,8.5 3.09375,13.2969 11.2031,13.2969 C21.5938,13.2969 32.5,4.79688 32.5,-4 C32.5,-9.90625 27.5,-13.2031 21.2969,-13.2031 C11.5938,-13.2031 0,-5 0,4.20313"/>
<path class="Note" transform="matrix(0.992126,0,0,0.992126,500.747,962.362)" d="M0,4.20313 C0,8.5 3.09375,13.2969 11.2031,13.2969 C21.5938,13.2969 32.5,4.79688 32.5,-4 C32.5,-9.90625 27.5,-13.2031 21.2969,-13.2031 C11.5938,-13.2031 0,-5 0,4.20313"/>
<path class="Note" transform="matrix(0.992126,0,0,0.992126,1763.88,493.276)" d="M0,4.20313 C0,8.5 3.09375,13.2969 11.2031,13.2969 C21.5938,13.2969 32.5,4.79688 32.5,-4 C32.5,-9.90625 27.5,-13.2031 21.2969,-13.2031 C11.5938,-13.2031 0,-5 0,4.20313"/>
<path class="Note" transform="matrix(0.992126,0,0,0.992126,434.133,530.481)" d="M0,4.20313 C0,8.5 3.09375,13.2969 11.2031,13.2969 C21.5938,13.2969 32.5,4.79688 32.5,-4 C32.5,-9.90625 27.5,-13.2031 21.2969,-13.2031 C11.5938,-13.2031 0,-5 0,4.20313"/>
<path class="Note" transform="matrix(0.992126,0,0,0.992126,639.441,394.064)" d="M0,4.20313 C0,8.5 3.09375,13.2969 11.2031,13.2969 C21.5938,13.2969 32.5,4.79688 32.5,-4 C32.5,-9.90625 27.5,-13.2031 21.2969,-13.2031 C11.5938,-13.2031 0,-5 0,4.20313"/>
<path class="Note" transform="matrix(0.992126,0,0,0.992126,655.222,1011.97)" d="M0,4.20313 C0,8.5 3.09375,13.2969 11.2031,13.2969 C21.5938,13.2969 32.5,4.79688 32.5,-4 C32.5,-9.90625 27.5,-13.2031 21.2969,-13.2031 C11.5938,-13.2031 0,-5 0,4.20313"/>
<path class="Note" transform="matrix(0.992126,0,0,0.992126,655.222,962.362)" d="M0,4.20313 C0,8.5 3.09375,13.2969 11.2031,13.2969 C21.5938,13.2969 32.5,4.79688 32.5,-4 C32.5,-9.90625 27.5,-13.2031 21.2969,-13.2031 C11.5938,-13.2031 0,-5 0,4.20313"/>
<path class="Note" transform="matrix(0.992126,0,0,0.992126,844.749,443.67)" d="M0,4.20313 C0,8.5 3.09375,13.2969 11.2031,13.2969 C21.5938,13.2969 32.5,4.79688 32.5,-4 C32.5,-9.90625 27.5,-13.2031 21.2969,-13.2031 C11.5938,-13.2031 0,-5 0,4.20313"/>
<path class="Note" transform="matrix(0.992126,0,0,0.992126,844.749,394.064)" d="M0,4.20313 C0,8.5 3.09375,13.2969 11.2031,13.2969 C21.5938,13.2969 32.5,4.79688 32.5,-4 C32.5,-9.90625 27.5,-13.2031 21.2969,-13.2031 C11.5938,-13.2031 0,-5 0,4.20313"/>
<path class="Note" transform="matrix(0.992126,0,0,0.992126,2437.26,480.875)" d="M0,4.20313 C0,8.5 3.09375,13.2969 11.2031,13.2969 C21.5938,13.2969 32.5,4.79688 32.5,-4 C32.5,-9.90625 27.5,-13.2031 21.2969,-13.2031 C11.5938,-13.2031 0,-5 0,4.20313"/>
<path class="Note" transform="matrix(0.992126,0,0,0.992126,2679.87,406.465)" d="M0,4.20313 C0,8.5 3.09375,13.2969 11.2031,13.2969 C21.5938,13.2969 32.5,4.79688 32.5,-4 C32.5,-9.90625 27.5,-13.2031 21.2969,-13.2031 C11.5938,-13.2031 0,-5 0,4.20313"/>
<path class="Note" transform="matrix(0.992126,0,0,0.992126,1087.77,493.276)" d="M0,4.20313 C0,8.5 3.09375,13.2969 11.2031,13.2969 C21.5938,13.2969 32.5,4.79688 32.5,-4 C32.5,-9.90625 27.5,-13.2031 21.2969,-13.2031 C11.5938,-13.2031 0,-5 0,4.20313"/>
<path class="Note" transform="matrix(0.992126,0,0,0.992126,1498.39,381.662)" d="M0,4.20313 C0,8.5 3.09375,13.2969 11.2031,13.2969 C21.5938,13.2969 32.5,4.79688 32.5,-4 C32.5,-9.90625 27.5,-13.2031 21.2969,-13.2031 C11.5938,-13.2031 0,-5 0,4.20313"/>
<path class="Note" transform="matrix(0.992126,0,0,0.992126,2643.91,406.465)" d="M21.2969,-13.2031 C11.5938,-13.2031 0,-5.09375 0,4.20313 C0,8.5 3.09375,13.2969 11.2031,13.2969 C21.5938,13.2969 32.5,4.79688 32.5,-4 C32.5,-9.90625 27.5,-13.2031 21.2969,-13.2031 M7.5,8.59375 C4.20313,8.59375 3.5,5.90625 3.5,5 C3.5,0.09375 20.2969,-8.5 25,-8.5 C27.4063,-8.5 29,-7.09375 29,-4.90625 C29,0.09375 12.0938,8.59375 7.5,8.59375"/>
<path class="Note" transform="matrix(0.992126,0,0,0.992126,434.133,148.819)" d="M0,4.20313 C0,8.5 3.09375,13.2969 11.2031,13.2969 C21.5938,13.2969 32.5,4.79688 32.5,-4 C32.5,-9.90625 27.5,-13.2031 21.2969,-13.2031 C11.5938,-13.2031 0,-5 0,4.20313"/>
<path class="Clef" transform="matrix(0.992126,0,0,0.992126,145.87,810.561)" d="M12.2969,51.2969 C12.2969,57.9063 17.2969,66.6094 30.7969,66.6094 C35.5,66.6094 39.6094,65.4063 43.2031,63.2031 C48.6094,59.4063 50,52.7969 50,46.5 C50,42.6094 49.4063,38.1094 48.4063,32.4063 C48.1094,30.4063 47.5,27.4063 46.9063,23.5 C56.7031,20.2969 64,10.0938 64,-0.203125 C64,-15.2969 53.2969,-25.5 38.7031,-25.5 C37.7031,-31.5 36.7031,-37.4063 35.9063,-43 C46.4063,-54.1094 53.7031,-66.6094 53.7031,-82.5 C53.7031,-91.6094 50.9063,-99 49.2969,-102.609 C46.9063,-107.703 44,-111.203 42.2031,-111.203 C41.5,-111.203 38.4063,-110 35.1094,-106.109 C28.7031,-98.5 26.9063,-85.7031 26.9063,-77.3125 C26.9063,-71.9063 27.4063,-67 29.1094,-55.7969 C29,-55.7031 23.7969,-50.4063 21.7031,-48.7031 C12.5938,-40.2969 0,-28.1094 0,-8.09375 C0,10.5938 16.2969,25.2969 34.9063,25.2969 C37.7969,25.2969 40.5,25 42.7969,24.5938 C44.7031,34.2031 45.9063,41.2031 45.9063,46.5 C45.9063,56.9063 40.5,62.4063 30.4063,62.4063 C28,62.4063 25.9063,61.9063 25.7031,61.9063 C25.6094,61.7969 25.4063,61.7031 25.4063,61.6094 C25.4063,61.4063 25.6094,61.2969 25.9063,61.2969 C30.6094,60.5 35.2969,56.5 35.2969,50.1094 C35.2969,44.7031 31.2031,39 23.7031,39 C16.7031,39 12.2969,44.7031 12.2969,51.2969 M33.2031,-82.2031 C34.1094,-86.2031 38.7031,-96.7031 43.9063,-96.7031 C45.4063,-96.7031 47.7969,-91.9063 47.7969,-84.9063 C47.7969,-74.5 40.1094,-66.7031 33.2031,-59.9063 C32.6094,-63.9063 32.1094,-67.7969 32.1094,-72 C32.1094,-75.7031 32.4063,-79.1094 33.2031,-82.2031 M42,20.5938 C40,21 38.1094,21.2031 36.2031,21.2031 C21.9063,21.2031 9.70313,11.2031 9.70313,-3.90625 C9.70313,-16.0938 18.2969,-27 27.1094,-34.6094 C28.7969,-36.1094 30.4063,-37.5 31.9063,-39 C32.7969,-33.6094 33.5,-28.9063 34.2031,-24.7969 C25.0938,-22.0938 18.9063,-12.5 18.9063,-3.09375 C18.9063,3.90625 24.4063,13.5 32.4063,13.5 C33.2031,13.5 34.1094,13.0938 34.1094,12.2031 C34.1094,11.2969 33.1094,10.7969 31.9063,10 C28,7.59375 25.7969,5 25.7969,0.09375 C25.7969,-6 30.4063,-10.9063 36.2031,-12.2969 L42,20.5938 M56.2031,2.09375 C56.2031,9.20313 53.2969,16.5 46.2031,19.4063 C44.1094,7.40625 41.4063,-8.5 40.7031,-12.9063 C49.7031,-12.9063 56.2031,-6.79688 56.2031,2.09375"/>
<path class="Clef" transform="matrix(0.992126,0,0,0.992126,178.87,248.031)" d="M12.2969,51.2969 C12.2969,57.9063 17.2969,66.6094 30.7969,66.6094 C35.5,66.6094 39.6094,65.4063 43.2031,63.2031 C48.6094,59.4063 50,52.7969 50,46.5 C50,42.6094 49.4063,38.1094 48.4063,32.4063 C48.1094,30.4063 47.5,27.4063 46.9063,23.5 C56.7031,20.2969 64,10.0938 64,-0.203125 C64,-15.2969 53.2969,-25.5 38.7031,-25.5 C37.7031,-31.5 36.7031,-37.4063 35.9063,-43 C46.4063,-54.1094 53.7031,-66.6094 53.7031,-82.5 C53.7031,-91.6094 50.9063,-99 49.2969,-102.609 C46.9063,-107.703 44,-111.203 42.2031,-111.203 C41.5,-111.203 38.4063,-110 35.1094,-106.109 C28.7031,-98.5 26.9063,-85.7031 26.9063,-77.3125 C26.9063,-71.9063 27.4063,-67 29.1094,-55.7969 C29,-55.7031 23.7969,-50.4063 21.7031,-48.7031 C12.5938,-40.2969 0,-28.1094 0,-8.09375 C0,10.5938 16.2969,25.2969 34.9063,25.2969 C37.7969,25.2969 40.5,25 42.7969,24.5938 C44.7031,34.2031 45.9063,41.2031 45.9063,46.5 C45.9063,56.9063 40.5,62.4063 30.4063,62.4063 C28,62.4063 25.9063,61.9063 25.7031,61.9063 C25.6094,61.7969 25.4063,61.7031 25.4063,61.6094 C25.4063,61.4063 25.6094,61.2969 25.9063,61.2969 C30.6094,60.5 35.2969,56.5 35.2969,50.1094 C35.2969,44.7031 31.2031,39 23.7031,39 C16.7031,39 12.2969,44.7031 12.2969,51.2969 M33.2031,-82.2031 C34.1094,-86.2031 38.7031,-96.7031 43.9063,-96.7031 C45.4063,-96.7031 47.7969,-91.9063 47.7969,-84.9063 C47.7969,-74.5 40.1094,-66.7031 33.2031,-59.9063 C32.6094,-63.9063 32.1094,-67.7969 32.1094,-72 C32.1094,-75.7031 32.4063,-79.1094 33.2031,-82.2031 M42,20.5938 C40,21 38.1094,21.2031 36.2031,21.2031 C21.9063,21.2031 9.70313,11.2031 9.70313,-3.90625 C9.70313,-16.0938 18.2969,-27 27.1094,-34.6094 C28.7969,-36.1094 30.4063,-37.5 31.9063,-39 C32.7969,-33.6094 33.5,-28.9063 34.2031,-24.7969 C25.0938,-22.0938 18.9063,-12.5 18.9063,-3.09375 C18.9063,3.90625 24.4063,13.5 32.4063,13.5 C33.2031,13.5 34.1094,13.0938 34.1094,12.2031 C34.1094,11.2969 33.1094,10.7969 31.9063,10 C28,7.59375 25.7969,5 25.7969,0.09375 C25.7969,-6 30.4063,-10.9063 36.2031,-12.2969 L42,20.5938 M56.2031,2.09375 C56.2031,9.20313 53.2969,16.5 46.2031,19.4063 C44.1094,7.40625 41.4063,-8.5 40.7031,-12.9063 C49.7031,-12.9063 56.2031,-6.79688 56.2031,2.09375"/>
<path class="Clef" transform="matrix(0.992126,0,0,0.992126,145.87,1011.97)" d="M25.4063,-25.0938 C17.7969,-25.0938 11.7031,-20.7031 11.5938,-20.7031 C5.70313,-16.4063 1.90625,-9.79688 1.90625,-2.5 C1.90625,4.79688 6.09375,10.2031 13.5,10.2031 C19.9063,10.2031 24.9063,5.90625 24.9063,-0.703125 C24.9063,-6.40625 19.9063,-11.0938 14.2969,-11.0938 C13.0938,-11.0938 12,-10.9063 11.0938,-10.5938 C10.0938,-10.2031 8.40625,-9.20313 7.59375,-8.5 C8.29688,-12.9063 11.2969,-17.2969 15.2031,-19.4063 C17.7031,-20.7969 20.9063,-21.4063 24.4063,-21.4063 C34.6094,-21.4063 39.6094,-13.2031 39.6094,3.59375 C39.6094,16.5938 31.2969,35.2969 21.5,44.1094 C11.0938,53.6094 1.29688,58.1094 1.20313,58.1094 C1.20313,58.1094 0,58.7969 0,60 C0,60.2031 0.09375,60.2969 0.09375,60.5 C0.40625,61.5 1.29688,61.7031 2,61.7031 L2.29688,61.6094 C2.5,61.6094 13.9063,56.9063 23,49.7969 C37,39.7031 52.7969,21.9063 52.7969,3.5 C52.7969,-13.9063 43.4063,-25.0938 25.4063,-25.0938 M56.7969,-12.4063 C56.7969,-9.59375 59,-7.40625 61.6094,-7.40625 C64.2031,-7.40625 66.4063,-9.59375 66.4063,-12.4063 C66.4063,-15.2031 64.2031,-17.5 61.6094,-17.5 C59,-17.5 56.7969,-15.2031 56.7969,-12.4063 M56.7969,12.2969 C56.7969,15.0938 59,17.4063 61.6094,17.4063 C64.2031,17.4063 66.4063,15.0938 66.4063,12.2969 C66.4063,9.5 64.2031,7.20313 61.6094,7.20313 C59,7.20313 56.7969,9.5 56.7969,12.2969"/>
<path class="Clef" transform="matrix(0.992126,0,0,0.992126,178.87,443.67)" d="M25.4063,-25.0938 C17.7969,-25.0938 11.7031,-20.7031 11.5938,-20.7031 C5.70313,-16.4063 1.90625,-9.79688 1.90625,-2.5 C1.90625,4.79688 6.09375,10.2031 13.5,10.2031 C19.9063,10.2031 24.9063,5.90625 24.9063,-0.703125 C24.9063,-6.40625 19.9063,-11.0938 14.2969,-11.0938 C13.0938,-11.0938 12,-10.9063 11.0938,-10.5938 C10.0938,-10.2031 8.40625,-9.20313 7.59375,-8.5 C8.29688,-12.9063 11.2969,-17.2969 15.2031,-19.4063 C17.7031,-20.7969 20.9063,-21.4063 24.4063,-21.4063 C34.6094,-21.4063 39.6094,-13.2031 39.6094,3.59375 C39.6094,16.5938 31.2969,35.2969 21.5,44.1094 C11.0938,53.6094 1.29688,58.1094 1.20313,58.1094 C1.20313,58.1094 0,58.7969 0,60 C0,60.2031 0.09375,60.2969 0.09375,60.5 C0.40625,61.5 1.29688,61.7031 2,61.7031 L2.29688,61.6094 C2.5,61.6094 13.9063,56.9063 23,49.7969 C37,39.7031 52.7969,21.9063 52.7969,3.5 C52.7969,-13.9063 43.4063,-25.0938 25.4063,-25.0938 M56.7969,-12.4063 C56.7969,-9.59375 59,-7.40625 61.6094,-7.40625 C64.2031,-7.40625 66.4063,-9.59375 66.4063,-12.4063 C66.4063,-15.2031 64.2031,-17.5 61.6094,-17.5 C59,-17.5 56.7969,-15.2031 56.7969,-12.4063 M56.7969,12.2969 C56.7969,15.0938 59,17.4063 61.6094,17.4063 C64.2031,17.4063 66.4063,15.0938 66.4063,12.2969 C66.4063,9.5 64.2031,7.20313 61.6094,7.20313 C59,7.20313 56.7969,9.5 56.7969,12.2969"/>
<path class="KeySig" transform="matrix(0.992126,0,0,0.992126,236.549,785.758)" d="M12,-15.5 C7,-15.5 4.09375,-12.4063 3.59375,-11.7969 L4,-43.9063 C4,-44.7031 3.40625,-45.2969 2.59375,-45.2969 L1.40625,-45.2969 C0.59375,-45.2969 0,-44.7031 0,-43.9063 L0.5,16.2031 C0.5,17 1.09375,17.5938 1.90625,17.5938 C2.09375,17.5938 2.5,17.5 2.70313,17.4063 C11.2969,13.0938 20.2969,4.90625 20.2969,-5.40625 C20.2969,-10.5938 17.9063,-15.5 12,-15.5 M3.29688,12.7031 L3.59375,-6.79688 C3.79688,-7.70313 5.29688,-10.5938 9.29688,-10.5938 C12.9063,-10.5938 13.2031,-7.20313 13.2031,-5.09375 C13.2031,3.79688 9.90625,7.5 3.29688,12.7031"/>
<path class="KeySig" transform="matrix(0.992126,0,0,0.992126,264.111,748.553)" d="M12,-15.5 C7,-15.5 4.09375,-12.4063 3.59375,-11.7969 L4,-43.9063 C4,-44.7031 3.40625,-45.2969 2.59375,-45.2969 L1.40625,-45.2969 C0.59375,-45.2969 0,-44.7031 0,-43.9063 L0.5,16.2031 C0.5,17 1.09375,17.5938 1.90625,17.5938 C2.09375,17.5938 2.5,17.5 2.70313,17.4063 C11.2969,13.0938 20.2969,4.90625 20.2969,-5.40625 C20.2969,-10.5938 17.9063,-15.5 12,-15.5 M3.29688,12.7031 L3.59375,-6.79688 C3.79688,-7.70313 5.29688,-10.5938 9.29688,-10.5938 C12.9063,-10.5938 13.2031,-7.20313 13.2031,-5.09375 C13.2031,3.79688 9.90625,7.5 3.29688,12.7031"/>
<path class="KeySig" transform="matrix(0.992126,0,0,0.992126,269.549,223.228)" d="M12,-15.5 C7,-15.5 4.09375,-12.4063 3.59375,-11.7969 L4,-43.9063 C4,-44.7031 3.40625,-45.2969 2.59375,-45.2969 L1.40625,-45.2969 C0.59375,-45.2969 0,-44.7031 0,-43.9063 L0.5,16.2031 C0.5,17 1.09375,17.5938 1.90625,17.5938 C2.09375,17.5938 2.5,17.5 2.70313,17.4063 C11.2969,13.0938 20.2969,4.90625 20.2969,-5.40625 C20.2969,-10.5938 17.9063,-15.5 12,-15.5 M3.29688,12.7031 L3.59375,-6.79688 C3.79688,-7.70313 5.29688,-10.5938 9.29688,-10.5938 C12.9063,-10.5938 13.2031,-7.20313 13.2031,-5.09375 C13.2031,3.79688 9.90625,7.5 3.29688,12.7031"/>
<path class="KeySig" transform="matrix(0.992126,0,0,0.992126,297.111,186.024)" d="M12,-15.5 C7,-15.5 4.09375,-12.4063 3.59375,-11.7969 L4,-43.9063 C4,-44.7031 3.40625,-45.2969 2.59375,-45.2969 L1.40625,-45.2969 C0.59375,-45.2969 0,-44.7031 0,-43.9063 L0.5,16.2031 C0.5,17 1.09375,17.5938 1.90625,17.5938 C2.09375,17.5938 2.5,17.5 2.70313,17.4063 C11.2969,13.0938 20.2969,4.90625 20.2969,-5.40625 C20.2969,-10.5938 17.9063,-15.5 12,-15.5 M3.29688,12.7031 L3.59375,-6.79688 C3.79688,-7.70313 5.29688,-10.5938 9.29688,-10.5938 C12.9063,-10.5938 13.2031,-7.20313 13.2031,-5.09375 C13.2031,3.79688 9.90625,7.5 3.29688,12.7031"/>
<path class="KeySig" transform="matrix(0.992126,0,0,0.992126,269.549,493.276)" d="M12,-15.5 C7,-15.5 4.09375,-12.4063 3.59375,-11.7969 L4,-43.9063 C4,-44.7031 3.40625,-45.2969 2.59375,-45.2969 L1.40625,-45.2969 C0.59375,-45.2969 0,-44.7031 0,-43.9063 L0.5,16.2031 C0.5,17 1.09375,17.5938 1.90625,17.5938 C2.09375,17.5938 2.5,17.5 2.70313,17.4063 C11.2969,13.0938 20.2969,4.90625 20.2969,-5.40625 C20.2969,-10.5938 17.9063,-15.5 12,-15.5 M3.29688,12.7031 L3.59375,-6.79688 C3.79688,-7.70313 5.29688,-10.5938 9.29688,-10.5938 C12.9063,-10.5938 13.2031,-7.20313 13.2031,-5.09375 C13.2031,3.79688 9.90625,7.5 3.29688,12.7031"/>
<path class="KeySig" transform="matrix(0.992126,0,0,0.992126,297.111,456.072)" d="M12,-15.5 C7,-15.5 4.09375,-12.4063 3.59375,-11.7969 L4,-43.9063 C4,-44.7031 3.40625,-45.2969 2.59375,-45.2969 L1.40625,-45.2969 C0.59375,-45.2969 0,-44.7031 0,-43.9063 L0.5,16.2031 C0.5,17 1.09375,17.5938 1.90625,17.5938 C2.09375,17.5938 2.5,17.5 2.70313,17.4063 C11.2969,13.0938 20.2969,4.90625 20.2969,-5.40625 C20.2969,-10.5938 17.9063,-15.5 12,-15.5 M3.29688,12.7031 L3.59375,-6.79688 C3.79688,-7.70313 5.29688,-10.5938 9.29688,-10.5938 C12.9063,-10.5938 13.2031,-7.20313 13.2031,-5.09375 C13.2031,3.79688 9.90625,7.5 3.29688,12.7031"/>
<path class="KeySig" transform="matrix(0.992126,0,0,0.992126,236.549,1061.57)" d="M12,-15.5 C7,-15.5 4.09375,-12.4063 3.59375,-11.7969 L4,-43.9063 C4,-44.7031 3.40625,-45.2969 2.59375,-45.2969 L1.40625,-45.2969 C0.59375,-45.2969 0,-44.7031 0,-43.9063 L0.5,16.2031 C0.5,17 1.09375,17.5938 1.90625,17.5938 C2.09375,17.5938 2.5,17.5 2.70313,17.4063 C11.2969,13.0938 20.2969,4.90625 20.2969,-5.40625 C20.2969,-10.5938 17.9063,-15.5 12,-15.5 M3.29688,12.7031 L3.59375,-6.79688 C3.79688,-7.70313 5.29688,-10.5938 9.29688,-10.5938 C12.9063,-10.5938 13.2031,-7.20313 13.2031,-5.09375 C13.2031,3.79688 9.90625,7.5 3.29688,12.7031"/>
<path class="KeySig" transform="matrix(0.992126,0,0,0.992126,264.111,1024.37)" d="M12,-15.5 C7,-15.5 4.09375,-12.4063 3.59375,-11.7969 L4,-43.9063 C4,-44.7031 3.40625,-45.2969 2.59375,-45.2969 L1.40625,-45.2969 C0.59375,-45.2969 0,-44.7031 0,-43.9063 L0.5,16.2031 C0.5,17 1.09375,17.5938 1.90625,17.5938 C2.09375,17.5938 2.5,17.5 2.70313,17.4063 C11.2969,13.0938 20.2969,4.90625 20.2969,-5.40625 C20.2969,-10.5938 17.9063,-15.5 12,-15.5 M3.29688,12.7031 L3.59375,-6.79688 C3.79688,-7.70313 5.29688,-10.5938 9.29688,-10.5938 C12.9063,-10.5938 13.2031,-7.20313 13.2031,-5.09375 C13.2031,3.79688 9.90625,7.5 3.29688,12.7031"/>
<path class="TimeSig" transform="matrix(0.992126,0,0,0.992126,344.586,198.921)" d="M27.2031,-1.59375 C32.2031,-3.5 35.7031,-6.70313 35.7031,-12.2031 C35.7031,-13.0938 35.4063,-24.4063 18.2031,-24.4063 C1,-24.4063 1.5,-12.2031 1.5,-12.2031 L1.59375,-12.2031 L1.5,-12 C1.5,-8.40625 4.40625,-5.59375 8,-5.59375 C11.5938,-5.59375 14.4063,-8.40625 14.4063,-12 C14.4063,-14.9063 12.2031,-17.7031 9.40625,-18.2969 C9.5,-18.4063 9.59375,-18.5 9.70313,-18.5938 C11.0938,-19.5938 13,-20.0938 14.9063,-20.0938 C19.0938,-20.0938 23.5938,-17.5938 23.5938,-12.2031 C23.5938,-5.90625 18.9063,-5 17.7031,-4.79688 C16.5,-4.59375 10.9063,-4.20313 9.70313,-4.20313 C8.5,-4.20313 8.40625,-2.79688 8.40625,-2.79688 L8.40625,-0.796875 C8.40625,-0.796875 8.59375,0.296875 9.70313,0.40625 C11.4063,0.5 13.7031,0.5 16.9063,1 C21.2969,1.59375 23.5938,4.59375 23.5938,11.5938 C23.5938,18.2969 19.0938,20.0938 14.9063,20.0938 C12.0938,20.0938 9.5,19.2969 8.40625,18.5 C11.7031,18.2969 14.4063,15.4063 14.4063,12.0938 C14.4063,8.5 11.5938,5.59375 8,5.59375 C4.40625,5.59375 1.5,8.5 1.5,12.0938 C1.5,20.2969 9,24.4063 16.4063,24.4063 C26,24.4063 36.4063,21.0938 36.4063,10.2031 C36.4063,2.90625 31.4063,-0.203125 27,-1.59375 L27.2031,-1.59375 "/>
<path class="TimeSig" transform="matrix(0.992126,0,0,0.992126,340.68,248.031)" d="M20.7969,12.7031 L20.7969,20.0938 L12.5,20.0938 C11.7969,20.0938 11.0938,20.7031 11.0938,21.5 L11.0938,23.4063 C11.0938,24.2031 11.7969,24.7969 12.5,24.7969 L42.7969,24.7969 C43.6094,24.7969 44.2031,24.2031 44.2031,23.4063 L44.2031,21.5 C44.2031,20.7031 43.6094,20.0938 42.7969,20.0938 L33.9063,20.0938 L33.9063,12.7031 L42.7969,12.7031 C43.6094,12.7031 44.2031,12 44.2031,11.2031 L44.2031,9.29688 C44.2031,8.59375 43.6094,7.90625 42.7969,7.90625 L33.9063,7.90625 L33.9063,-8 C33.9063,-8.59375 33.6094,-9.09375 33.1094,-9.29688 L31.9063,-9.90625 C31.7031,-10 31.4063,-10.0938 31.2031,-10.0938 C30.9063,-10 30.5,-9.90625 30.2969,-9.70313 L21.2031,-1.40625 C20.9063,-1.09375 20.7969,-0.703125 20.7969,-0.296875 L20.7969,7.90625 L9.29688,7.90625 C9.29688,7.90625 20.4063,-4.09375 32.2031,-19.9063 C32.6094,-20.4063 32.7031,-20.9063 32.7031,-21.2969 C32.7031,-21.7969 32.5,-22.2031 32.4063,-22.2969 L30.2031,-24.5 C30,-24.7031 29.6094,-24.9063 29.2031,-24.9063 C28.6094,-24.9063 15.0938,-24.9063 14.4063,-24.9063 C13.5938,-24.9063 13.0938,-24.2969 13,-23.7031 C13,-23.7031 12.5,-16.2969 9.90625,-8.20313 C7.29688,-0.09375 4.29688,4.90625 1.70313,8.59375 C1.70313,8.59375 1.40625,9.09375 1.40625,9.70313 C1.40625,9.90625 1.40625,10.0938 1.5,10.2969 C1.90625,11 2.5,12.0938 2.5,12.0938 C2.5,12.0938 2.70313,12.7031 3.59375,12.7031 L20.7969,12.7031 "/>
<path class="TimeSig" transform="matrix(0.992126,0,0,0.992126,344.586,444.166)" d="M27.2031,-1.59375 C32.2031,-3.5 35.7031,-6.70313 35.7031,-12.2031 C35.7031,-13.0938 35.4063,-24.4063 18.2031,-24.4063 C1,-24.4063 1.5,-12.2031 1.5,-12.2031 L1.59375,-12.2031 L1.5,-12 C1.5,-8.40625 4.40625,-5.59375 8,-5.59375 C11.5938,-5.59375 14.4063,-8.40625 14.4063,-12 C14.4063,-14.9063 12.2031,-17.7031 9.40625,-18.2969 C9.5,-18.4063 9.59375,-18.5 9.70313,-18.5938 C11.0938,-19.5938 13,-20.0938 14.9063,-20.0938 C19.0938,-20.0938 23.5938,-17.5938 23.5938,-12.2031 C23.5938,-5.90625 18.9063,-5 17.7031,-4.79688 C16.5,-4.59375 10.9063,-4.20313 9.70313,-4.20313 C8.5,-4.20313 8.40625,-2.79688 8.40625,-2.79688 L8.40625,-0.796875 C8.40625,-0.796875 8.59375,0.296875 9.70313,0.40625 C11.4063,0.5 13.7031,0.5 16.9063,1 C21.2969,1.59375 23.5938,4.59375 23.5938,11.5938 C23.5938,18.2969 19.0938,20.0938 14.9063,20.0938 C12.0938,20.0938 9.5,19.2969 8.40625,18.5 C11.7031,18.2969 14.4063,15.4063 14.4063,12.0938 C14.4063,8.5 11.5938,5.59375 8,5.59375 C4.40625,5.59375 1.5,8.5 1.5,12.0938 C1.5,20.2969 9,24.4063 16.4063,24.4063 C26,24.4063 36.4063,21.0938 36.4063,10.2031 C36.4063,2.90625 31.4063,-0.203125 27,-1.59375 L27.2031,-1.59375 "/>
<path class="TimeSig" transform="matrix(0.992126,0,0,0.992126,340.68,493.276)" d="M20.7969,12.7031 L20.7969,20.0938 L12.5,20.0938 C11.7969,20.0938 11.0938,20.7031 11.0938,21.5 L11.0938,23.4063 C11.0938,24.2031 11.7969,24.7969 12.5,24.7969 L42.7969,24.7969 C43.6094,24.7969 44.2031,24.2031 44.2031,23.4063 L44.2031,21.5 C44.2031,20.7031 43.6094,20.0938 42.7969,20.0938 L33.9063,20.0938 L33.9063,12.7031 L42.7969,12.7031 C43.6094,12.7031 44.2031,12 44.2031,11.2031 L44.2031,9.29688 C44.2031,8.59375 43.6094,7.90625 42.7969,7.90625 L33.9063,7.90625 L33.9063,-8 C33.9063,-8.59375 33.6094,-9.09375 33.1094,-9.29688 L31.9063,-9.90625 C31.7031,-10 31.4063,-10.0938 31.2031,-10.0938 C30.9063,-10 30.5,-9.90625 30.2969,-9.70313 L21.2031,-1.40625 C20.9063,-1.09375 20.7969,-0.703125 20.7969,-0.296875 L20.7969,7.90625 L9.29688,7.90625 C9.29688,7.90625 20.4063,-4.09375 32.2031,-19.9063 C32.6094,-20.4063 32.7031,-20.9063 32.7031,-21.2969 C32.7031,-21.7969 32.5,-22.2031 32.4063,-22.2969 L30.2031,-24.5 C30,-24.7031 29.6094,-24.9063 29.2031,-24.9063 C28.6094,-24.9063 15.0938,-24.9063 14.4063,-24.9063 C13.5938,-24.9063 13.0938,-24.2969 13,-23.7031 C13,-23.7031 12.5,-16.2969 9.90625,-8.20313 C7.29688,-0.09375 4.29688,4.90625 1.70313,8.59375 C1.70313,8.59375 1.40625,9.09375 1.40625,9.70313 C1.40625,9.90625 1.40625,10.0938 1.5,10.2969 C1.90625,11 2.5,12.0938 2.5,12.0938 C2.5,12.0938 2.70313,12.7031 3.59375,12.7031 L20.7969,12.7031 "/>
<path class="Rest" transform="matrix(0.992126,0,0,0.992126,2437.26,604.891)" d="M23,16.5938 C22.9063,16.5 22.7031,16.2969 22.4063,15.9063 L10.9063,1.70313 C10.7969,1.59375 10.7031,1.29688 10.7031,1.09375 C10.7031,0.796875 10.7969,0.40625 10.9063,0.203125 L21.0938,-15.2031 C21.2031,-15.4063 21.2969,-15.7031 21.2969,-15.9063 L21.2969,-16.7969 C21.2969,-17.0938 21.2031,-17.4063 21,-17.5938 L4.79688,-39.5 C4.79688,-39.5 4.40625,-40.1094 3.79688,-40.1094 C3.5,-40.1094 3.29688,-40.1094 3,-39.7969 C2.59375,-39.5 2.5,-39.1094 2.5,-38.7969 C2.5,-38.2031 2.79688,-37.7031 2.79688,-37.7031 L10.4063,-27.2969 C10.5938,-27 10.7031,-26.6094 10.7031,-26.1094 C10.7031,-25.7031 10.5938,-25.2031 10.4063,-24.9063 L0.296875,-9.5 C0.203125,-9.29688 0.09375,-8.90625 0.09375,-8.70313 L0.09375,-7.79688 C0.09375,-7.5 0.203125,-7.20313 0.40625,-7 L11.5938,6.90625 C11.2031,6.79688 10.2969,6.59375 9.09375,6.59375 C4,6.59375 0,10.7969 0,15.9063 C0,17.2969 0.296875,18.7031 1.09375,19.7969 C3.20313,23 10.7031,32.5 10.7031,32.5 C10.7031,32.5 11.2031,33.1094 11.9063,33.1094 C12.0938,33.1094 12.2969,33.1094 12.5,32.9063 C13,32.5 13.2031,32.1094 13.2031,31.7031 C13.2031,31.2969 13,31 12.9063,30.7969 C12.5938,30.2969 9.40625,24.5 9.40625,24.5 C9.40625,24.5 8.70313,23.0938 8.70313,21.2969 C8.70313,18.0938 11.0938,15.5 14.2969,15.5 C15.5938,15.5 16.7031,15.9063 17.5,16.4063 L21.4063,18.9063 C21.4063,18.9063 21.7969,19.0938 22.2031,19.0938 C22.5938,19.0938 22.9063,19 23.2031,18.5938 C23.4063,18.2969 23.5,18 23.5,17.7031 C23.5,17.4063 23.4063,17.2031 23.2031,16.9063 L23,16.5938 "/>
<path class="Beam" fill-rule="evenodd" d="M1293.08,266.628 L1432.43,260.427 L1432.43,272.841 L1293.08,279.042 L1293.08,266.628 "/>
<path class="Beam" fill-rule="evenodd" d="M2437.26,353.391 L2577.96,334.789 L2577.96,347.298 L2437.26,365.9 L2437.26,353.391 "/>
<path class="Beam" fill-rule="evenodd" d="M1087.77,340.988 L1227.12,322.386 L1227.12,334.898 L1087.77,353.5 L1087.77,340.988 "/>
<path class="Beam" fill-rule="evenodd" d="M346.272,798.117 L451.736,810.518 L451.736,823.005 L346.272,810.604 L346.272,798.117 "/>
<path class="Beam" fill-rule="evenodd" d="M2849.22,272.835 L2988.57,272.835 L2988.57,285.236 L2849.22,285.236 L2849.22,272.835 "/>
<path class="Beam" fill-rule="evenodd" d="M844.749,328.636 L984.101,322.435 L984.101,334.849 L844.749,341.049 L844.749,328.636 "/>
<path class="Beam" fill-rule="evenodd" d="M639.441,297.583 L778.793,316.185 L778.793,328.697 L639.441,310.094 L639.441,297.583 "/>
<path class="Beam" fill-rule="evenodd" d="M434.133,235.605 L573.485,248.007 L573.485,260.458 L434.133,248.056 L434.133,235.605 "/>
<path class="Beam" fill-rule="evenodd" d="M500.747,866.325 L606.211,878.727 L606.211,891.214 L500.747,878.812 L500.747,866.325 "/>
<path class="Beam" fill-rule="evenodd" d="M1763.88,210.804 L1907.75,223.205 L1907.75,235.653 L1763.88,223.251 L1763.88,210.804 "/>
<path class="Beam" fill-rule="evenodd" d="M1973.71,285.181 L2113.06,303.784 L2113.06,316.295 L1973.71,297.693 L1973.71,285.181 "/>
<path class="Beam" fill-rule="evenodd" d="M655.222,891.161 L760.686,884.96 L760.686,897.383 L655.222,903.584 L655.222,891.161 "/>
<path class="Beam" fill-rule="evenodd" d="M2643.91,272.81 L2783.27,260.409 L2783.27,272.859 L2643.91,285.261 L2643.91,272.81 "/>
<path class="Beam" fill-rule="evenodd" d="M2179.02,341.043 L2318.37,341.043 L2318.37,353.445 L2179.02,353.445 L2179.02,341.043 "/>
<path class="Beam" fill-rule="evenodd" d="M1498.39,266.634 L1637.74,266.634 L1637.74,279.035 L1498.39,279.035 L1498.39,266.634 "/>
<path class="Tuplet" d="M917.481,368.072 C919.606,367.4 920.45,367.025 921.528,366.306 C923.653,364.916 924.95,362.447 924.95,359.916 C924.95,355.65 921.528,352.775 916.497,352.775 C911.591,352.775 907.45,355.822 907.45,359.525 C907.45,361.369 908.575,362.619 910.278,362.619 C911.763,362.619 912.856,361.541 912.856,360.056 C912.856,359.291 912.622,358.759 911.903,358.041 C911.45,357.634 911.278,357.306 911.278,356.994 C911.278,355.916 913.528,354.791 915.638,354.791 C918.653,354.791 920.45,356.462 920.45,359.244 C920.45,363.259 917.622,367.025 914.606,367.025 C914.466,367.025 914.059,366.994 913.575,366.947 C912.263,366.853 912.263,366.853 911.997,366.853 C910.997,366.853 910.466,367.306 910.466,368.119 C910.466,368.837 910.966,369.275 911.763,369.275 C911.997,369.275 912.309,369.244 912.669,369.197 C913.294,369.056 913.981,369.009 914.372,369.009 C916.497,369.009 917.934,370.9 917.934,373.697 C917.934,378.556 915.544,383.228 910.106,383.228 C907.591,383.228 905.419,381.978 905.419,380.525 C905.419,380.041 905.606,379.853 906.325,379.541 C907.622,378.962 908.169,378.15 908.169,376.931 C908.169,375.353 906.903,374.15 905.294,374.15 C903.356,374.15 902.091,375.666 902.091,378.009 C902.091,382.384 905.419,385.119 910.825,385.119 C917.622,385.119 922.794,380.572 922.794,374.541 C922.794,371.041 920.638,369.056 917.481,368.072"/>
<path class="Tuplet" d="M556.536,916.76 C558.661,916.088 559.504,915.713 560.583,914.995 C562.708,913.604 564.004,911.135 564.004,908.604 C564.004,904.338 560.583,901.463 555.551,901.463 C550.645,901.463 546.504,904.51 546.504,908.213 C546.504,910.057 547.629,911.307 549.333,911.307 C550.817,911.307 551.911,910.229 551.911,908.745 C551.911,907.979 551.676,907.448 550.958,906.729 C550.504,906.323 550.333,905.995 550.333,905.682 C550.333,904.604 552.583,903.479 554.692,903.479 C557.708,903.479 559.504,905.151 559.504,907.932 C559.504,911.948 556.676,915.713 553.661,915.713 C553.52,915.713 553.114,915.682 552.629,915.635 C551.317,915.541 551.317,915.541 551.051,915.541 C550.051,915.541 549.52,915.995 549.52,916.807 C549.52,917.526 550.02,917.963 550.817,917.963 C551.051,917.963 551.364,917.932 551.723,917.885 C552.348,917.745 553.036,917.698 553.426,917.698 C555.551,917.698 556.989,919.588 556.989,922.385 C556.989,927.245 554.598,931.916 549.161,931.916 C546.645,931.916 544.473,930.666 544.473,929.213 C544.473,928.729 544.661,928.541 545.379,928.229 C546.676,927.651 547.223,926.838 547.223,925.62 C547.223,924.041 545.958,922.838 544.348,922.838 C542.411,922.838 541.145,924.354 541.145,926.698 C541.145,931.073 544.473,933.807 549.879,933.807 C556.676,933.807 561.848,929.26 561.848,923.229 C561.848,919.729 559.692,917.745 556.536,916.76"/>
<path class="Tuplet" d="M711.011,930.601 C713.136,929.93 713.98,929.555 715.058,928.836 C717.183,927.445 718.48,924.976 718.48,922.445 C718.48,918.18 715.058,915.305 710.027,915.305 C705.12,915.305 700.98,918.351 700.98,922.055 C700.98,923.898 702.105,925.148 703.808,925.148 C705.292,925.148 706.386,924.07 706.386,922.586 C706.386,921.82 706.152,921.289 705.433,920.57 C704.98,920.164 704.808,919.836 704.808,919.523 C704.808,918.445 707.058,917.32 709.167,917.32 C712.183,917.32 713.98,918.992 713.98,921.773 C713.98,925.789 711.152,929.555 708.136,929.555 C707.995,929.555 707.589,929.523 707.105,929.476 C705.792,929.383 705.792,929.383 705.527,929.383 C704.527,929.383 703.995,929.836 703.995,930.648 C703.995,931.367 704.495,931.805 705.292,931.805 C705.527,931.805 705.839,931.773 706.198,931.726 C706.823,931.586 707.511,931.539 707.902,931.539 C710.027,931.539 711.464,933.43 711.464,936.226 C711.464,941.086 709.073,945.758 703.636,945.758 C701.12,945.758 698.948,944.508 698.948,943.055 C698.948,942.57 699.136,942.383 699.855,942.07 C701.152,941.492 701.698,940.68 701.698,939.461 C701.698,937.883 700.433,936.68 698.823,936.68 C696.886,936.68 695.62,938.195 695.62,940.539 C695.62,944.914 698.948,947.648 704.355,947.648 C711.152,947.648 716.323,943.101 716.323,937.07 C716.323,933.57 714.167,931.586 711.011,930.601"/>
<path class="Tuplet" d="M1571.12,309.164 C1573.24,308.492 1574.09,308.117 1575.17,307.399 C1577.29,306.008 1578.59,303.539 1578.59,301.008 C1578.59,296.742 1575.17,293.867 1570.13,293.867 C1565.23,293.867 1561.09,296.914 1561.09,300.617 C1561.09,302.461 1562.21,303.711 1563.92,303.711 C1565.4,303.711 1566.49,302.633 1566.49,301.149 C1566.49,300.383 1566.26,299.852 1565.54,299.133 C1565.09,298.727 1564.92,298.399 1564.92,298.086 C1564.92,297.008 1567.17,295.883 1569.27,295.883 C1572.29,295.883 1574.09,297.555 1574.09,300.336 C1574.09,304.352 1571.26,308.117 1568.24,308.117 C1568.1,308.117 1567.7,308.086 1567.21,308.039 C1565.9,307.946 1565.9,307.946 1565.63,307.946 C1564.63,307.946 1564.1,308.399 1564.1,309.211 C1564.1,309.93 1564.6,310.367 1565.4,310.367 C1565.63,310.367 1565.95,310.336 1566.31,310.289 C1566.93,310.149 1567.62,310.102 1568.01,310.102 C1570.13,310.102 1571.57,311.992 1571.57,314.789 C1571.57,319.649 1569.18,324.321 1563.74,324.321 C1561.23,324.321 1559.06,323.071 1559.06,321.617 C1559.06,321.133 1559.24,320.946 1559.96,320.633 C1561.26,320.055 1561.81,319.242 1561.81,318.024 C1561.81,316.446 1560.54,315.242 1558.93,315.242 C1556.99,315.242 1555.73,316.758 1555.73,319.102 C1555.73,323.477 1559.06,326.211 1564.46,326.211 C1571.26,326.211 1576.43,321.664 1576.43,315.633 C1576.43,312.133 1574.27,310.149 1571.12,309.164"/>
<path class="Tuplet" d="M2716.65,309.164 C2718.77,308.492 2719.62,308.117 2720.69,307.399 C2722.82,306.008 2724.12,303.539 2724.12,301.008 C2724.12,296.742 2720.69,293.867 2715.66,293.867 C2710.76,293.867 2706.62,296.914 2706.62,300.617 C2706.62,302.461 2707.74,303.711 2709.44,303.711 C2710.93,303.711 2712.02,302.633 2712.02,301.149 C2712.02,300.383 2711.79,299.852 2711.07,299.133 C2710.62,298.727 2710.44,298.399 2710.44,298.086 C2710.44,297.008 2712.69,295.883 2714.8,295.883 C2717.82,295.883 2719.62,297.555 2719.62,300.336 C2719.62,304.352 2716.79,308.117 2713.77,308.117 C2713.63,308.117 2713.23,308.086 2712.74,308.039 C2711.43,307.946 2711.43,307.946 2711.16,307.946 C2710.16,307.946 2709.63,308.399 2709.63,309.211 C2709.63,309.93 2710.13,310.367 2710.93,310.367 C2711.16,310.367 2711.48,310.336 2711.84,310.289 C2712.46,310.149 2713.15,310.102 2713.54,310.102 C2715.66,310.102 2717.1,311.992 2717.1,314.789 C2717.1,319.649 2714.71,324.321 2709.27,324.321 C2706.76,324.321 2704.59,323.071 2704.59,321.617 C2704.59,321.133 2704.77,320.946 2705.49,320.633 C2706.79,320.055 2707.34,319.242 2707.34,318.024 C2707.34,316.446 2706.07,315.242 2704.46,315.242 C2702.52,315.242 2701.26,316.758 2701.26,319.102 C2701.26,323.477 2704.59,326.211 2709.99,326.211 C2716.79,326.211 2721.96,321.664 2721.96,315.633 C2721.96,312.133 2719.8,310.149 2716.65,309.164"/>
<path class="Tuplet" d="M402.06,865.493 C404.185,864.821 405.029,864.446 406.107,863.727 C408.232,862.337 409.529,859.868 409.529,857.337 C409.529,853.071 406.107,850.196 401.076,850.196 C396.17,850.196 392.029,853.243 392.029,856.946 C392.029,858.79 393.154,860.04 394.857,860.04 C396.342,860.04 397.435,858.962 397.435,857.477 C397.435,856.712 397.201,856.181 396.482,855.462 C396.029,855.056 395.857,854.727 395.857,854.415 C395.857,853.337 398.107,852.212 400.217,852.212 C403.232,852.212 405.029,853.884 405.029,856.665 C405.029,860.681 402.201,864.446 399.185,864.446 C399.045,864.446 398.639,864.415 398.154,864.368 C396.842,864.274 396.842,864.274 396.576,864.274 C395.576,864.274 395.045,864.727 395.045,865.54 C395.045,866.259 395.545,866.696 396.342,866.696 C396.576,866.696 396.889,866.665 397.248,866.618 C397.873,866.477 398.56,866.431 398.951,866.431 C401.076,866.431 402.514,868.321 402.514,871.118 C402.514,875.977 400.123,880.649 394.685,880.649 C392.17,880.649 389.998,879.399 389.998,877.946 C389.998,877.462 390.185,877.274 390.904,876.962 C392.201,876.384 392.748,875.571 392.748,874.352 C392.748,872.774 391.482,871.571 389.873,871.571 C387.935,871.571 386.67,873.087 386.67,875.431 C386.67,879.806 389.998,882.54 395.404,882.54 C402.201,882.54 407.373,877.993 407.373,871.962 C407.373,868.462 405.217,866.477 402.06,865.493"/>
<path class="Tuplet" d="M2046.44,338.121 C2048.57,337.449 2049.41,337.074 2050.49,336.355 C2052.61,334.965 2053.91,332.496 2053.91,329.965 C2053.91,325.699 2050.49,322.824 2045.46,322.824 C2040.55,322.824 2036.41,325.871 2036.41,329.574 C2036.41,331.418 2037.54,332.668 2039.24,332.668 C2040.72,332.668 2041.82,331.59 2041.82,330.105 C2041.82,329.34 2041.58,328.808 2040.86,328.09 C2040.41,327.683 2040.24,327.355 2040.24,327.043 C2040.24,325.965 2042.49,324.84 2044.6,324.84 C2047.61,324.84 2049.41,326.512 2049.41,329.293 C2049.41,333.308 2046.58,337.074 2043.57,337.074 C2043.43,337.074 2043.02,337.043 2042.54,336.996 C2041.22,336.902 2041.22,336.902 2040.96,336.902 C2039.96,336.902 2039.43,337.355 2039.43,338.168 C2039.43,338.887 2039.93,339.324 2040.72,339.324 C2040.96,339.324 2041.27,339.293 2041.63,339.246 C2042.25,339.105 2042.94,339.058 2043.33,339.058 C2045.46,339.058 2046.89,340.949 2046.89,343.746 C2046.89,348.605 2044.5,353.277 2039.07,353.277 C2036.55,353.277 2034.38,352.027 2034.38,350.574 C2034.38,350.09 2034.57,349.902 2035.29,349.59 C2036.58,349.012 2037.13,348.199 2037.13,346.98 C2037.13,345.402 2035.86,344.199 2034.25,344.199 C2032.32,344.199 2031.05,345.715 2031.05,348.058 C2031.05,352.433 2034.38,355.168 2039.79,355.168 C2046.58,355.168 2051.75,350.621 2051.75,344.59 C2051.75,341.09 2049.6,339.105 2046.44,338.121"/>
<path class="Tuplet" d="M506.866,302.964 C508.991,302.292 509.835,301.917 510.913,301.198 C513.038,299.807 514.335,297.339 514.335,294.807 C514.335,290.542 510.913,287.667 505.882,287.667 C500.975,287.667 496.835,290.714 496.835,294.417 C496.835,296.26 497.96,297.51 499.663,297.51 C501.147,297.51 502.241,296.432 502.241,294.948 C502.241,294.182 502.007,293.651 501.288,292.932 C500.835,292.526 500.663,292.198 500.663,291.885 C500.663,290.807 502.913,289.682 505.022,289.682 C508.038,289.682 509.835,291.354 509.835,294.135 C509.835,298.151 507.007,301.917 503.991,301.917 C503.85,301.917 503.444,301.885 502.96,301.839 C501.647,301.745 501.647,301.745 501.382,301.745 C500.382,301.745 499.85,302.198 499.85,303.01 C499.85,303.729 500.35,304.167 501.147,304.167 C501.382,304.167 501.694,304.135 502.054,304.089 C502.679,303.948 503.366,303.901 503.757,303.901 C505.882,303.901 507.319,305.792 507.319,308.589 C507.319,313.448 504.929,318.12 499.491,318.12 C496.975,318.12 494.804,316.87 494.804,315.417 C494.804,314.932 494.991,314.745 495.71,314.432 C497.007,313.854 497.554,313.042 497.554,311.823 C497.554,310.245 496.288,309.042 494.679,309.042 C492.741,309.042 491.475,310.557 491.475,312.901 C491.475,317.276 494.804,320.01 500.21,320.01 C507.007,320.01 512.179,315.464 512.179,309.432 C512.179,305.932 510.022,303.948 506.866,302.964"/>
<path class="Tuplet" d="M2251.75,383.574 C2253.87,382.902 2254.72,382.527 2255.8,381.808 C2257.92,380.418 2259.22,377.949 2259.22,375.418 C2259.22,371.152 2255.8,368.277 2250.76,368.277 C2245.86,368.277 2241.72,371.324 2241.72,375.027 C2241.72,376.871 2242.84,378.121 2244.55,378.121 C2246.03,378.121 2247.12,377.043 2247.12,375.558 C2247.12,374.793 2246.89,374.261 2246.17,373.543 C2245.72,373.136 2245.55,372.808 2245.55,372.496 C2245.55,371.418 2247.8,370.293 2249.91,370.293 C2252.92,370.293 2254.72,371.964 2254.72,374.746 C2254.72,378.761 2251.89,382.527 2248.87,382.527 C2248.73,382.527 2248.33,382.496 2247.84,382.449 C2246.53,382.355 2246.53,382.355 2246.26,382.355 C2245.26,382.355 2244.73,382.808 2244.73,383.621 C2244.73,384.339 2245.23,384.777 2246.03,384.777 C2246.26,384.777 2246.58,384.746 2246.94,384.699 C2247.56,384.558 2248.25,384.511 2248.64,384.511 C2250.76,384.511 2252.2,386.402 2252.2,389.199 C2252.2,394.058 2249.81,398.73 2244.37,398.73 C2241.86,398.73 2239.69,397.48 2239.69,396.027 C2239.69,395.543 2239.87,395.355 2240.59,395.043 C2241.89,394.464 2242.44,393.652 2242.44,392.433 C2242.44,390.855 2241.17,389.652 2239.56,389.652 C2237.62,389.652 2236.36,391.168 2236.36,393.511 C2236.36,397.886 2239.69,400.621 2245.09,400.621 C2251.89,400.621 2257.06,396.074 2257.06,390.043 C2257.06,386.543 2254.91,384.558 2251.75,383.574"/>
<path class="Tuplet" d="M712.174,350.523 C714.299,349.851 715.142,349.476 716.221,348.757 C718.346,347.366 719.642,344.898 719.642,342.366 C719.642,338.101 716.221,335.226 711.189,335.226 C706.283,335.226 702.142,338.273 702.142,341.976 C702.142,343.819 703.267,345.069 704.971,345.069 C706.455,345.069 707.549,343.991 707.549,342.507 C707.549,341.741 707.314,341.21 706.596,340.491 C706.142,340.085 705.971,339.757 705.971,339.444 C705.971,338.366 708.221,337.241 710.33,337.241 C713.346,337.241 715.142,338.913 715.142,341.694 C715.142,345.71 712.314,349.476 709.299,349.476 C709.158,349.476 708.752,349.444 708.267,349.398 C706.955,349.304 706.955,349.304 706.689,349.304 C705.689,349.304 705.158,349.757 705.158,350.569 C705.158,351.288 705.658,351.726 706.455,351.726 C706.689,351.726 707.002,351.694 707.361,351.648 C707.986,351.507 708.674,351.46 709.064,351.46 C711.189,351.46 712.627,353.351 712.627,356.148 C712.627,361.007 710.236,365.679 704.799,365.679 C702.283,365.679 700.111,364.429 700.111,362.976 C700.111,362.491 700.299,362.304 701.017,361.991 C702.314,361.413 702.861,360.601 702.861,359.382 C702.861,357.804 701.596,356.601 699.986,356.601 C698.049,356.601 696.783,358.116 696.783,360.46 C696.783,364.835 700.111,367.569 705.517,367.569 C712.314,367.569 717.486,363.023 717.486,356.991 C717.486,353.491 715.33,351.507 712.174,350.523"/>
<path class="Tuplet" d="M1838.87,302.964 C1841,302.292 1841.84,301.917 1842.92,301.198 C1845.04,299.807 1846.34,297.339 1846.34,294.807 C1846.34,290.542 1842.92,287.667 1837.89,287.667 C1832.98,287.667 1828.84,290.714 1828.84,294.417 C1828.84,296.26 1829.97,297.51 1831.67,297.51 C1833.15,297.51 1834.25,296.432 1834.25,294.948 C1834.25,294.182 1834.01,293.651 1833.29,292.932 C1832.84,292.526 1832.67,292.198 1832.67,291.885 C1832.67,290.807 1834.92,289.682 1837.03,289.682 C1840.04,289.682 1841.84,291.354 1841.84,294.135 C1841.84,298.151 1839.01,301.917 1836,301.917 C1835.86,301.917 1835.45,301.885 1834.97,301.839 C1833.65,301.745 1833.65,301.745 1833.39,301.745 C1832.39,301.745 1831.86,302.198 1831.86,303.01 C1831.86,303.729 1832.36,304.167 1833.15,304.167 C1833.39,304.167 1833.7,304.135 1834.06,304.089 C1834.68,303.948 1835.37,303.901 1835.76,303.901 C1837.89,303.901 1839.33,305.792 1839.33,308.589 C1839.33,313.448 1836.93,318.12 1831.5,318.12 C1828.98,318.12 1826.81,316.87 1826.81,315.417 C1826.81,314.932 1827,314.745 1827.72,314.432 C1829.01,313.854 1829.56,313.042 1829.56,311.823 C1829.56,310.245 1828.29,309.042 1826.68,309.042 C1824.75,309.042 1823.48,310.557 1823.48,312.901 C1823.48,317.276 1826.81,320.01 1832.22,320.01 C1839.01,320.01 1844.18,315.464 1844.18,309.432 C1844.18,305.932 1842.03,303.948 1838.87,302.964"/>
<path class="Tuplet" d="M2921.96,315.365 C2924.08,314.693 2924.92,314.318 2926,313.6 C2928.13,312.209 2929.42,309.74 2929.42,307.209 C2929.42,302.943 2926,300.068 2920.97,300.068 C2916.06,300.068 2911.92,303.115 2911.92,306.818 C2911.92,308.662 2913.05,309.912 2914.75,309.912 C2916.24,309.912 2917.33,308.834 2917.33,307.35 C2917.33,306.584 2917.1,306.053 2916.38,305.334 C2915.92,304.928 2915.75,304.6 2915.75,304.287 C2915.75,303.209 2918,302.084 2920.11,302.084 C2923.13,302.084 2924.92,303.756 2924.92,306.537 C2924.92,310.553 2922.1,314.318 2919.08,314.318 C2918.94,314.318 2918.53,314.287 2918.05,314.24 C2916.74,314.146 2916.74,314.146 2916.47,314.146 C2915.47,314.146 2914.94,314.6 2914.94,315.412 C2914.94,316.131 2915.44,316.568 2916.24,316.568 C2916.47,316.568 2916.78,316.537 2917.14,316.49 C2917.77,316.35 2918.46,316.303 2918.85,316.303 C2920.97,316.303 2922.41,318.193 2922.41,320.99 C2922.41,325.85 2920.02,330.521 2914.58,330.521 C2912.06,330.521 2909.89,329.271 2909.89,327.818 C2909.89,327.334 2910.08,327.146 2910.8,326.834 C2912.1,326.256 2912.64,325.443 2912.64,324.225 C2912.64,322.646 2911.38,321.443 2909.77,321.443 C2907.83,321.443 2906.56,322.959 2906.56,325.303 C2906.56,329.678 2909.89,332.412 2915.3,332.412 C2922.1,332.412 2927.27,327.865 2927.27,321.834 C2927.27,318.334 2925.11,316.35 2921.96,315.365"/>
<path class="Tuplet" d="M2510.67,387.726 C2512.79,387.054 2513.64,386.679 2514.71,385.961 C2516.84,384.57 2518.14,382.101 2518.14,379.57 C2518.14,375.304 2514.71,372.429 2509.68,372.429 C2504.78,372.429 2500.64,375.476 2500.64,379.179 C2500.64,381.023 2501.76,382.273 2503.46,382.273 C2504.95,382.273 2506.04,381.195 2506.04,379.711 C2506.04,378.945 2505.81,378.414 2505.09,377.695 C2504.64,377.289 2504.46,376.961 2504.46,376.648 C2504.46,375.57 2506.71,374.445 2508.82,374.445 C2511.84,374.445 2513.64,376.117 2513.64,378.898 C2513.64,382.914 2510.81,386.679 2507.79,386.679 C2507.65,386.679 2507.25,386.648 2506.76,386.601 C2505.45,386.507 2505.45,386.507 2505.18,386.507 C2504.18,386.507 2503.65,386.961 2503.65,387.773 C2503.65,388.492 2504.15,388.929 2504.95,388.929 C2505.18,388.929 2505.5,388.898 2505.85,388.851 C2506.48,388.711 2507.17,388.664 2507.56,388.664 C2509.68,388.664 2511.12,390.554 2511.12,393.351 C2511.12,398.211 2508.73,402.882 2503.29,402.882 C2500.78,402.882 2498.6,401.632 2498.6,400.179 C2498.6,399.695 2498.79,399.507 2499.51,399.195 C2500.81,398.617 2501.35,397.804 2501.35,396.586 C2501.35,395.007 2500.09,393.804 2498.48,393.804 C2496.54,393.804 2495.28,395.32 2495.28,397.664 C2495.28,402.039 2498.6,404.773 2504.01,404.773 C2510.81,404.773 2515.98,400.226 2515.98,394.195 C2515.98,390.695 2513.82,388.711 2510.67,387.726"/>
<path class="Tuplet" d="M1365.81,306.064 C1367.94,305.392 1368.78,305.017 1369.86,304.298 C1371.98,302.908 1373.28,300.439 1373.28,297.908 C1373.28,293.642 1369.86,290.767 1364.83,290.767 C1359.92,290.767 1355.78,293.814 1355.78,297.517 C1355.78,299.361 1356.9,300.611 1358.61,300.611 C1360.09,300.611 1361.19,299.533 1361.19,298.048 C1361.19,297.283 1360.95,296.751 1360.23,296.033 C1359.78,295.626 1359.61,295.298 1359.61,294.986 C1359.61,293.908 1361.86,292.783 1363.97,292.783 C1366.98,292.783 1368.78,294.455 1368.78,297.236 C1368.78,301.251 1365.95,305.017 1362.94,305.017 C1362.79,305.017 1362.39,304.986 1361.9,304.939 C1360.59,304.845 1360.59,304.845 1360.33,304.845 C1359.33,304.845 1358.79,305.298 1358.79,306.111 C1358.79,306.83 1359.29,307.267 1360.09,307.267 C1360.33,307.267 1360.64,307.236 1361,307.189 C1361.62,307.048 1362.31,307.001 1362.7,307.001 C1364.83,307.001 1366.26,308.892 1366.26,311.689 C1366.26,316.548 1363.87,321.22 1358.44,321.22 C1355.92,321.22 1353.75,319.97 1353.75,318.517 C1353.75,318.033 1353.94,317.845 1354.65,317.533 C1355.95,316.955 1356.5,316.142 1356.5,314.923 C1356.5,313.345 1355.23,312.142 1353.62,312.142 C1351.69,312.142 1350.42,313.658 1350.42,316.001 C1350.42,320.376 1353.75,323.111 1359.15,323.111 C1365.95,323.111 1371.12,318.564 1371.12,312.533 C1371.12,309.033 1368.97,307.048 1365.81,306.064"/>
<path class="Tuplet" d="M1160.5,375.326 C1162.63,374.654 1163.47,374.279 1164.55,373.56 C1166.67,372.169 1167.97,369.701 1167.97,367.169 C1167.97,362.904 1164.55,360.029 1159.52,360.029 C1154.61,360.029 1150.47,363.076 1150.47,366.779 C1150.47,368.623 1151.6,369.873 1153.3,369.873 C1154.78,369.873 1155.88,368.794 1155.88,367.31 C1155.88,366.544 1155.64,366.013 1154.92,365.294 C1154.47,364.888 1154.3,364.56 1154.3,364.248 C1154.3,363.169 1156.55,362.044 1158.66,362.044 C1161.67,362.044 1163.47,363.716 1163.47,366.498 C1163.47,370.513 1160.64,374.279 1157.63,374.279 C1157.49,374.279 1157.08,374.248 1156.6,374.201 C1155.28,374.107 1155.28,374.107 1155.02,374.107 C1154.02,374.107 1153.49,374.56 1153.49,375.373 C1153.49,376.091 1153.99,376.529 1154.78,376.529 C1155.02,376.529 1155.33,376.498 1155.69,376.451 C1156.32,376.31 1157,376.263 1157.39,376.263 C1159.52,376.263 1160.96,378.154 1160.96,380.951 C1160.96,385.81 1158.57,390.482 1153.13,390.482 C1150.61,390.482 1148.44,389.232 1148.44,387.779 C1148.44,387.294 1148.63,387.107 1149.35,386.794 C1150.64,386.216 1151.19,385.404 1151.19,384.185 C1151.19,382.607 1149.92,381.404 1148.32,381.404 C1146.38,381.404 1145.11,382.919 1145.11,385.263 C1145.11,389.638 1148.44,392.373 1153.85,392.373 C1160.64,392.373 1165.82,387.826 1165.82,381.794 C1165.82,378.294 1163.66,376.31 1160.5,375.326"/>
</svg>
