<?xml version="1.0" encoding="UTF-8" standalone="no"?>
<svg width="3060px" height="720px" viewBox="0 0 3060 720"
 xmlns="http://www.w3.org/2000/svg" xmlns:xlink="http://www.w3.org/1999/xlink" version="1.2" baseProfile="tiny">
<title>target</title>
<desc>Generated by MuseScore Studio 4.3.0</desc>
<polyline class="StaffLines" fill="none" stroke="#000000" stroke-width="2.73" stroke-linejoin="bevel" points="155.803,173.622 3060,173.622"/>
<polyline class="StaffLines" fill="none" stroke="#000000" stroke-width="2.73" stroke-linejoin="bevel" points="155.803,198.425 3060,198.425"/>
<polyline class="StaffLines" fill="none" stroke="#000000" stroke-width="2.73" stroke-linejoin="bevel" points="155.803,223.228 3060,223.228"/>
<polyline class="StaffLines" fill="none" stroke="#000000" stroke-width="2.73" stroke-linejoin="bevel" points="155.803,248.031 3060,248.031"/>
<polyline class="StaffLines" fill="none" stroke="#000000" stroke-width="2.73" stroke-linejoin="bevel" points="155.803,272.835 3060,272.835"/>
<polyline class="StaffLines" fill="none" stroke="#000000" stroke-width="2.73" stroke-linejoin="bevel" points="155.803,487.426 3060,487.426"/>
<polyline class="StaffLines" fill="none" stroke="#000000" stroke-width="2.73" stroke-linejoin="bevel" points="155.803,512.229 3060,512.229"/>
<polyline class="StaffLines" fill="none" stroke="#000000" stroke-width="2.73" stroke-linejoin="bevel" points="155.803,537.032 3060,537.032"/>
<polyline class="StaffLines" fill="none" stroke="#000000" stroke-width="2.73" stroke-linejoin="bevel" points="155.803,561.835 3060,561.835"/>
<polyline class="StaffLines" fill="none" stroke="#000000" stroke-width="2.73" stroke-linejoin="bevel" points="155.803,586.638 3060,586.638"/>
<path class="InstrumentName" d="M11.4063,224.681 L17.0469,224.681 C21.5469,224.681 23.9063,224.322 25.9531,223.385 C29.4531,221.681 31.4531,218.478 31.4531,214.525 C31.4531,206.572 24.4531,204.619 17.9063,204.619 L0.40625,204.619 L0.40625,206.978 L1.29688,206.978 C4.15625,207.025 5.09375,207.181 5.5,207.681 C5.79688,208.119 5.79688,208.228 5.79688,210.775 L5.79688,234.572 C5.79688,237.135 5.79688,237.228 5.5,237.681 C5.09375,238.181 4.15625,238.385 1.29688,238.385 L0.40625,238.385 L0.40625,240.728 L17.2031,240.728 L17.2031,238.385 L15.9063,238.385 C13.0469,238.385 12.0938,238.181 11.7031,237.681 C11.4063,237.228 11.4063,237.135 11.4063,234.572 L11.4063,224.681 M11.4063,222.322 L11.4063,209.525 C11.4063,207.228 11.6563,206.978 14.4531,206.978 L17.6563,206.978 C22.8438,206.978 25.2969,209.431 25.2969,214.728 C25.2969,219.885 22.75,222.322 17.4531,222.322 L11.4063,222.322 M40.9531,204.978 C39.3438,204.978 38.0469,206.275 38.0469,207.869 C38.0469,209.478 39.3438,210.775 40.9063,210.775 C42.5469,210.775 43.8438,209.478 43.8438,207.869 C43.8438,206.275 42.5469,204.978 40.9531,204.978 M43.2969,217.431 L33.9063,217.978 L33.9063,220.135 L36.4531,220.135 C38.3438,220.181 38.5938,220.478 38.5938,222.635 L38.5938,236.931 C38.5469,237.681 38.5,237.978 38.2969,238.228 C37.9531,238.681 37,238.885 34.8438,238.931 L34.5,238.931 L34.5,240.728 L47.4531,240.728 L47.4531,238.931 L47.0938,238.931 C43.75,238.822 43.2969,238.572 43.2969,236.775 L43.2969,217.431 M71.5938,224.635 C71.5938,221.478 71.0469,219.885 69.5938,218.681 C67.9531,217.322 65.5,216.681 62.2969,216.681 C56.6563,216.681 52.5469,219.322 52.5469,222.978 C52.5469,224.822 53.7031,226.025 55.4531,226.025 C57.0469,226.025 58.1563,224.978 58.1563,223.478 C58.1563,222.822 57.9063,222.135 57.4063,221.431 C57.0938,221.072 57.0469,220.978 57.0469,220.728 C57.0469,219.728 59.0469,218.822 61.4531,218.822 C63.0469,218.822 64.7969,219.322 65.5938,220.072 C66.5469,220.885 66.9063,222.072 66.9063,224.322 L66.9063,226.275 C61.7031,227.181 60.0469,227.572 57.5938,228.525 C53.25,230.135 51.2031,232.431 51.2031,235.635 C51.2031,239.228 54,241.478 58.4531,241.478 C61.9063,241.478 65,240.072 67.1563,237.525 C67.9531,240.072 69.2031,241.072 71.5469,241.072 C73.7969,241.072 76.1563,239.635 76.1563,238.181 C76.1563,237.822 75.9531,237.572 75.6563,237.572 C75.4531,237.572 75.25,237.635 74.9063,237.775 C74.2031,238.072 73.9063,238.135 73.5,238.135 C72.0938,238.135 71.5938,237.228 71.5938,234.681 L71.5938,224.635 M66.9063,230.728 C66.9063,233.728 66.75,234.431 65.9063,235.728 C64.6563,237.572 62.4063,238.822 60.2031,238.822 C57.9063,238.822 56.25,237.181 56.25,234.931 C56.25,232.822 57.2969,231.322 59.5,230.275 C61.0469,229.572 63,229.072 66.9063,228.431 L66.9063,230.728 M87,217.431 L78.3438,217.978 L78.3438,220.135 L80.1563,220.135 C82.0469,220.181 82.2969,220.478 82.2969,222.635 L82.2969,236.931 C82.25,237.681 82.2031,237.978 82,238.228 C81.6563,238.681 80.7031,238.885 78.5469,238.931 L78.3438,238.931 L78.3438,240.728 L91,240.728 L91,238.931 L90.7969,238.931 C87.4531,238.822 87,238.572 87,236.775 L87,229.385 C87,226.931 87.3438,224.681 87.9063,223.525 C88.9531,221.275 91.2031,219.728 93.3438,219.728 C94.6563,219.728 96.1563,220.431 96.9063,221.478 C97.6563,222.572 98,224.072 98,226.478 L98,236.931 C97.9531,237.681 97.9063,237.978 97.7031,238.228 C97.3438,238.681 96.3438,238.885 94.2031,238.931 L94,238.931 L94,240.728 L106.656,240.728 L106.656,238.931 L106.453,238.931 C103.156,238.822 102.703,238.572 102.703,236.775 L102.703,226.728 C102.703,223.135 102.547,222.228 101.656,220.525 C100.406,218.135 97.9063,216.681 94.9063,216.681 C91.6563,216.681 89.2031,218.181 87,221.478 L87,217.431 M120.594,216.681 C114.453,216.681 109.703,222.135 109.703,229.135 C109.703,235.978 114.5,241.478 120.5,241.478 C126.5,241.478 131.297,235.978 131.297,229.072 C131.297,222.228 126.5,216.681 120.594,216.681 M120.594,218.822 C124.094,218.822 126.047,222.478 126.047,229.072 C126.047,235.728 124.094,239.322 120.5,239.322 C116.906,239.322 114.953,235.728 114.953,229.135 C114.953,222.322 116.844,218.822 120.594,218.822"/>
<path class="InstrumentName" d="M11.4063,538.485 L17.0469,538.485 C21.5469,538.485 23.9063,538.126 25.9531,537.188 C29.4531,535.485 31.4531,532.282 31.4531,528.329 C31.4531,520.376 24.4531,518.422 17.9063,518.422 L0.40625,518.422 L0.40625,520.782 L1.29688,520.782 C4.15625,520.829 5.09375,520.985 5.5,521.485 C5.79688,521.922 5.79688,522.032 5.79688,524.579 L5.79688,548.376 C5.79688,550.938 5.79688,551.032 5.5,551.485 C5.09375,551.985 4.15625,552.188 1.29688,552.188 L0.40625,552.188 L0.40625,554.532 L17.2031,554.532 L17.2031,552.188 L15.9063,552.188 C13.0469,552.188 12.0938,551.985 11.7031,551.485 C11.4063,551.032 11.4063,550.938 11.4063,548.376 L11.4063,538.485 M11.4063,536.126 L11.4063,523.329 C11.4063,521.032 11.6563,520.782 14.4531,520.782 L17.6563,520.782 C22.8438,520.782 25.2969,523.235 25.2969,528.532 C25.2969,533.688 22.75,536.126 17.4531,536.126 L11.4063,536.126 M40.9531,518.782 C39.3438,518.782 38.0469,520.079 38.0469,521.672 C38.0469,523.282 39.3438,524.579 40.9063,524.579 C42.5469,524.579 43.8438,523.282 43.8438,521.672 C43.8438,520.079 42.5469,518.782 40.9531,518.782 M43.2969,531.235 L33.9063,531.782 L33.9063,533.938 L36.4531,533.938 C38.3438,533.985 38.5938,534.282 38.5938,536.438 L38.5938,550.735 C38.5469,551.485 38.5,551.782 38.2969,552.032 C37.9531,552.485 37,552.688 34.8438,552.735 L34.5,552.735 L34.5,554.532 L47.4531,554.532 L47.4531,552.735 L47.0938,552.735 C43.75,552.626 43.2969,552.376 43.2969,550.579 L43.2969,531.235 M71.5938,538.438 C71.5938,535.282 71.0469,533.688 69.5938,532.485 C67.9531,531.126 65.5,530.485 62.2969,530.485 C56.6563,530.485 52.5469,533.126 52.5469,536.782 C52.5469,538.626 53.7031,539.829 55.4531,539.829 C57.0469,539.829 58.1563,538.782 58.1563,537.282 C58.1563,536.626 57.9063,535.938 57.4063,535.235 C57.0938,534.876 57.0469,534.782 57.0469,534.532 C57.0469,533.532 59.0469,532.626 61.4531,532.626 C63.0469,532.626 64.7969,533.126 65.5938,533.876 C66.5469,534.688 66.9063,535.876 66.9063,538.126 L66.9063,540.079 C61.7031,540.985 60.0469,541.376 57.5938,542.329 C53.25,543.938 51.2031,546.235 51.2031,549.438 C51.2031,553.032 54,555.282 58.4531,555.282 C61.9063,555.282 65,553.876 67.1563,551.329 C67.9531,553.876 69.2031,554.876 71.5469,554.876 C73.7969,554.876 76.1563,553.438 76.1563,551.985 C76.1563,551.626 75.9531,551.376 75.6563,551.376 C75.4531,551.376 75.25,551.438 74.9063,551.579 C74.2031,551.876 73.9063,551.938 73.5,551.938 C72.0938,551.938 71.5938,551.032 71.5938,548.485 L71.5938,538.438 M66.9063,544.532 C66.9063,547.532 66.75,548.235 65.9063,549.532 C64.6563,551.376 62.4063,552.626 60.2031,552.626 C57.9063,552.626 56.25,550.985 56.25,548.735 C56.25,546.626 57.2969,545.126 59.5,544.079 C61.0469,543.376 63,542.876 66.9063,542.235 L66.9063,544.532 M87,531.235 L78.3438,531.782 L78.3438,533.938 L80.1563,533.938 C82.0469,533.985 82.2969,534.282 82.2969,536.438 L82.2969,550.735 C82.25,551.485 82.2031,551.782 82,552.032 C81.6563,552.485 80.7031,552.688 78.5469,552.735 L78.3438,552.735 L78.3438,554.532 L91,554.532 L91,552.735 L90.7969,552.735 C87.4531,552.626 87,552.376 87,550.579 L87,543.188 C87,540.735 87.3438,538.485 87.9063,537.329 C88.9531,535.079 91.2031,533.532 93.3438,533.532 C94.6563,533.532 96.1563,534.235 96.9063,535.282 C97.6563,536.376 98,537.876 98,540.282 L98,550.735 C97.9531,551.485 97.9063,551.782 97.7031,552.032 C97.3438,552.485 96.3438,552.688 94.2031,552.735 L94,552.735 L94,554.532 L106.656,554.532 L106.656,552.735 L106.453,552.735 C103.156,552.626 102.703,552.376 102.703,550.579 L102.703,540.532 C102.703,536.938 102.547,536.032 101.656,534.329 C100.406,531.938 97.9063,530.485 94.9063,530.485 C91.6563,530.485 89.2031,531.985 87,535.282 L87,531.235 M120.594,530.485 C114.453,530.485 109.703,535.938 109.703,542.938 C109.703,549.782 114.5,555.282 120.5,555.282 C126.5,555.282 131.297,549.782 131.297,542.876 C131.297,536.032 126.5,530.485 120.594,530.485 M120.594,532.626 C124.094,532.626 126.047,536.282 126.047,542.876 C126.047,549.532 124.094,553.126 120.5,553.126 C116.906,553.126 114.953,549.532 114.953,542.938 C114.953,536.126 116.844,532.626 120.594,532.626"/>
<polyline class="BarLine" fill="none" stroke="#000000" stroke-width="4.46" stroke-linejoin="bevel" points="158.035,172.258 158.035,487.426"/>
<polyline class="BarLine" fill="none" stroke="#000000" stroke-width="4.46" stroke-linejoin="bevel" points="3057.77,172.258 3057.77,274.199"/>
<polyline class="BarLine" fill="none" stroke="#000000" stroke-width="4.46" stroke-linejoin="bevel" points="902.076,172.258 902.076,274.199"/>
<polyline class="BarLine" fill="none" stroke="#000000" stroke-width="4.46" stroke-linejoin="bevel" points="1419.63,172.258 1419.63,274.199"/>
<polyline class="BarLine" fill="none" stroke="#000000" stroke-width="4.46" stroke-linejoin="bevel" points="2527.77,172.258 2527.77,274.199"/>
<polyline class="BarLine" fill="none" stroke="#000000" stroke-width="4.46" stroke-linejoin="bevel" points="2010.22,172.258 2010.22,274.199"/>
<polyline class="BarLine" fill="none" stroke="#000000" stroke-width="4.46" stroke-linejoin="bevel" points="158.035,486.061 158.035,588.002"/>
<polyline class="BarLine" fill="none" stroke="#000000" stroke-width="4.46" stroke-linejoin="bevel" points="3057.77,486.061 3057.77,588.002"/>
<polyline class="BarLine" fill="none" stroke="#000000" stroke-width="4.46" stroke-linejoin="bevel" points="2010.22,486.061 2010.22,588.002"/>
<polyline class="BarLine" fill="none" stroke="#000000" stroke-width="4.46" stroke-linejoin="bevel" points="2527.77,486.061 2527.77,588.002"/>
<polyline class="BarLine" fill="none" stroke="#000000" stroke-width="4.46" stroke-linejoin="bevel" points="902.076,486.061 902.076,588.002"/>
<polyline class="BarLine" fill="none" stroke="#000000" stroke-width="4.46" stroke-linejoin="bevel" points="1419.63,486.061 1419.63,588.002"/>
<path class="Accidental" transform="matrix(0.992126,0,0,0.992126,1743.07,248.031)" d="M12,-15.5 C7,-15.5 4.09375,-12.4063 3.59375,-11.7969 L4,-43.9063 C4,-44.7031 3.40625,-45.2969 2.59375,-45.2969 L1.40625,-45.2969 C0.59375,-45.2969 0,-44.7031 0,-43.9063 L0.5,16.2031 C0.5,17 1.09375,17.5938 1.90625,17.5938 C2.09375,17.5938 2.5,17.5 2.70313,17.4063 C11.2969,13.0938 20.2969,4.90625 20.2969,-5.40625 C20.2969,-10.5938 17.9063,-15.5 12,-15.5 M3.29688,12.7031 L3.59375,-6.79688 C3.79688,-7.70313 5.29688,-10.5938 9.29688,-10.5938 C12.9063,-10.5938 13.2031,-7.20313 13.2031,-5.09375 C13.2031,3.79688 9.90625,7.5 3.29688,12.7031"/>
<path class="Accidental" transform="matrix(0.992126,0,0,0.992126,1437.98,111.614)" d="M12,-15.5 C7,-15.5 4.09375,-12.4063 3.59375,-11.7969 L4,-43.9063 C4,-44.7031 3.40625,-45.2969 2.59375,-45.2969 L1.40625,-45.2969 C0.59375,-45.2969 0,-44.7031 0,-43.9063 L0.5,16.2031 C0.5,17 1.09375,17.5938 1.90625,17.5938 C2.09375,17.5938 2.5,17.5 2.70313,17.4063 C11.2969,13.0938 20.2969,4.90625 20.2969,-5.40625 C20.2969,-10.5938 17.9063,-15.5 12,-15.5 M3.29688,12.7031 L3.59375,-6.79688 C3.79688,-7.70313 5.29688,-10.5938 9.29688,-10.5938 C12.9063,-10.5938 13.2031,-7.20313 13.2031,-5.09375 C13.2031,3.79688 9.90625,7.5 3.29688,12.7031"/>
<path class="Accidental" transform="matrix(0.992126,0,0,0.992126,498.414,186.024)" d="M12,-15.5 C7,-15.5 4.09375,-12.4063 3.59375,-11.7969 L4,-43.9063 C4,-44.7031 3.40625,-45.2969 2.59375,-45.2969 L1.40625,-45.2969 C0.59375,-45.2969 0,-44.7031 0,-43.9063 L0.5,16.2031 C0.5,17 1.09375,17.5938 1.90625,17.5938 C2.09375,17.5938 2.5,17.5 2.70313,17.4063 C11.2969,13.0938 20.2969,4.90625 20.2969,-5.40625 C20.2969,-10.5938 17.9063,-15.5 12,-15.5 M3.29688,12.7031 L3.59375,-6.79688 C3.79688,-7.70313 5.29688,-10.5938 9.29688,-10.5938 C12.9063,-10.5938 13.2031,-7.20313 13.2031,-5.09375 C13.2031,3.79688 9.90625,7.5 3.29688,12.7031"/>
<path class="Accidental" transform="matrix(0.992126,0,0,0.992126,1861.27,198.425)" d="M12,-15.5 C7,-15.5 4.09375,-12.4063 3.59375,-11.7969 L4,-43.9063 C4,-44.7031 3.40625,-45.2969 2.59375,-45.2969 L1.40625,-45.2969 C0.59375,-45.2969 0,-44.7031 0,-43.9063 L0.5,16.2031 C0.5,17 1.09375,17.5938 1.90625,17.5938 C2.09375,17.5938 2.5,17.5 2.70313,17.4063 C11.2969,13.0938 20.2969,4.90625 20.2969,-5.40625 C20.2969,-10.5938 17.9063,-15.5 12,-15.5 M3.29688,12.7031 L3.59375,-6.79688 C3.79688,-7.70313 5.29688,-10.5938 9.29688,-10.5938 C12.9063,-10.5938 13.2031,-7.20313 13.2031,-5.09375 C13.2031,3.79688 9.90625,7.5 3.29688,12.7031"/>
<path class="Accidental" transform="matrix(0.992126,0,0,0.992126,1573.93,161.22)" d="M12,-15.5 C7,-15.5 4.09375,-12.4063 3.59375,-11.7969 L4,-43.9063 C4,-44.7031 3.40625,-45.2969 2.59375,-45.2969 L1.40625,-45.2969 C0.59375,-45.2969 0,-44.7031 0,-43.9063 L0.5,16.2031 C0.5,17 1.09375,17.5938 1.90625,17.5938 C2.09375,17.5938 2.5,17.5 2.70313,17.4063 C11.2969,13.0938 20.2969,4.90625 20.2969,-5.40625 C20.2969,-10.5938 17.9063,-15.5 12,-15.5 M3.29688,12.7031 L3.59375,-6.79688 C3.79688,-7.70313 5.29688,-10.5938 9.29688,-10.5938 C12.9063,-10.5938 13.2031,-7.20313 13.2031,-5.09375 C13.2031,3.79688 9.90625,7.5 3.29688,12.7031"/>
<path class="Accidental" transform="matrix(0.992126,0,0,0.992126,2654.11,186.024)" d="M12,-15.5 C7,-15.5 4.09375,-12.4063 3.59375,-11.7969 L4,-43.9063 C4,-44.7031 3.40625,-45.2969 2.59375,-45.2969 L1.40625,-45.2969 C0.59375,-45.2969 0,-44.7031 0,-43.9063 L0.5,16.2031 C0.5,17 1.09375,17.5938 1.90625,17.5938 C2.09375,17.5938 2.5,17.5 2.70313,17.4063 C11.2969,13.0938 20.2969,4.90625 20.2969,-5.40625 C20.2969,-10.5938 17.9063,-15.5 12,-15.5 M3.29688,12.7031 L3.59375,-6.79688 C3.79688,-7.70313 5.29688,-10.5938 9.29688,-10.5938 C12.9063,-10.5938 13.2031,-7.20313 13.2031,-5.09375 C13.2031,3.79688 9.90625,7.5 3.29688,12.7031"/>
<path class="Accidental" transform="matrix(0.992126,0,0,0.992126,1810.33,285.236)" d="M12,-15.5 C7,-15.5 4.09375,-12.4063 3.59375,-11.7969 L4,-43.9063 C4,-44.7031 3.40625,-45.2969 2.59375,-45.2969 L1.40625,-45.2969 C0.59375,-45.2969 0,-44.7031 0,-43.9063 L0.5,16.2031 C0.5,17 1.09375,17.5938 1.90625,17.5938 C2.09375,17.5938 2.5,17.5 2.70313,17.4063 C11.2969,13.0938 20.2969,4.90625 20.2969,-5.40625 C20.2969,-10.5938 17.9063,-15.5 12,-15.5 M3.29688,12.7031 L3.59375,-6.79688 C3.79688,-7.70313 5.29688,-10.5938 9.29688,-10.5938 C12.9063,-10.5938 13.2031,-7.20313 13.2031,-5.09375 C13.2031,3.79688 9.90625,7.5 3.29688,12.7031"/>
<path class="Accidental" transform="matrix(0.992126,0,0,0.992126,2849.69,437.819)" d="M12,-15.5 C7,-15.5 4.09375,-12.4063 3.59375,-11.7969 L4,-43.9063 C4,-44.7031 3.40625,-45.2969 2.59375,-45.2969 L1.40625,-45.2969 C0.59375,-45.2969 0,-44.7031 0,-43.9063 L0.5,16.2031 C0.5,17 1.09375,17.5938 1.90625,17.5938 C2.09375,17.5938 2.5,17.5 2.70313,17.4063 C11.2969,13.0938 20.2969,4.90625 20.2969,-5.40625 C20.2969,-10.5938 17.9063,-15.5 12,-15.5 M3.29688,12.7031 L3.59375,-6.79688 C3.79688,-7.70313 5.29688,-10.5938 9.29688,-10.5938 C12.9063,-10.5938 13.2031,-7.20313 13.2031,-5.09375 C13.2031,3.79688 9.90625,7.5 3.29688,12.7031"/>
<path class="Accidental" transform="matrix(0.992126,0,0,0.992126,693.996,437.819)" d="M12,-15.5 C7,-15.5 4.09375,-12.4063 3.59375,-11.7969 L4,-43.9063 C4,-44.7031 3.40625,-45.2969 2.59375,-45.2969 L1.40625,-45.2969 C0.59375,-45.2969 0,-44.7031 0,-43.9063 L0.5,16.2031 C0.5,17 1.09375,17.5938 1.90625,17.5938 C2.09375,17.5938 2.5,17.5 2.70313,17.4063 C11.2969,13.0938 20.2969,4.90625 20.2969,-5.40625 C20.2969,-10.5938 17.9063,-15.5 12,-15.5 M3.29688,12.7031 L3.59375,-6.79688 C3.79688,-7.70313 5.29688,-10.5938 9.29688,-10.5938 C12.9063,-10.5938 13.2031,-7.20313 13.2031,-5.09375 C13.2031,3.79688 9.90625,7.5 3.29688,12.7031"/>
<path class="Accidental" transform="matrix(0.992126,0,0,0.992126,1802.14,450.221)" d="M12,-15.5 C7,-15.5 4.09375,-12.4063 3.59375,-11.7969 L4,-43.9063 C4,-44.7031 3.40625,-45.2969 2.59375,-45.2969 L1.40625,-45.2969 C0.59375,-45.2969 0,-44.7031 0,-43.9063 L0.5,16.2031 C0.5,17 1.09375,17.5938 1.90625,17.5938 C2.09375,17.5938 2.5,17.5 2.70313,17.4063 C11.2969,13.0938 20.2969,4.90625 20.2969,-5.40625 C20.2969,-10.5938 17.9063,-15.5 12,-15.5 M3.29688,12.7031 L3.59375,-6.79688 C3.79688,-7.70313 5.29688,-10.5938 9.29688,-10.5938 C12.9063,-10.5938 13.2031,-7.20313 13.2031,-5.09375 C13.2031,3.79688 9.90625,7.5 3.29688,12.7031"/>
<path class="Accidental" transform="matrix(0.992126,0,0,0.992126,2322.87,499.827)" d="M16.5938,-18.2969 C16.4063,-18.5 16.0938,-18.5938 15.7031,-18.5938 L15.5,-18.5 C15.5,-18.5 15.4063,-18.5 15.4063,-18.5 L2.79688,-15 L2.79688,-32.5 L0,-32.5 L0,17 C0,18.0938 0.90625,18.2969 1.79688,18.2969 L14.4063,14.7969 L14.4063,32.2969 L17.0938,32.2969 C17.0938,15.7031 17.0938,-0.09375 17.0938,-17.2031 C17.0938,-17.5938 16.9063,-18.0938 16.5938,-18.2969 M2.79688,9.70313 L2.79688,-6.70313 L14.4063,-10 L14.4063,6.5 L2.79688,9.70313 "/>
<path class="Accidental" transform="matrix(0.992126,0,0,0.992126,1789.98,499.827)" d="M12,-15.5 C7,-15.5 4.09375,-12.4063 3.59375,-11.7969 L4,-43.9063 C4,-44.7031 3.40625,-45.2969 2.59375,-45.2969 L1.40625,-45.2969 C0.59375,-45.2969 0,-44.7031 0,-43.9063 L0.5,16.2031 C0.5,17 1.09375,17.5938 1.90625,17.5938 C2.09375,17.5938 2.5,17.5 2.70313,17.4063 C11.2969,13.0938 20.2969,4.90625 20.2969,-5.40625 C20.2969,-10.5938 17.9063,-15.5 12,-15.5 M3.29688,12.7031 L3.59375,-6.79688 C3.79688,-7.70313 5.29688,-10.5938 9.29688,-10.5938 C12.9063,-10.5938 13.2031,-7.20313 13.2031,-5.09375 C13.2031,3.79688 9.90625,7.5 3.29688,12.7031"/>
<polyline class="LedgerLine" fill="none" stroke="#000000" stroke-width="3.97" stroke-linejoin="bevel" points="1519.12,148.819 1567.73,148.819"/>
<polyline class="LedgerLine" fill="none" stroke="#000000" stroke-width="3.97" stroke-linejoin="bevel" points="1183.08,148.819 1231.68,148.819"/>
<polyline class="LedgerLine" fill="none" stroke="#000000" stroke-width="3.97" stroke-linejoin="bevel" points="1237.88,148.819 1286.49,148.819"/>
<polyline class="LedgerLine" fill="none" stroke="#000000" stroke-width="3.97" stroke-linejoin="bevel" points="1237.88,124.016 1286.49,124.016"/>
<polyline class="LedgerLine" fill="none" stroke="#000000" stroke-width="3.97" stroke-linejoin="bevel" points="398.37,148.819 446.977,148.819"/>
<polyline class="LedgerLine" fill="none" stroke="#000000" stroke-width="3.97" stroke-linejoin="bevel" points="2447.91,124.016 2496.52,124.016"/>
<polyline class="LedgerLine" fill="none" stroke="#000000" stroke-width="3.97" stroke-linejoin="bevel" points="2346.03,124.016 2394.63,124.016"/>
<polyline class="LedgerLine" fill="none" stroke="#000000" stroke-width="3.97" stroke-linejoin="bevel" points="1339.77,124.016 1388.37,124.016"/>
<polyline class="LedgerLine" fill="none" stroke="#000000" stroke-width="3.97" stroke-linejoin="bevel" points="2036.51,297.638 2085.12,297.638"/>
<polyline class="LedgerLine" fill="none" stroke="#000000" stroke-width="3.97" stroke-linejoin="bevel" points="720.334,297.638 768.941,297.638"/>
<polyline class="LedgerLine" fill="none" stroke="#000000" stroke-width="3.97" stroke-linejoin="bevel" points="1464.32,148.819 1512.92,148.819"/>
<polyline class="LedgerLine" fill="none" stroke="#000000" stroke-width="3.97" stroke-linejoin="bevel" points="2447.91,148.819 2496.52,148.819"/>
<polyline class="LedgerLine" fill="none" stroke="#000000" stroke-width="3.97" stroke-linejoin="bevel" points="1464.32,124.016 1512.92,124.016"/>
<polyline class="LedgerLine" fill="none" stroke="#000000" stroke-width="3.97" stroke-linejoin="bevel" points="2291.22,148.819 2339.83,148.819"/>
<polyline class="LedgerLine" fill="none" stroke="#000000" stroke-width="3.97" stroke-linejoin="bevel" points="1339.77,148.819 1388.37,148.819"/>
<polyline class="LedgerLine" fill="none" stroke="#000000" stroke-width="3.97" stroke-linejoin="bevel" points="2554.06,148.819 2602.67,148.819"/>
<polyline class="LedgerLine" fill="none" stroke="#000000" stroke-width="3.97" stroke-linejoin="bevel" points="2346.03,148.819 2394.63,148.819"/>
<polyline class="LedgerLine" fill="none" stroke="#000000" stroke-width="3.97" stroke-linejoin="bevel" points="2876.03,297.638 2924.63,297.638"/>
<polyline class="LedgerLine" fill="none" stroke="#000000" stroke-width="3.97" stroke-linejoin="bevel" points="2346.03,437.819 2394.63,437.819"/>
<polyline class="LedgerLine" fill="none" stroke="#000000" stroke-width="3.97" stroke-linejoin="bevel" points="720.334,437.819 768.941,437.819"/>
<polyline class="LedgerLine" fill="none" stroke="#000000" stroke-width="3.97" stroke-linejoin="bevel" points="1237.88,462.622 1286.49,462.622"/>
<polyline class="LedgerLine" fill="none" stroke="#000000" stroke-width="3.97" stroke-linejoin="bevel" points="567.509,462.622 616.115,462.622"/>
<polyline class="LedgerLine" fill="none" stroke="#000000" stroke-width="3.97" stroke-linejoin="bevel" points="2723.2,462.622 2771.81,462.622"/>
<polyline class="LedgerLine" fill="none" stroke="#000000" stroke-width="3.97" stroke-linejoin="bevel" points="1828.48,462.622 1877.09,462.622"/>
<polyline class="LedgerLine" fill="none" stroke="#000000" stroke-width="3.97" stroke-linejoin="bevel" points="2876.03,462.622 2924.63,462.622"/>
<polyline class="LedgerLine" fill="none" stroke="#000000" stroke-width="3.97" stroke-linejoin="bevel" points="2876.03,437.819 2924.63,437.819"/>
<polyline class="LedgerLine" fill="none" stroke="#000000" stroke-width="3.97" stroke-linejoin="bevel" points="2346.03,462.622 2394.63,462.622"/>
<polyline class="LedgerLine" fill="none" stroke="#000000" stroke-width="3.97" stroke-linejoin="bevel" points="720.334,462.622 768.941,462.622"/>
<polyline class="Stem" fill="none" stroke="#000000" stroke-width="2.48" stroke-linejoin="bevel" points="2249.7,190.191 2249.7,272.835"/>
<polyline class="Stem" fill="none" stroke="#000000" stroke-width="2.48" stroke-linejoin="bevel" points="627.876,239.797 627.876,316.24"/>
<polyline class="Stem" fill="none" stroke="#000000" stroke-width="2.48" stroke-linejoin="bevel" points="1652.45,202.592 1652.45,297.765"/>
<polyline class="Stem" fill="none" stroke="#000000" stroke-width="2.48" stroke-linejoin="bevel" points="678.818,264.6 678.818,322.294"/>
<polyline class="Stem" fill="none" stroke="#000000" stroke-width="2.48" stroke-linejoin="bevel" points="729.76,301.805 729.76,359.498"/>
<polyline class="Stem" fill="none" stroke="#000000" stroke-width="2.48" stroke-linejoin="bevel" points="2198.76,214.994 2198.76,278.888"/>
<polyline class="Stem" fill="none" stroke="#000000" stroke-width="2.48" stroke-linejoin="bevel" points="988.735,264.6 988.735,341.043"/>
<polyline class="Stem" fill="none" stroke="#000000" stroke-width="2.48" stroke-linejoin="bevel" points="1939.79,289.403 1939.79,347.244"/>
<polyline class="Stem" fill="none" stroke="#000000" stroke-width="2.48" stroke-linejoin="bevel" points="1039.68,227.395 1039.68,334.99"/>
<polyline class="Stem" fill="none" stroke="#000000" stroke-width="2.48" stroke-linejoin="bevel" points="1141.56,177.789 1141.56,269.734"/>
<polyline class="Stem" fill="none" stroke="#000000" stroke-width="2.48" stroke-linejoin="bevel" points="1703.39,227.395 1703.39,303"/>
<polyline class="Stem" fill="none" stroke="#000000" stroke-width="2.48" stroke-linejoin="bevel" points="1192.5,140.584 1192.5,266.708"/>
<polyline class="Stem" fill="none" stroke="#000000" stroke-width="2.48" stroke-linejoin="bevel" points="1601.51,165.387 1601.51,229.311"/>
<polyline class="Stem" fill="none" stroke="#000000" stroke-width="2.48" stroke-linejoin="bevel" points="2355.45,128.183 2355.45,279.035"/>
<polyline class="Stem" fill="none" stroke="#000000" stroke-width="2.48" stroke-linejoin="bevel" points="1770.65,252.198 1770.65,309.912"/>
<polyline class="Stem" fill="none" stroke="#000000" stroke-width="2.48" stroke-linejoin="bevel" points="1888.85,202.592 1888.85,347.244"/>
<polyline class="Stem" fill="none" stroke="#000000" stroke-width="2.48" stroke-linejoin="bevel" points="1298.25,202.592 1298.25,272.835"/>
<polyline class="Stem" fill="none" stroke="#000000" stroke-width="2.48" stroke-linejoin="bevel" points="1247.31,115.781 1247.31,272.835"/>
<polyline class="Stem" fill="none" stroke="#000000" stroke-width="2.48" stroke-linejoin="bevel" points="1349.19,115.781 1349.19,272.835"/>
<polyline class="Stem" fill="none" stroke="#000000" stroke-width="2.48" stroke-linejoin="bevel" points="1528.55,140.584 1528.55,222.364"/>
<polyline class="Stem" fill="none" stroke="#000000" stroke-width="2.48" stroke-linejoin="bevel" points="2045.94,301.805 2045.94,359.498"/>
<polyline class="Stem" fill="none" stroke="#000000" stroke-width="2.48" stroke-linejoin="bevel" points="937.793,289.403 937.793,347.097"/>
<polyline class="Stem" fill="none" stroke="#000000" stroke-width="2.48" stroke-linejoin="bevel" points="1837.9,289.403 1837.9,347.244"/>
<polyline class="Stem" fill="none" stroke="#000000" stroke-width="2.48" stroke-linejoin="bevel" points="831.643,264.6 831.643,347.391"/>
<polyline class="Stem" fill="none" stroke="#000000" stroke-width="2.48" stroke-linejoin="bevel" points="780.701,252.198 780.701,353.445"/>
<polyline class="Stem" fill="none" stroke="#000000" stroke-width="2.48" stroke-linejoin="bevel" points="2563.49,152.986 2563.49,241.958"/>
<polyline class="Stem" fill="none" stroke="#000000" stroke-width="2.48" stroke-linejoin="bevel" points="2457.34,128.183 2457.34,279.035"/>
<polyline class="Stem" fill="none" stroke="#000000" stroke-width="2.48" stroke-linejoin="bevel" points="2614.43,177.789 2614.43,247.193"/>
<polyline class="Stem" fill="none" stroke="#000000" stroke-width="2.48" stroke-linejoin="bevel" points="2681.68,190.191 2681.68,254.105"/>
<polyline class="Stem" fill="none" stroke="#000000" stroke-width="2.48" stroke-linejoin="bevel" points="1090.62,202.592 1090.62,272.761"/>
<polyline class="Stem" fill="none" stroke="#000000" stroke-width="2.48" stroke-linejoin="bevel" points="2732.63,214.994 2732.63,310.187"/>
<polyline class="Stem" fill="none" stroke="#000000" stroke-width="2.48" stroke-linejoin="bevel" points="2406.4,214.994 2406.4,279.035"/>
<polyline class="Stem" fill="none" stroke="#000000" stroke-width="2.48" stroke-linejoin="bevel" points="407.795,152.986 407.795,241.958"/>
<polyline class="Stem" fill="none" stroke="#000000" stroke-width="2.48" stroke-linejoin="bevel" points="2783.57,239.797 2783.57,316.24"/>
<polyline class="Stem" fill="none" stroke="#000000" stroke-width="2.48" stroke-linejoin="bevel" points="2834.51,264.6 2834.51,322.294"/>
<polyline class="Stem" fill="none" stroke="#000000" stroke-width="2.48" stroke-linejoin="bevel" points="2885.45,301.805 2885.45,359.498"/>
<polyline class="Stem" fill="none" stroke="#000000" stroke-width="2.48" stroke-linejoin="bevel" points="458.737,177.789 458.737,247.193"/>
<polyline class="Stem" fill="none" stroke="#000000" stroke-width="2.48" stroke-linejoin="bevel" points="1473.74,115.781 1473.74,217.146"/>
<polyline class="Stem" fill="none" stroke="#000000" stroke-width="2.48" stroke-linejoin="bevel" points="525.992,190.191 525.992,254.105"/>
<polyline class="Stem" fill="none" stroke="#000000" stroke-width="2.48" stroke-linejoin="bevel" points="576.934,214.994 576.934,310.187"/>
<polyline class="Stem" fill="none" stroke="#000000" stroke-width="2.48" stroke-linejoin="bevel" points="2936.39,252.198 2936.39,353.445"/>
<polyline class="Stem" fill="none" stroke="#000000" stroke-width="2.48" stroke-linejoin="bevel" points="2987.33,264.6 2987.33,347.391"/>
<polyline class="Stem" fill="none" stroke="#000000" stroke-width="2.48" stroke-linejoin="bevel" points="2300.65,140.584 2300.65,266.781"/>
<polyline class="Stem" fill="none" stroke="#000000" stroke-width="2.48" stroke-linejoin="bevel" points="2096.88,277.002 2096.88,353.445"/>
<polyline class="Stem" fill="none" stroke="#000000" stroke-width="2.48" stroke-linejoin="bevel" points="2147.82,227.395 2147.82,347.391"/>
<polyline class="Stem" fill="none" stroke="#000000" stroke-width="2.48" stroke-linejoin="bevel" points="1652.45,479.191 1652.45,561.835"/>
<polyline class="Stem" fill="none" stroke="#000000" stroke-width="2.48" stroke-linejoin="bevel" points="1090.62,479.191 1090.62,561.835"/>
<polyline class="Stem" fill="none" stroke="#000000" stroke-width="2.48" stroke-linejoin="bevel" points="2885.45,441.986 2885.45,599.04"/>
<polyline class="Stem" fill="none" stroke="#000000" stroke-width="2.48" stroke-linejoin="bevel" points="576.934,466.789 576.934,549.433"/>
<polyline class="Stem" fill="none" stroke="#000000" stroke-width="2.48" stroke-linejoin="bevel" points="2563.49,603.207 2563.49,661.048"/>
<polyline class="Stem" fill="none" stroke="#000000" stroke-width="2.48" stroke-linejoin="bevel" points="2198.76,479.191 2198.76,561.835"/>
<polyline class="Stem" fill="none" stroke="#000000" stroke-width="2.48" stroke-linejoin="bevel" points="2732.63,466.789 2732.63,549.433"/>
<polyline class="Stem" fill="none" stroke="#000000" stroke-width="2.48" stroke-linejoin="bevel" points="2385.21,495.859 2385.21,375.811"/>
<polyline class="Stem" fill="none" stroke="#000000" stroke-width="2.48" stroke-linejoin="bevel" points="1867.66,495.859 1867.66,388.213"/>
<polyline class="Stem" fill="none" stroke="#000000" stroke-width="2.48" stroke-linejoin="bevel" points="967.549,557.866 967.549,475.024"/>
<polyline class="Stem" fill="none" stroke="#000000" stroke-width="2.48" stroke-linejoin="bevel" points="759.516,508.26 759.516,375.811"/>
<polyline class="Stem" fill="none" stroke="#000000" stroke-width="2.48" stroke-linejoin="bevel" points="437.551,595.071 437.551,512.229"/>
<polyline class="Stem" fill="none" stroke="#000000" stroke-width="2.48" stroke-linejoin="bevel" points="1277.06,508.26 1277.06,388.213"/>
<polyline class="Stem" fill="none" stroke="#000000" stroke-width="2.48" stroke-linejoin="bevel" points="2075.69,545.465 2075.69,468.823"/>
<polyline class="Stem" fill="none" stroke="#000000" stroke-width="2.48" stroke-linejoin="bevel" points="1503.5,557.866 1503.5,475.024"/>
<path class="Note" transform="matrix(0.992126,0,0,0.992126,2044.7,297.638)" d="M0,4.20313 C0,8.5 3.09375,13.2969 11.2031,13.2969 C21.5938,13.2969 32.5,4.79688 32.5,-4 C32.5,-9.90625 27.5,-13.2031 21.2969,-13.2031 C11.5938,-13.2031 0,-5 0,4.20313"/>
<path class="Note" transform="matrix(0.992126,0,0,0.992126,2095.64,272.835)" d="M0,4.20313 C0,8.5 3.09375,13.2969 11.2031,13.2969 C21.5938,13.2969 32.5,4.79688 32.5,-4 C32.5,-9.90625 27.5,-13.2031 21.2969,-13.2031 C11.5938,-13.2031 0,-5 0,4.20313"/>
<path class="Note" transform="matrix(0.992126,0,0,0.992126,2146.58,223.228)" d="M0,4.20313 C0,8.5 3.09375,13.2969 11.2031,13.2969 C21.5938,13.2969 32.5,4.79688 32.5,-4 C32.5,-9.90625 27.5,-13.2031 21.2969,-13.2031 C11.5938,-13.2031 0,-5 0,4.20313"/>
<path class="Note" transform="matrix(0.992126,0,0,0.992126,2197.52,210.827)" d="M0,4.20313 C0,8.5 3.09375,13.2969 11.2031,13.2969 C21.5938,13.2969 32.5,4.79688 32.5,-4 C32.5,-9.90625 27.5,-13.2031 21.2969,-13.2031 C11.5938,-13.2031 0,-5 0,4.20313"/>
<path class="Note" transform="matrix(0.992126,0,0,0.992126,2248.46,186.024)" d="M0,4.20313 C0,8.5 3.09375,13.2969 11.2031,13.2969 C21.5938,13.2969 32.5,4.79688 32.5,-4 C32.5,-9.90625 27.5,-13.2031 21.2969,-13.2031 C11.5938,-13.2031 0,-5 0,4.20313"/>
<path class="Note" transform="matrix(0.992126,0,0,0.992126,2299.41,136.417)" d="M0,4.20313 C0,8.5 3.09375,13.2969 11.2031,13.2969 C21.5938,13.2969 32.5,4.79688 32.5,-4 C32.5,-9.90625 27.5,-13.2031 21.2969,-13.2031 C11.5938,-13.2031 0,-5 0,4.20313"/>
<path class="Note" transform="matrix(0.992126,0,0,0.992126,2354.21,124.016)" d="M0,4.20313 C0,8.5 3.09375,13.2969 11.2031,13.2969 C21.5938,13.2969 32.5,4.79688 32.5,-4 C32.5,-9.90625 27.5,-13.2031 21.2969,-13.2031 C11.5938,-13.2031 0,-5 0,4.20313"/>
<path class="Note" transform="matrix(0.992126,0,0,0.992126,2405.16,210.827)" d="M0,4.20313 C0,8.5 3.09375,13.2969 11.2031,13.2969 C21.5938,13.2969 32.5,4.79688 32.5,-4 C32.5,-9.90625 27.5,-13.2031 21.2969,-13.2031 C11.5938,-13.2031 0,-5 0,4.20313"/>
<path class="Note" transform="matrix(0.992126,0,0,0.992126,406.555,148.819)" d="M0,4.20313 C0,8.5 3.09375,13.2969 11.2031,13.2969 C21.5938,13.2969 32.5,4.79688 32.5,-4 C32.5,-9.90625 27.5,-13.2031 21.2969,-13.2031 C11.5938,-13.2031 0,-5 0,4.20313"/>
<path class="Note" transform="matrix(0.992126,0,0,0.992126,2456.1,124.016)" d="M0,4.20313 C0,8.5 3.09375,13.2969 11.2031,13.2969 C21.5938,13.2969 32.5,4.79688 32.5,-4 C32.5,-9.90625 27.5,-13.2031 21.2969,-13.2031 C11.5938,-13.2031 0,-5 0,4.20313"/>
<path class="Note" transform="matrix(0.992126,0,0,0.992126,457.497,173.622)" d="M0,4.20313 C0,8.5 3.09375,13.2969 11.2031,13.2969 C21.5938,13.2969 32.5,4.79688 32.5,-4 C32.5,-9.90625 27.5,-13.2031 21.2969,-13.2031 C11.5938,-13.2031 0,-5 0,4.20313"/>
<path class="Note" transform="matrix(0.992126,0,0,0.992126,524.752,186.024)" d="M0,4.20313 C0,8.5 3.09375,13.2969 11.2031,13.2969 C21.5938,13.2969 32.5,4.79688 32.5,-4 C32.5,-9.90625 27.5,-13.2031 21.2969,-13.2031 C11.5938,-13.2031 0,-5 0,4.20313"/>
<path class="Note" transform="matrix(0.992126,0,0,0.992126,575.694,210.827)" d="M0,4.20313 C0,8.5 3.09375,13.2969 11.2031,13.2969 C21.5938,13.2969 32.5,4.79688 32.5,-4 C32.5,-9.90625 27.5,-13.2031 21.2969,-13.2031 C11.5938,-13.2031 0,-5 0,4.20313"/>
<path class="Note" transform="matrix(0.992126,0,0,0.992126,626.636,235.63)" d="M0,4.20313 C0,8.5 3.09375,13.2969 11.2031,13.2969 C21.5938,13.2969 32.5,4.79688 32.5,-4 C32.5,-9.90625 27.5,-13.2031 21.2969,-13.2031 C11.5938,-13.2031 0,-5 0,4.20313"/>
<path class="Note" transform="matrix(0.992126,0,0,0.992126,677.578,260.433)" d="M0,4.20313 C0,8.5 3.09375,13.2969 11.2031,13.2969 C21.5938,13.2969 32.5,4.79688 32.5,-4 C32.5,-9.90625 27.5,-13.2031 21.2969,-13.2031 C11.5938,-13.2031 0,-5 0,4.20313"/>
<path class="Note" transform="matrix(0.992126,0,0,0.992126,728.519,297.638)" d="M0,4.20313 C0,8.5 3.09375,13.2969 11.2031,13.2969 C21.5938,13.2969 32.5,4.79688 32.5,-4 C32.5,-9.90625 27.5,-13.2031 21.2969,-13.2031 C11.5938,-13.2031 0,-5 0,4.20313"/>
<path class="Note" transform="matrix(0.992126,0,0,0.992126,2562.25,148.819)" d="M0,4.20313 C0,8.5 3.09375,13.2969 11.2031,13.2969 C21.5938,13.2969 32.5,4.79688 32.5,-4 C32.5,-9.90625 27.5,-13.2031 21.2969,-13.2031 C11.5938,-13.2031 0,-5 0,4.20313"/>
<path class="Note" transform="matrix(0.992126,0,0,0.992126,779.461,248.031)" d="M0,4.20313 C0,8.5 3.09375,13.2969 11.2031,13.2969 C21.5938,13.2969 32.5,4.79688 32.5,-4 C32.5,-9.90625 27.5,-13.2031 21.2969,-13.2031 C11.5938,-13.2031 0,-5 0,4.20313"/>
<path class="Note" transform="matrix(0.992126,0,0,0.992126,830.403,260.433)" d="M0,4.20313 C0,8.5 3.09375,13.2969 11.2031,13.2969 C21.5938,13.2969 32.5,4.79688 32.5,-4 C32.5,-9.90625 27.5,-13.2031 21.2969,-13.2031 C11.5938,-13.2031 0,-5 0,4.20313"/>
<path class="Note" transform="matrix(0.992126,0,0,0.992126,2613.19,173.622)" d="M0,4.20313 C0,8.5 3.09375,13.2969 11.2031,13.2969 C21.5938,13.2969 32.5,4.79688 32.5,-4 C32.5,-9.90625 27.5,-13.2031 21.2969,-13.2031 C11.5938,-13.2031 0,-5 0,4.20313"/>
<path class="Note" transform="matrix(0.992126,0,0,0.992126,936.553,285.236)" d="M0,4.20313 C0,8.5 3.09375,13.2969 11.2031,13.2969 C21.5938,13.2969 32.5,4.79688 32.5,-4 C32.5,-9.90625 27.5,-13.2031 21.2969,-13.2031 C11.5938,-13.2031 0,-5 0,4.20313"/>
<path class="Note" transform="matrix(0.992126,0,0,0.992126,2680.44,186.024)" d="M0,4.20313 C0,8.5 3.09375,13.2969 11.2031,13.2969 C21.5938,13.2969 32.5,4.79688 32.5,-4 C32.5,-9.90625 27.5,-13.2031 21.2969,-13.2031 C11.5938,-13.2031 0,-5 0,4.20313"/>
<path class="Note" transform="matrix(0.992126,0,0,0.992126,987.494,260.433)" d="M0,4.20313 C0,8.5 3.09375,13.2969 11.2031,13.2969 C21.5938,13.2969 32.5,4.79688 32.5,-4 C32.5,-9.90625 27.5,-13.2031 21.2969,-13.2031 C11.5938,-13.2031 0,-5 0,4.20313"/>
<path class="Note" transform="matrix(0.992126,0,0,0.992126,1038.44,223.228)" d="M0,4.20313 C0,8.5 3.09375,13.2969 11.2031,13.2969 C21.5938,13.2969 32.5,4.79688 32.5,-4 C32.5,-9.90625 27.5,-13.2031 21.2969,-13.2031 C11.5938,-13.2031 0,-5 0,4.20313"/>
<path class="Note" transform="matrix(0.992126,0,0,0.992126,1089.38,198.425)" d="M0,4.20313 C0,8.5 3.09375,13.2969 11.2031,13.2969 C21.5938,13.2969 32.5,4.79688 32.5,-4 C32.5,-9.90625 27.5,-13.2031 21.2969,-13.2031 C11.5938,-13.2031 0,-5 0,4.20313"/>
<path class="Note" transform="matrix(0.992126,0,0,0.992126,1140.32,173.622)" d="M0,4.20313 C0,8.5 3.09375,13.2969 11.2031,13.2969 C21.5938,13.2969 32.5,4.79688 32.5,-4 C32.5,-9.90625 27.5,-13.2031 21.2969,-13.2031 C11.5938,-13.2031 0,-5 0,4.20313"/>
<path class="Note" transform="matrix(0.992126,0,0,0.992126,1191.26,136.417)" d="M0,4.20313 C0,8.5 3.09375,13.2969 11.2031,13.2969 C21.5938,13.2969 32.5,4.79688 32.5,-4 C32.5,-9.90625 27.5,-13.2031 21.2969,-13.2031 C11.5938,-13.2031 0,-5 0,4.20313"/>
<path class="Note" transform="matrix(0.992126,0,0,0.992126,2782.33,235.63)" d="M0,4.20313 C0,8.5 3.09375,13.2969 11.2031,13.2969 C21.5938,13.2969 32.5,4.79688 32.5,-4 C32.5,-9.90625 27.5,-13.2031 21.2969,-13.2031 C11.5938,-13.2031 0,-5 0,4.20313"/>
<path class="Note" transform="matrix(0.992126,0,0,0.992126,1246.07,111.614)" d="M0,4.20313 C0,8.5 3.09375,13.2969 11.2031,13.2969 C21.5938,13.2969 32.5,4.79688 32.5,-4 C32.5,-9.90625 27.5,-13.2031 21.2969,-13.2031 C11.5938,-13.2031 0,-5 0,4.20313"/>
<path class="Note" transform="matrix(0.992126,0,0,0.992126,2833.27,260.433)" d="M0,4.20313 C0,8.5 3.09375,13.2969 11.2031,13.2969 C21.5938,13.2969 32.5,4.79688 32.5,-4 C32.5,-9.90625 27.5,-13.2031 21.2969,-13.2031 C11.5938,-13.2031 0,-5 0,4.20313"/>
<path class="Note" transform="matrix(0.992126,0,0,0.992126,1347.95,111.614)" d="M0,4.20313 C0,8.5 3.09375,13.2969 11.2031,13.2969 C21.5938,13.2969 32.5,4.79688 32.5,-4 C32.5,-9.90625 27.5,-13.2031 21.2969,-13.2031 C11.5938,-13.2031 0,-5 0,4.20313"/>
<path class="Note" transform="matrix(0.992126,0,0,0.992126,1472.5,111.614)" d="M0,4.20313 C0,8.5 3.09375,13.2969 11.2031,13.2969 C21.5938,13.2969 32.5,4.79688 32.5,-4 C32.5,-9.90625 27.5,-13.2031 21.2969,-13.2031 C11.5938,-13.2031 0,-5 0,4.20313"/>
<path class="Note" transform="matrix(0.992126,0,0,0.992126,2884.21,297.638)" d="M0,4.20313 C0,8.5 3.09375,13.2969 11.2031,13.2969 C21.5938,13.2969 32.5,4.79688 32.5,-4 C32.5,-9.90625 27.5,-13.2031 21.2969,-13.2031 C11.5938,-13.2031 0,-5 0,4.20313"/>
<path class="Note" transform="matrix(0.992126,0,0,0.992126,1527.31,136.417)" d="M0,4.20313 C0,8.5 3.09375,13.2969 11.2031,13.2969 C21.5938,13.2969 32.5,4.79688 32.5,-4 C32.5,-9.90625 27.5,-13.2031 21.2969,-13.2031 C11.5938,-13.2031 0,-5 0,4.20313"/>
<path class="Note" transform="matrix(0.992126,0,0,0.992126,1600.27,161.22)" d="M0,4.20313 C0,8.5 3.09375,13.2969 11.2031,13.2969 C21.5938,13.2969 32.5,4.79688 32.5,-4 C32.5,-9.90625 27.5,-13.2031 21.2969,-13.2031 C11.5938,-13.2031 0,-5 0,4.20313"/>
<path class="Note" transform="matrix(0.992126,0,0,0.992126,1651.21,198.425)" d="M0,4.20313 C0,8.5 3.09375,13.2969 11.2031,13.2969 C21.5938,13.2969 32.5,4.79688 32.5,-4 C32.5,-9.90625 27.5,-13.2031 21.2969,-13.2031 C11.5938,-13.2031 0,-5 0,4.20313"/>
<path class="Note" transform="matrix(0.992126,0,0,0.992126,2731.39,210.827)" d="M0,4.20313 C0,8.5 3.09375,13.2969 11.2031,13.2969 C21.5938,13.2969 32.5,4.79688 32.5,-4 C32.5,-9.90625 27.5,-13.2031 21.2969,-13.2031 C11.5938,-13.2031 0,-5 0,4.20313"/>
<path class="Note" transform="matrix(0.992126,0,0,0.992126,1702.15,223.228)" d="M0,4.20313 C0,8.5 3.09375,13.2969 11.2031,13.2969 C21.5938,13.2969 32.5,4.79688 32.5,-4 C32.5,-9.90625 27.5,-13.2031 21.2969,-13.2031 C11.5938,-13.2031 0,-5 0,4.20313"/>
<path class="Note" transform="matrix(0.992126,0,0,0.992126,2935.15,248.031)" d="M0,4.20313 C0,8.5 3.09375,13.2969 11.2031,13.2969 C21.5938,13.2969 32.5,4.79688 32.5,-4 C32.5,-9.90625 27.5,-13.2031 21.2969,-13.2031 C11.5938,-13.2031 0,-5 0,4.20313"/>
<path class="Note" transform="matrix(0.992126,0,0,0.992126,1769.41,248.031)" d="M0,4.20313 C0,8.5 3.09375,13.2969 11.2031,13.2969 C21.5938,13.2969 32.5,4.79688 32.5,-4 C32.5,-9.90625 27.5,-13.2031 21.2969,-13.2031 C11.5938,-13.2031 0,-5 0,4.20313"/>
<path class="Note" transform="matrix(0.992126,0,0,0.992126,2986.09,260.433)" d="M0,4.20313 C0,8.5 3.09375,13.2969 11.2031,13.2969 C21.5938,13.2969 32.5,4.79688 32.5,-4 C32.5,-9.90625 27.5,-13.2031 21.2969,-13.2031 C11.5938,-13.2031 0,-5 0,4.20313"/>
<path class="Note" transform="matrix(0.992126,0,0,0.992126,1836.66,285.236)" d="M0,4.20313 C0,8.5 3.09375,13.2969 11.2031,13.2969 C21.5938,13.2969 32.5,4.79688 32.5,-4 C32.5,-9.90625 27.5,-13.2031 21.2969,-13.2031 C11.5938,-13.2031 0,-5 0,4.20313"/>
<path class="Note" transform="matrix(0.992126,0,0,0.992126,1887.61,198.425)" d="M0,4.20313 C0,8.5 3.09375,13.2969 11.2031,13.2969 C21.5938,13.2969 32.5,4.79688 32.5,-4 C32.5,-9.90625 27.5,-13.2031 21.2969,-13.2031 C11.5938,-13.2031 0,-5 0,4.20313"/>
<path class="Note" transform="matrix(0.992126,0,0,0.992126,1938.55,285.236)" d="M0,4.20313 C0,8.5 3.09375,13.2969 11.2031,13.2969 C21.5938,13.2969 32.5,4.79688 32.5,-4 C32.5,-9.90625 27.5,-13.2031 21.2969,-13.2031 C11.5938,-13.2031 0,-5 0,4.20313"/>
<path class="Note" transform="matrix(0.992126,0,0,0.992126,1297.01,198.425)" d="M0,4.20313 C0,8.5 3.09375,13.2969 11.2031,13.2969 C21.5938,13.2969 32.5,4.79688 32.5,-4 C32.5,-9.90625 27.5,-13.2031 21.2969,-13.2031 C11.5938,-13.2031 0,-5 0,4.20313"/>
<path class="Note" transform="matrix(0.992126,0,0,0.992126,575.694,462.622)" d="M21.2969,-13.2031 C11.5938,-13.2031 0,-5.09375 0,4.20313 C0,8.5 3.09375,13.2969 11.2031,13.2969 C21.5938,13.2969 32.5,4.79688 32.5,-4 C32.5,-9.90625 27.5,-13.2031 21.2969,-13.2031 M7.5,8.59375 C4.20313,8.59375 3.5,5.90625 3.5,5 C3.5,0.09375 20.2969,-8.5 25,-8.5 C27.4063,-8.5 29,-7.09375 29,-4.90625 C29,0.09375 12.0938,8.59375 7.5,8.59375"/>
<path class="Note" transform="matrix(0.992126,0,0,0.992126,1089.38,475.024)" d="M21.2969,-13.2031 C11.5938,-13.2031 0,-5.09375 0,4.20313 C0,8.5 3.09375,13.2969 11.2031,13.2969 C21.5938,13.2969 32.5,4.79688 32.5,-4 C32.5,-9.90625 27.5,-13.2031 21.2969,-13.2031 M7.5,8.59375 C4.20313,8.59375 3.5,5.90625 3.5,5 C3.5,0.09375 20.2969,-8.5 25,-8.5 C27.4063,-8.5 29,-7.09375 29,-4.90625 C29,0.09375 12.0938,8.59375 7.5,8.59375"/>
<path class="Note" transform="matrix(0.992126,0,0,0.992126,2884.21,512.229)" d="M0,4.20313 C0,8.5 3.09375,13.2969 11.2031,13.2969 C21.5938,13.2969 32.5,4.79688 32.5,-4 C32.5,-9.90625 27.5,-13.2031 21.2969,-13.2031 C11.5938,-13.2031 0,-5 0,4.20313"/>
<path class="Note" transform="matrix(0.992126,0,0,0.992126,1651.21,475.024)" d="M21.2969,-13.2031 C11.5938,-13.2031 0,-5.09375 0,4.20313 C0,8.5 3.09375,13.2969 11.2031,13.2969 C21.5938,13.2969 32.5,4.79688 32.5,-4 C32.5,-9.90625 27.5,-13.2031 21.2969,-13.2031 M7.5,8.59375 C4.20313,8.59375 3.5,5.90625 3.5,5 C3.5,0.09375 20.2969,-8.5 25,-8.5 C27.4063,-8.5 29,-7.09375 29,-4.90625 C29,0.09375 12.0938,8.59375 7.5,8.59375"/>
<path class="Note" transform="matrix(0.992126,0,0,0.992126,2731.39,462.622)" d="M0,4.20313 C0,8.5 3.09375,13.2969 11.2031,13.2969 C21.5938,13.2969 32.5,4.79688 32.5,-4 C32.5,-9.90625 27.5,-13.2031 21.2969,-13.2031 C11.5938,-13.2031 0,-5 0,4.20313"/>
<path class="Note" transform="matrix(0.992126,0,0,0.992126,2197.52,475.024)" d="M21.2969,-13.2031 C11.5938,-13.2031 0,-5.09375 0,4.20313 C0,8.5 3.09375,13.2969 11.2031,13.2969 C21.5938,13.2969 32.5,4.79688 32.5,-4 C32.5,-9.90625 27.5,-13.2031 21.2969,-13.2031 M7.5,8.59375 C4.20313,8.59375 3.5,5.90625 3.5,5 C3.5,0.09375 20.2969,-8.5 25,-8.5 C27.4063,-8.5 29,-7.09375 29,-4.90625 C29,0.09375 12.0938,8.59375 7.5,8.59375"/>
<path class="Note" transform="matrix(0.992126,0,0,0.992126,2562.25,599.04)" d="M0,4.20313 C0,8.5 3.09375,13.2969 11.2031,13.2969 C21.5938,13.2969 32.5,4.79688 32.5,-4 C32.5,-9.90625 27.5,-13.2031 21.2969,-13.2031 C11.5938,-13.2031 0,-5 0,4.20313"/>
<path class="Note" transform="matrix(0.992126,0,0,0.992126,2884.21,437.819)" d="M0,4.20313 C0,8.5 3.09375,13.2969 11.2031,13.2969 C21.5938,13.2969 32.5,4.79688 32.5,-4 C32.5,-9.90625 27.5,-13.2031 21.2969,-13.2031 C11.5938,-13.2031 0,-5 0,4.20313"/>
<path class="Note" transform="matrix(0.992126,0,0,0.992126,406.555,599.04)" d="M0,4.20313 C0,8.5 3.09375,13.2969 11.2031,13.2969 C21.5938,13.2969 32.5,4.79688 32.5,-4 C32.5,-9.90625 27.5,-13.2031 21.2969,-13.2031 C11.5938,-13.2031 0,-5 0,4.20313"/>
<path class="Note" transform="matrix(0.992126,0,0,0.992126,728.519,437.819)" d="M0,4.20313 C0,8.5 3.09375,13.2969 11.2031,13.2969 C21.5938,13.2969 32.5,4.79688 32.5,-4 C32.5,-9.90625 27.5,-13.2031 21.2969,-13.2031 C11.5938,-13.2031 0,-5 0,4.20313"/>
<path class="Note" transform="matrix(0.992126,0,0,0.992126,2044.7,549.433)" d="M0,4.20313 C0,8.5 3.09375,13.2969 11.2031,13.2969 C21.5938,13.2969 32.5,4.79688 32.5,-4 C32.5,-9.90625 27.5,-13.2031 21.2969,-13.2031 C11.5938,-13.2031 0,-5 0,4.20313"/>
<path class="Note" transform="matrix(0.992126,0,0,0.992126,1472.5,561.835)" d="M0,4.20313 C0,8.5 3.09375,13.2969 11.2031,13.2969 C21.5938,13.2969 32.5,4.79688 32.5,-4 C32.5,-9.90625 27.5,-13.2031 21.2969,-13.2031 C11.5938,-13.2031 0,-5 0,4.20313"/>
<path class="Note" transform="matrix(0.992126,0,0,0.992126,728.519,512.229)" d="M0,4.20313 C0,8.5 3.09375,13.2969 11.2031,13.2969 C21.5938,13.2969 32.5,4.79688 32.5,-4 C32.5,-9.90625 27.5,-13.2031 21.2969,-13.2031 C11.5938,-13.2031 0,-5 0,4.20313"/>
<path class="Note" transform="matrix(0.992126,0,0,0.992126,1836.66,499.827)" d="M0,4.20313 C0,8.5 3.09375,13.2969 11.2031,13.2969 C21.5938,13.2969 32.5,4.79688 32.5,-4 C32.5,-9.90625 27.5,-13.2031 21.2969,-13.2031 C11.5938,-13.2031 0,-5 0,4.20313"/>
<path class="Note" transform="matrix(0.992126,0,0,0.992126,2354.21,499.827)" d="M0,4.20313 C0,8.5 3.09375,13.2969 11.2031,13.2969 C21.5938,13.2969 32.5,4.79688 32.5,-4 C32.5,-9.90625 27.5,-13.2031 21.2969,-13.2031 C11.5938,-13.2031 0,-5 0,4.20313"/>
<path class="Note" transform="matrix(0.992126,0,0,0.992126,2354.21,437.819)" d="M0,4.20313 C0,8.5 3.09375,13.2969 11.2031,13.2969 C21.5938,13.2969 32.5,4.79688 32.5,-4 C32.5,-9.90625 27.5,-13.2031 21.2969,-13.2031 C11.5938,-13.2031 0,-5 0,4.20313"/>
<path class="Note" transform="matrix(0.992126,0,0,0.992126,1246.07,450.221)" d="M0,4.20313 C0,8.5 3.09375,13.2969 11.2031,13.2969 C21.5938,13.2969 32.5,4.79688 32.5,-4 C32.5,-9.90625 27.5,-13.2031 21.2969,-13.2031 C11.5938,-13.2031 0,-5 0,4.20313"/>
<path class="Note" transform="matrix(0.992126,0,0,0.992126,1246.07,512.229)" d="M0,4.20313 C0,8.5 3.09375,13.2969 11.2031,13.2969 C21.5938,13.2969 32.5,4.79688 32.5,-4 C32.5,-9.90625 27.5,-13.2031 21.2969,-13.2031 C11.5938,-13.2031 0,-5 0,4.20313"/>
<path class="Note" transform="matrix(0.992126,0,0,0.992126,1836.66,450.221)" d="M0,4.20313 C0,8.5 3.09375,13.2969 11.2031,13.2969 C21.5938,13.2969 32.5,4.79688 32.5,-4 C32.5,-9.90625 27.5,-13.2031 21.2969,-13.2031 C11.5938,-13.2031 0,-5 0,4.20313"/>
<path class="Note" transform="matrix(0.992126,0,0,0.992126,936.553,561.835)" d="M0,4.20313 C0,8.5 3.09375,13.2969 11.2031,13.2969 C21.5938,13.2969 32.5,4.79688 32.5,-4 C32.5,-9.90625 27.5,-13.2031 21.2969,-13.2031 C11.5938,-13.2031 0,-5 0,4.20313"/>
<path class="Clef" transform="matrix(0.992126,0,0,0.992126,178.87,248.031)" d="M12.2969,51.2969 C12.2969,57.9063 17.2969,66.6094 30.7969,66.6094 C35.5,66.6094 39.6094,65.4063 43.2031,63.2031 C48.6094,59.4063 50,52.7969 50,46.5 C50,42.6094 49.4063,38.1094 48.4063,32.4063 C48.1094,30.4063 47.5,27.4063 46.9063,23.5 C56.7031,20.2969 64,10.0938 64,-0.203125 C64,-15.2969 53.2969,-25.5 38.7031,-25.5 C37.7031,-31.5 36.7031,-37.4063 35.9063,-43 C46.4063,-54.1094 53.7031,-66.6094 53.7031,-82.5 C53.7031,-91.6094 50.9063,-99 49.2969,-102.609 C46.9063,-107.703 44,-111.203 42.2031,-111.203 C41.5,-111.203 38.4063,-110 35.1094,-106.109 C28.7031,-98.5 26.9063,-85.7031 26.9063,-77.3125 C26.9063,-71.9063 27.4063,-67 29.1094,-55.7969 C29,-55.7031 23.7969,-50.4063 21.7031,-48.7031 C12.5938,-40.2969 0,-28.1094 0,-8.09375 C0,10.5938 16.2969,25.2969 34.9063,25.2969 C37.7969,25.2969 40.5,25 42.7969,24.5938 C44.7031,34.2031 45.9063,41.2031 45.9063,46.5 C45.9063,56.9063 40.5,62.4063 30.4063,62.4063 C28,62.4063 25.9063,61.9063 25.7031,61.9063 C25.6094,61.7969 25.4063,61.7031 25.4063,61.6094 C25.4063,61.4063 25.6094,61.2969 25.9063,61.2969 C30.6094,60.5 35.2969,56.5 35.2969,50.1094 C35.2969,44.7031 31.2031,39 23.7031,39 C16.7031,39 12.2969,44.7031 12.2969,51.2969 M33.2031,-82.2031 C34.1094,-86.2031 38.7031,-96.7031 43.9063,-96.7031 C45.4063,-96.7031 47.7969,-91.9063 47.7969,-84.9063 C47.7969,-74.5 40.1094,-66.7031 33.2031,-59.9063 C32.6094,-63.9063 32.1094,-67.7969 32.1094,-72 C32.1094,-75.7031 32.4063,-79.1094 33.2031,-82.2031 M42,20.5938 C40,21 38.1094,21.2031 36.2031,21.2031 C21.9063,21.2031 9.70313,11.2031 9.70313,-3.90625 C9.70313,-16.0938 18.2969,-27 27.1094,-34.6094 C28.7969,-36.1094 30.4063,-37.5 31.9063,-39 C32.7969,-33.6094 33.5,-28.9063 34.2031,-24.7969 C25.0938,-22.0938 18.9063,-12.5 18.9063,-3.09375 C18.9063,3.90625 24.4063,13.5 32.4063,13.5 C33.2031,13.5 34.1094,13.0938 34.1094,12.2031 C34.1094,11.2969 33.1094,10.7969 31.9063,10 C28,7.59375 25.7969,5 25.7969,0.09375 C25.7969,-6 30.4063,-10.9063 36.2031,-12.2969 L42,20.5938 M56.2031,2.09375 C56.2031,9.20313 53.2969,16.5 46.2031,19.4063 C44.1094,7.40625 41.4063,-8.5 40.7031,-12.9063 C49.7031,-12.9063 56.2031,-6.79688 56.2031,2.09375"/>
<path class="Clef" transform="matrix(0.992126,0,0,0.992126,178.87,512.229)" d="M25.4063,-25.0938 C17.7969,-25.0938 11.7031,-20.7031 11.5938,-20.7031 C5.70313,-16.4063 1.90625,-9.79688 1.90625,-2.5 C1.90625,4.79688 6.09375,10.2031 13.5,10.2031 C19.9063,10.2031 24.9063,5.90625 24.9063,-0.703125 C24.9063,-6.40625 19.9063,-11.0938 14.2969,-11.0938 C13.0938,-11.0938 12,-10.9063 11.0938,-10.5938 C10.0938,-10.2031 8.40625,-9.20313 7.59375,-8.5 C8.29688,-12.9063 11.2969,-17.2969 15.2031,-19.4063 C17.7031,-20.7969 20.9063,-21.4063 24.4063,-21.4063 C34.6094,-21.4063 39.6094,-13.2031 39.6094,3.59375 C39.6094,16.5938 31.2969,35.2969 21.5,44.1094 C11.0938,53.6094 1.29688,58.1094 1.20313,58.1094 C1.20313,58.1094 0,58.7969 0,60 C0,60.2031 0.09375,60.2969 0.09375,60.5 C0.40625,61.5 1.29688,61.7031 2,61.7031 L2.29688,61.6094 C2.5,61.6094 13.9063,56.9063 23,49.7969 C37,39.7031 52.7969,21.9063 52.7969,3.5 C52.7969,-13.9063 43.4063,-25.0938 25.4063,-25.0938 M56.7969,-12.4063 C56.7969,-9.59375 59,-7.40625 61.6094,-7.40625 C64.2031,-7.40625 66.4063,-9.59375 66.4063,-12.4063 C66.4063,-15.2031 64.2031,-17.5 61.6094,-17.5 C59,-17.5 56.7969,-15.2031 56.7969,-12.4063 M56.7969,12.2969 C56.7969,15.0938 59,17.4063 61.6094,17.4063 C64.2031,17.4063 66.4063,15.0938 66.4063,12.2969 C66.4063,9.5 64.2031,7.20313 61.6094,7.20313 C59,7.20313 56.7969,9.5 56.7969,12.2969"/>
<path class="KeySig" transform="matrix(0.992126,0,0,0.992126,269.549,223.228)" d="M12,-15.5 C7,-15.5 4.09375,-12.4063 3.59375,-11.7969 L4,-43.9063 C4,-44.7031 3.40625,-45.2969 2.59375,-45.2969 L1.40625,-45.2969 C0.59375,-45.2969 0,-44.7031 0,-43.9063 L0.5,16.2031 C0.5,17 1.09375,17.5938 1.90625,17.5938 C2.09375,17.5938 2.5,17.5 2.70313,17.4063 C11.2969,13.0938 20.2969,4.90625 20.2969,-5.40625 C20.2969,-10.5938 17.9063,-15.5 12,-15.5 M3.29688,12.7031 L3.59375,-6.79688 C3.79688,-7.70313 5.29688,-10.5938 9.29688,-10.5938 C12.9063,-10.5938 13.2031,-7.20313 13.2031,-5.09375 C13.2031,3.79688 9.90625,7.5 3.29688,12.7031"/>
<path class="KeySig" transform="matrix(0.992126,0,0,0.992126,269.549,561.835)" d="M12,-15.5 C7,-15.5 4.09375,-12.4063 3.59375,-11.7969 L4,-43.9063 C4,-44.7031 3.40625,-45.2969 2.59375,-45.2969 L1.40625,-45.2969 C0.59375,-45.2969 0,-44.7031 0,-43.9063 L0.5,16.2031 C0.5,17 1.09375,17.5938 1.90625,17.5938 C2.09375,17.5938 2.5,17.5 2.70313,17.4063 C11.2969,13.0938 20.2969,4.90625 20.2969,-5.40625 C20.2969,-10.5938 17.9063,-15.5 12,-15.5 M3.29688,12.7031 L3.59375,-6.79688 C3.79688,-7.70313 5.29688,-10.5938 9.29688,-10.5938 C12.9063,-10.5938 13.2031,-7.20313 13.2031,-5.09375 C13.2031,3.79688 9.90625,7.5 3.29688,12.7031"/>
<path class="TimeSig" transform="matrix(0.992126,0,0,0.992126,317.008,198.921)" d="M27.2031,-1.59375 C32.2031,-3.5 35.7031,-6.70313 35.7031,-12.2031 C35.7031,-13.0938 35.4063,-24.4063 18.2031,-24.4063 C1,-24.4063 1.5,-12.2031 1.5,-12.2031 L1.59375,-12.2031 L1.5,-12 C1.5,-8.40625 4.40625,-5.59375 8,-5.59375 C11.5938,-5.59375 14.4063,-8.40625 14.4063,-12 C14.4063,-14.9063 12.2031,-17.7031 9.40625,-18.2969 C9.5,-18.4063 9.59375,-18.5 9.70313,-18.5938 C11.0938,-19.5938 13,-20.0938 14.9063,-20.0938 C19.0938,-20.0938 23.5938,-17.5938 23.5938,-12.2031 C23.5938,-5.90625 18.9063,-5 17.7031,-4.79688 C16.5,-4.59375 10.9063,-4.20313 9.70313,-4.20313 C8.5,-4.20313 8.40625,-2.79688 8.40625,-2.79688 L8.40625,-0.796875 C8.40625,-0.796875 8.59375,0.296875 9.70313,0.40625 C11.4063,0.5 13.7031,0.5 16.9063,1 C21.2969,1.59375 23.5938,4.59375 23.5938,11.5938 C23.5938,18.2969 19.0938,20.0938 14.9063,20.0938 C12.0938,20.0938 9.5,19.2969 8.40625,18.5 C11.7031,18.2969 14.4063,15.4063 14.4063,12.0938 C14.4063,8.5 11.5938,5.59375 8,5.59375 C4.40625,5.59375 1.5,8.5 1.5,12.0938 C1.5,20.2969 9,24.4063 16.4063,24.4063 C26,24.4063 36.4063,21.0938 36.4063,10.2031 C36.4063,2.90625 31.4063,-0.203125 27,-1.59375 L27.2031,-1.59375 "/>
<path class="TimeSig" transform="matrix(0.992126,0,0,0.992126,313.102,248.031)" d="M20.7969,12.7031 L20.7969,20.0938 L12.5,20.0938 C11.7969,20.0938 11.0938,20.7031 11.0938,21.5 L11.0938,23.4063 C11.0938,24.2031 11.7969,24.7969 12.5,24.7969 L42.7969,24.7969 C43.6094,24.7969 44.2031,24.2031 44.2031,23.4063 L44.2031,21.5 C44.2031,20.7031 43.6094,20.0938 42.7969,20.0938 L33.9063,20.0938 L33.9063,12.7031 L42.7969,12.7031 C43.6094,12.7031 44.2031,12 44.2031,11.2031 L44.2031,9.29688 C44.2031,8.59375 43.6094,7.90625 42.7969,7.90625 L33.9063,7.90625 L33.9063,-8 C33.9063,-8.59375 33.6094,-9.09375 33.1094,-9.29688 L31.9063,-9.90625 C31.7031,-10 31.4063,-10.0938 31.2031,-10.0938 C30.9063,-10 30.5,-9.90625 30.2969,-9.70313 L21.2031,-1.40625 C20.9063,-1.09375 20.7969,-0.703125 20.7969,-0.296875 L20.7969,7.90625 L9.29688,7.90625 C9.29688,7.90625 20.4063,-4.09375 32.2031,-19.9063 C32.6094,-20.4063 32.7031,-20.9063 32.7031,-21.2969 C32.7031,-21.7969 32.5,-22.2031 32.4063,-22.2969 L30.2031,-24.5 C30,-24.7031 29.6094,-24.9063 29.2031,-24.9063 C28.6094,-24.9063 15.0938,-24.9063 14.4063,-24.9063 C13.5938,-24.9063 13.0938,-24.2969 13,-23.7031 C13,-23.7031 12.5,-16.2969 9.90625,-8.20313 C7.29688,-0.09375 4.29688,4.90625 1.70313,8.59375 C1.70313,8.59375 1.40625,9.09375 1.40625,9.70313 C1.40625,9.90625 1.40625,10.0938 1.5,10.2969 C1.90625,11 2.5,12.0938 2.5,12.0938 C2.5,12.0938 2.70313,12.7031 3.59375,12.7031 L20.7969,12.7031 "/>
<path class="TimeSig" transform="matrix(0.992126,0,0,0.992126,317.008,512.725)" d="M27.2031,-1.59375 C32.2031,-3.5 35.7031,-6.70313 35.7031,-12.2031 C35.7031,-13.0938 35.4063,-24.4063 18.2031,-24.4063 C1,-24.4063 1.5,-12.2031 1.5,-12.2031 L1.59375,-12.2031 L1.5,-12 C1.5,-8.40625 4.40625,-5.59375 8,-5.59375 C11.5938,-5.59375 14.4063,-8.40625 14.4063,-12 C14.4063,-14.9063 12.2031,-17.7031 9.40625,-18.2969 C9.5,-18.4063 9.59375,-18.5 9.70313,-18.5938 C11.0938,-19.5938 13,-20.0938 14.9063,-20.0938 C19.0938,-20.0938 23.5938,-17.5938 23.5938,-12.2031 C23.5938,-5.90625 18.9063,-5 17.7031,-4.79688 C16.5,-4.59375 10.9063,-4.20313 9.70313,-4.20313 C8.5,-4.20313 8.40625,-2.79688 8.40625,-2.79688 L8.40625,-0.796875 C8.40625,-0.796875 8.59375,0.296875 9.70313,0.40625 C11.4063,0.5 13.7031,0.5 16.9063,1 C21.2969,1.59375 23.5938,4.59375 23.5938,11.5938 C23.5938,18.2969 19.0938,20.0938 14.9063,20.0938 C12.0938,20.0938 9.5,19.2969 8.40625,18.5 C11.7031,18.2969 14.4063,15.4063 14.4063,12.0938 C14.4063,8.5 11.5938,5.59375 8,5.59375 C4.40625,5.59375 1.5,8.5 1.5,12.0938 C1.5,20.2969 9,24.4063 16.4063,24.4063 C26,24.4063 36.4063,21.0938 36.4063,10.2031 C36.4063,2.90625 31.4063,-0.203125 27,-1.59375 L27.2031,-1.59375 "/>
<path class="TimeSig" transform="matrix(0.992126,0,0,0.992126,313.102,561.835)" d="M20.7969,12.7031 L20.7969,20.0938 L12.5,20.0938 C11.7969,20.0938 11.0938,20.7031 11.0938,21.5 L11.0938,23.4063 C11.0938,24.2031 11.7969,24.7969 12.5,24.7969 L42.7969,24.7969 C43.6094,24.7969 44.2031,24.2031 44.2031,23.4063 L44.2031,21.5 C44.2031,20.7031 43.6094,20.0938 42.7969,20.0938 L33.9063,20.0938 L33.9063,12.7031 L42.7969,12.7031 C43.6094,12.7031 44.2031,12 44.2031,11.2031 L44.2031,9.29688 C44.2031,8.59375 43.6094,7.90625 42.7969,7.90625 L33.9063,7.90625 L33.9063,-8 C33.9063,-8.59375 33.6094,-9.09375 33.1094,-9.29688 L31.9063,-9.90625 C31.7031,-10 31.4063,-10.0938 31.2031,-10.0938 C30.9063,-10 30.5,-9.90625 30.2969,-9.70313 L21.2031,-1.40625 C20.9063,-1.09375 20.7969,-0.703125 20.7969,-0.296875 L20.7969,7.90625 L9.29688,7.90625 C9.29688,7.90625 20.4063,-4.09375 32.2031,-19.9063 C32.6094,-20.4063 32.7031,-20.9063 32.7031,-21.2969 C32.7031,-21.7969 32.5,-22.2031 32.4063,-22.2969 L30.2031,-24.5 C30,-24.7031 29.6094,-24.9063 29.2031,-24.9063 C28.6094,-24.9063 15.0938,-24.9063 14.4063,-24.9063 C13.5938,-24.9063 13.0938,-24.2969 13,-23.7031 C13,-23.7031 12.5,-16.2969 9.90625,-8.20313 C7.29688,-0.09375 4.29688,4.90625 1.70313,8.59375 C1.70313,8.59375 1.40625,9.09375 1.40625,9.70313 C1.40625,9.90625 1.40625,10.0938 1.5,10.2969 C1.90625,11 2.5,12.0938 2.5,12.0938 C2.5,12.0938 2.70313,12.7031 3.59375,12.7031 L20.7969,12.7031 "/>
<path class="Rest" transform="matrix(0.992126,0,0,0.992126,936.553,487.426)" d="M23,16.5938 C22.9063,16.5 22.7031,16.2969 22.4063,15.9063 L10.9063,1.70313 C10.7969,1.59375 10.7031,1.29688 10.7031,1.09375 C10.7031,0.796875 10.7969,0.40625 10.9063,0.203125 L21.0938,-15.2031 C21.2031,-15.4063 21.2969,-15.7031 21.2969,-15.9063 L21.2969,-16.7969 C21.2969,-17.0938 21.2031,-17.4063 21,-17.5938 L4.79688,-39.5 C4.79688,-39.5 4.40625,-40.1094 3.79688,-40.1094 C3.5,-40.1094 3.29688,-40.1094 3,-39.7969 C2.59375,-39.5 2.5,-39.1094 2.5,-38.7969 C2.5,-38.2031 2.79688,-37.7031 2.79688,-37.7031 L10.4063,-27.2969 C10.5938,-27 10.7031,-26.6094 10.7031,-26.1094 C10.7031,-25.7031 10.5938,-25.2031 10.4063,-24.9063 L0.296875,-9.5 C0.203125,-9.29688 0.09375,-8.90625 0.09375,-8.70313 L0.09375,-7.79688 C0.09375,-7.5 0.203125,-7.20313 0.40625,-7 L11.5938,6.90625 C11.2031,6.79688 10.2969,6.59375 9.09375,6.59375 C4,6.59375 0,10.7969 0,15.9063 C0,17.2969 0.296875,18.7031 1.09375,19.7969 C3.20313,23 10.7031,32.5 10.7031,32.5 C10.7031,32.5 11.2031,33.1094 11.9063,33.1094 C12.0938,33.1094 12.2969,33.1094 12.5,32.9063 C13,32.5 13.2031,32.1094 13.2031,31.7031 C13.2031,31.2969 13,31 12.9063,30.7969 C12.5938,30.2969 9.40625,24.5 9.40625,24.5 C9.40625,24.5 8.70313,23.0938 8.70313,21.2969 C8.70313,18.0938 11.0938,15.5 14.2969,15.5 C15.5938,15.5 16.7031,15.9063 17.5,16.4063 L21.4063,18.9063 C21.4063,18.9063 21.7969,19.0938 22.2031,19.0938 C22.5938,19.0938 22.9063,19 23.2031,18.5938 C23.4063,18.2969 23.5,18 23.5,17.7031 C23.5,17.4063 23.4063,17.2031 23.2031,16.9063 L23,16.5938 "/>
<path class="Rest" transform="matrix(0.992126,0,0,0.992126,1472.5,487.426)" d="M23,16.5938 C22.9063,16.5 22.7031,16.2969 22.4063,15.9063 L10.9063,1.70313 C10.7969,1.59375 10.7031,1.29688 10.7031,1.09375 C10.7031,0.796875 10.7969,0.40625 10.9063,0.203125 L21.0938,-15.2031 C21.2031,-15.4063 21.2969,-15.7031 21.2969,-15.9063 L21.2969,-16.7969 C21.2969,-17.0938 21.2031,-17.4063 21,-17.5938 L4.79688,-39.5 C4.79688,-39.5 4.40625,-40.1094 3.79688,-40.1094 C3.5,-40.1094 3.29688,-40.1094 3,-39.7969 C2.59375,-39.5 2.5,-39.1094 2.5,-38.7969 C2.5,-38.2031 2.79688,-37.7031 2.79688,-37.7031 L10.4063,-27.2969 C10.5938,-27 10.7031,-26.6094 10.7031,-26.1094 C10.7031,-25.7031 10.5938,-25.2031 10.4063,-24.9063 L0.296875,-9.5 C0.203125,-9.29688 0.09375,-8.90625 0.09375,-8.70313 L0.09375,-7.79688 C0.09375,-7.5 0.203125,-7.20313 0.40625,-7 L11.5938,6.90625 C11.2031,6.79688 10.2969,6.59375 9.09375,6.59375 C4,6.59375 0,10.7969 0,15.9063 C0,17.2969 0.296875,18.7031 1.09375,19.7969 C3.20313,23 10.7031,32.5 10.7031,32.5 C10.7031,32.5 11.2031,33.1094 11.9063,33.1094 C12.0938,33.1094 12.2969,33.1094 12.5,32.9063 C13,32.5 13.2031,32.1094 13.2031,31.7031 C13.2031,31.2969 13,31 12.9063,30.7969 C12.5938,30.2969 9.40625,24.5 9.40625,24.5 C9.40625,24.5 8.70313,23.0938 8.70313,21.2969 C8.70313,18.0938 11.0938,15.5 14.2969,15.5 C15.5938,15.5 16.7031,15.9063 17.5,16.4063 L21.4063,18.9063 C21.4063,18.9063 21.7969,19.0938 22.2031,19.0938 C22.5938,19.0938 22.9063,19 23.2031,18.5938 C23.4063,18.2969 23.5,18 23.5,17.7031 C23.5,17.4063 23.4063,17.2031 23.2031,16.9063 L23,16.5938 "/>
<path class="Rest" transform="matrix(0.992126,0,0,0.992126,2044.7,487.426)" d="M23,16.5938 C22.9063,16.5 22.7031,16.2969 22.4063,15.9063 L10.9063,1.70313 C10.7969,1.59375 10.7031,1.29688 10.7031,1.09375 C10.7031,0.796875 10.7969,0.40625 10.9063,0.203125 L21.0938,-15.2031 C21.2031,-15.4063 21.2969,-15.7031 21.2969,-15.9063 L21.2969,-16.7969 C21.2969,-17.0938 21.2031,-17.4063 21,-17.5938 L4.79688,-39.5 C4.79688,-39.5 4.40625,-40.1094 3.79688,-40.1094 C3.5,-40.1094 3.29688,-40.1094 3,-39.7969 C2.59375,-39.5 2.5,-39.1094 2.5,-38.7969 C2.5,-38.2031 2.79688,-37.7031 2.79688,-37.7031 L10.4063,-27.2969 C10.5938,-27 10.7031,-26.6094 10.7031,-26.1094 C10.7031,-25.7031 10.5938,-25.2031 10.4063,-24.9063 L0.296875,-9.5 C0.203125,-9.29688 0.09375,-8.90625 0.09375,-8.70313 L0.09375,-7.79688 C0.09375,-7.5 0.203125,-7.20313 0.40625,-7 L11.5938,6.90625 C11.2031,6.79688 10.2969,6.59375 9.09375,6.59375 C4,6.59375 0,10.7969 0,15.9063 C0,17.2969 0.296875,18.7031 1.09375,19.7969 C3.20313,23 10.7031,32.5 10.7031,32.5 C10.7031,32.5 11.2031,33.1094 11.9063,33.1094 C12.0938,33.1094 12.2969,33.1094 12.5,32.9063 C13,32.5 13.2031,32.1094 13.2031,31.7031 C13.2031,31.2969 13,31 12.9063,30.7969 C12.5938,30.2969 9.40625,24.5 9.40625,24.5 C9.40625,24.5 8.70313,23.0938 8.70313,21.2969 C8.70313,18.0938 11.0938,15.5 14.2969,15.5 C15.5938,15.5 16.7031,15.9063 17.5,16.4063 L21.4063,18.9063 C21.4063,18.9063 21.7969,19.0938 22.2031,19.0938 C22.5938,19.0938 22.9063,19 23.2031,18.5938 C23.4063,18.2969 23.5,18 23.5,17.7031 C23.5,17.4063 23.4063,17.2031 23.2031,16.9063 L23,16.5938 "/>
<path class="Rest" transform="matrix(0.992126,0,0,0.992126,1651.21,611.441)" d="M23,16.5938 C22.9063,16.5 22.7031,16.2969 22.4063,15.9063 L10.9063,1.70313 C10.7969,1.59375 10.7031,1.29688 10.7031,1.09375 C10.7031,0.796875 10.7969,0.40625 10.9063,0.203125 L21.0938,-15.2031 C21.2031,-15.4063 21.2969,-15.7031 21.2969,-15.9063 L21.2969,-16.7969 C21.2969,-17.0938 21.2031,-17.4063 21,-17.5938 L4.79688,-39.5 C4.79688,-39.5 4.40625,-40.1094 3.79688,-40.1094 C3.5,-40.1094 3.29688,-40.1094 3,-39.7969 C2.59375,-39.5 2.5,-39.1094 2.5,-38.7969 C2.5,-38.2031 2.79688,-37.7031 2.79688,-37.7031 L10.4063,-27.2969 C10.5938,-27 10.7031,-26.6094 10.7031,-26.1094 C10.7031,-25.7031 10.5938,-25.2031 10.4063,-24.9063 L0.296875,-9.5 C0.203125,-9.29688 0.09375,-8.90625 0.09375,-8.70313 L0.09375,-7.79688 C0.09375,-7.5 0.203125,-7.20313 0.40625,-7 L11.5938,6.90625 C11.2031,6.79688 10.2969,6.59375 9.09375,6.59375 C4,6.59375 0,10.7969 0,15.9063 C0,17.2969 0.296875,18.7031 1.09375,19.7969 C3.20313,23 10.7031,32.5 10.7031,32.5 C10.7031,32.5 11.2031,33.1094 11.9063,33.1094 C12.0938,33.1094 12.2969,33.1094 12.5,32.9063 C13,32.5 13.2031,32.1094 13.2031,31.7031 C13.2031,31.2969 13,31 12.9063,30.7969 C12.5938,30.2969 9.40625,24.5 9.40625,24.5 C9.40625,24.5 8.70313,23.0938 8.70313,21.2969 C8.70313,18.0938 11.0938,15.5 14.2969,15.5 C15.5938,15.5 16.7031,15.9063 17.5,16.4063 L21.4063,18.9063 C21.4063,18.9063 21.7969,19.0938 22.2031,19.0938 C22.5938,19.0938 22.9063,19 23.2031,18.5938 C23.4063,18.2969 23.5,18 23.5,17.7031 C23.5,17.4063 23.4063,17.2031 23.2031,16.9063 L23,16.5938 "/>
<path class="Rest" transform="matrix(0.992126,0,0,0.992126,1089.38,611.441)" d="M23,16.5938 C22.9063,16.5 22.7031,16.2969 22.4063,15.9063 L10.9063,1.70313 C10.7969,1.59375 10.7031,1.29688 10.7031,1.09375 C10.7031,0.796875 10.7969,0.40625 10.9063,0.203125 L21.0938,-15.2031 C21.2031,-15.4063 21.2969,-15.7031 21.2969,-15.9063 L21.2969,-16.7969 C21.2969,-17.0938 21.2031,-17.4063 21,-17.5938 L4.79688,-39.5 C4.79688,-39.5 4.40625,-40.1094 3.79688,-40.1094 C3.5,-40.1094 3.29688,-40.1094 3,-39.7969 C2.59375,-39.5 2.5,-39.1094 2.5,-38.7969 C2.5,-38.2031 2.79688,-37.7031 2.79688,-37.7031 L10.4063,-27.2969 C10.5938,-27 10.7031,-26.6094 10.7031,-26.1094 C10.7031,-25.7031 10.5938,-25.2031 10.4063,-24.9063 L0.296875,-9.5 C0.203125,-9.29688 0.09375,-8.90625 0.09375,-8.70313 L0.09375,-7.79688 C0.09375,-7.5 0.203125,-7.20313 0.40625,-7 L11.5938,6.90625 C11.2031,6.79688 10.2969,6.59375 9.09375,6.59375 C4,6.59375 0,10.7969 0,15.9063 C0,17.2969 0.296875,18.7031 1.09375,19.7969 C3.20313,23 10.7031,32.5 10.7031,32.5 C10.7031,32.5 11.2031,33.1094 11.9063,33.1094 C12.0938,33.1094 12.2969,33.1094 12.5,32.9063 C13,32.5 13.2031,32.1094 13.2031,31.7031 C13.2031,31.2969 13,31 12.9063,30.7969 C12.5938,30.2969 9.40625,24.5 9.40625,24.5 C9.40625,24.5 8.70313,23.0938 8.70313,21.2969 C8.70313,18.0938 11.0938,15.5 14.2969,15.5 C15.5938,15.5 16.7031,15.9063 17.5,16.4063 L21.4063,18.9063 C21.4063,18.9063 21.7969,19.0938 22.2031,19.0938 C22.5938,19.0938 22.9063,19 23.2031,18.5938 C23.4063,18.2969 23.5,18 23.5,17.7031 C23.5,17.4063 23.4063,17.2031 23.2031,16.9063 L23,16.5938 "/>
<path class="Rest" transform="matrix(0.992126,0,0,0.992126,2197.52,611.441)" d="M23,16.5938 C22.9063,16.5 22.7031,16.2969 22.4063,15.9063 L10.9063,1.70313 C10.7969,1.59375 10.7031,1.29688 10.7031,1.09375 C10.7031,0.796875 10.7969,0.40625 10.9063,0.203125 L21.0938,-15.2031 C21.2031,-15.4063 21.2969,-15.7031 21.2969,-15.9063 L21.2969,-16.7969 C21.2969,-17.0938 21.2031,-17.4063 21,-17.5938 L4.79688,-39.5 C4.79688,-39.5 4.40625,-40.1094 3.79688,-40.1094 C3.5,-40.1094 3.29688,-40.1094 3,-39.7969 C2.59375,-39.5 2.5,-39.1094 2.5,-38.7969 C2.5,-38.2031 2.79688,-37.7031 2.79688,-37.7031 L10.4063,-27.2969 C10.5938,-27 10.7031,-26.6094 10.7031,-26.1094 C10.7031,-25.7031 10.5938,-25.2031 10.4063,-24.9063 L0.296875,-9.5 C0.203125,-9.29688 0.09375,-8.90625 0.09375,-8.70313 L0.09375,-7.79688 C0.09375,-7.5 0.203125,-7.20313 0.40625,-7 L11.5938,6.90625 C11.2031,6.79688 10.2969,6.59375 9.09375,6.59375 C4,6.59375 0,10.7969 0,15.9063 C0,17.2969 0.296875,18.7031 1.09375,19.7969 C3.20313,23 10.7031,32.5 10.7031,32.5 C10.7031,32.5 11.2031,33.1094 11.9063,33.1094 C12.0938,33.1094 12.2969,33.1094 12.5,32.9063 C13,32.5 13.2031,32.1094 13.2031,31.7031 C13.2031,31.2969 13,31 12.9063,30.7969 C12.5938,30.2969 9.40625,24.5 9.40625,24.5 C9.40625,24.5 8.70313,23.0938 8.70313,21.2969 C8.70313,18.0938 11.0938,15.5 14.2969,15.5 C15.5938,15.5 16.7031,15.9063 17.5,16.4063 L21.4063,18.9063 C21.4063,18.9063 21.7969,19.0938 22.2031,19.0938 C22.5938,19.0938 22.9063,19 23.2031,18.5938 C23.4063,18.2969 23.5,18 23.5,17.7031 C23.5,17.4063 23.4063,17.2031 23.2031,16.9063 L23,16.5938 "/>
<path class="Rest" transform="matrix(0.992126,0,0,0.992126,575.694,611.441)" d="M23,16.5938 C22.9063,16.5 22.7031,16.2969 22.4063,15.9063 L10.9063,1.70313 C10.7969,1.59375 10.7031,1.29688 10.7031,1.09375 C10.7031,0.796875 10.7969,0.40625 10.9063,0.203125 L21.0938,-15.2031 C21.2031,-15.4063 21.2969,-15.7031 21.2969,-15.9063 L21.2969,-16.7969 C21.2969,-17.0938 21.2031,-17.4063 21,-17.5938 L4.79688,-39.5 C4.79688,-39.5 4.40625,-40.1094 3.79688,-40.1094 C3.5,-40.1094 3.29688,-40.1094 3,-39.7969 C2.59375,-39.5 2.5,-39.1094 2.5,-38.7969 C2.5,-38.2031 2.79688,-37.7031 2.79688,-37.7031 L10.4063,-27.2969 C10.5938,-27 10.7031,-26.6094 10.7031,-26.1094 C10.7031,-25.7031 10.5938,-25.2031 10.4063,-24.9063 L0.296875,-9.5 C0.203125,-9.29688 0.09375,-8.90625 0.09375,-8.70313 L0.09375,-7.79688 C0.09375,-7.5 0.203125,-7.20313 0.40625,-7 L11.5938,6.90625 C11.2031,6.79688 10.2969,6.59375 9.09375,6.59375 C4,6.59375 0,10.7969 0,15.9063 C0,17.2969 0.296875,18.7031 1.09375,19.7969 C3.20313,23 10.7031,32.5 10.7031,32.5 C10.7031,32.5 11.2031,33.1094 11.9063,33.1094 C12.0938,33.1094 12.2969,33.1094 12.5,32.9063 C13,32.5 13.2031,32.1094 13.2031,31.7031 C13.2031,31.2969 13,31 12.9063,30.7969 C12.5938,30.2969 9.40625,24.5 9.40625,24.5 C9.40625,24.5 8.70313,23.0938 8.70313,21.2969 C8.70313,18.0938 11.0938,15.5 14.2969,15.5 C15.5938,15.5 16.7031,15.9063 17.5,16.4063 L21.4063,18.9063 C21.4063,18.9063 21.7969,19.0938 22.2031,19.0938 C22.5938,19.0938 22.9063,19 23.2031,18.5938 C23.4063,18.2969 23.5,18 23.5,17.7031 C23.5,17.4063 23.4063,17.2031 23.2031,16.9063 L23,16.5938 "/>
<path class="Rest" transform="matrix(0.992126,0,0,0.992126,406.555,512.229)" d="M23,16.5938 C22.9063,16.5 22.7031,16.2969 22.4063,15.9063 L10.9063,1.70313 C10.7969,1.59375 10.7031,1.29688 10.7031,1.09375 C10.7031,0.796875 10.7969,0.40625 10.9063,0.203125 L21.0938,-15.2031 C21.2031,-15.4063 21.2969,-15.7031 21.2969,-15.9063 L21.2969,-16.7969 C21.2969,-17.0938 21.2031,-17.4063 21,-17.5938 L4.79688,-39.5 C4.79688,-39.5 4.40625,-40.1094 3.79688,-40.1094 C3.5,-40.1094 3.29688,-40.1094 3,-39.7969 C2.59375,-39.5 2.5,-39.1094 2.5,-38.7969 C2.5,-38.2031 2.79688,-37.7031 2.79688,-37.7031 L10.4063,-27.2969 C10.5938,-27 10.7031,-26.6094 10.7031,-26.1094 C10.7031,-25.7031 10.5938,-25.2031 10.4063,-24.9063 L0.296875,-9.5 C0.203125,-9.29688 0.09375,-8.90625 0.09375,-8.70313 L0.09375,-7.79688 C0.09375,-7.5 0.203125,-7.20313 0.40625,-7 L11.5938,6.90625 C11.2031,6.79688 10.2969,6.59375 9.09375,6.59375 C4,6.59375 0,10.7969 0,15.9063 C0,17.2969 0.296875,18.7031 1.09375,19.7969 C3.20313,23 10.7031,32.5 10.7031,32.5 C10.7031,32.5 11.2031,33.1094 11.9063,33.1094 C12.0938,33.1094 12.2969,33.1094 12.5,32.9063 C13,32.5 13.2031,32.1094 13.2031,31.7031 C13.2031,31.2969 13,31 12.9063,30.7969 C12.5938,30.2969 9.40625,24.5 9.40625,24.5 C9.40625,24.5 8.70313,23.0938 8.70313,21.2969 C8.70313,18.0938 11.0938,15.5 14.2969,15.5 C15.5938,15.5 16.7031,15.9063 17.5,16.4063 L21.4063,18.9063 C21.4063,18.9063 21.7969,19.0938 22.2031,19.0938 C22.5938,19.0938 22.9063,19 23.2031,18.5938 C23.4063,18.2969 23.5,18 23.5,17.7031 C23.5,17.4063 23.4063,17.2031 23.2031,16.9063 L23,16.5938 "/>
<path class="Beam" fill-rule="evenodd" d="M2044.7,353.401 L2149.06,341 L2149.06,353.489 L2044.7,365.89 L2044.7,353.401 "/>
<path class="Beam" fill-rule="evenodd" d="M936.553,341 L1040.92,328.598 L1040.92,341.087 L936.553,353.489 L936.553,341 "/>
<path class="Beam" fill-rule="evenodd" d="M1472.5,210.799 L1602.75,223.2 L1602.75,235.658 L1472.5,223.256 L1472.5,210.799 "/>
<path class="Beam" fill-rule="evenodd" d="M2354.21,272.835 L2458.58,272.835 L2458.58,285.236 L2354.21,285.236 L2354.21,272.835 "/>
<path class="Beam" fill-rule="evenodd" d="M406.555,235.597 L527.233,247.999 L527.233,260.466 L406.555,248.064 L406.555,235.597 "/>
<path class="Beam" fill-rule="evenodd" d="M2884.21,353.401 L2988.57,341 L2988.57,353.489 L2884.21,365.89 L2884.21,353.401 "/>
<path class="Beam" fill-rule="evenodd" d="M2197.52,272.791 L2301.89,260.389 L2301.89,272.878 L2197.52,285.28 L2197.52,272.791 "/>
<path class="Beam" fill-rule="evenodd" d="M1246.07,266.634 L1350.43,266.634 L1350.43,279.035 L1246.07,279.035 L1246.07,266.634 "/>
<path class="Beam" fill-rule="evenodd" d="M2562.25,235.597 L2682.92,247.999 L2682.92,260.466 L2562.25,248.064 L2562.25,235.597 "/>
<path class="Beam" fill-rule="evenodd" d="M728.519,353.401 L832.883,341 L832.883,353.489 L728.519,365.89 L728.519,353.401 "/>
<path class="Beam" fill-rule="evenodd" d="M1089.38,266.623 L1193.74,260.422 L1193.74,272.846 L1089.38,279.046 L1089.38,266.623 "/>
<path class="Beam" fill-rule="evenodd" d="M1651.21,291.404 L1771.89,303.806 L1771.89,316.273 L1651.21,303.871 L1651.21,291.404 "/>
<path class="Beam" fill-rule="evenodd" d="M2731.39,303.795 L2835.75,316.197 L2835.75,328.685 L2731.39,316.284 L2731.39,303.795 "/>
<path class="Beam" fill-rule="evenodd" d="M1836.66,341.043 L1941.03,341.043 L1941.03,353.445 L1836.66,353.445 L1836.66,341.043 "/>
<path class="Beam" fill-rule="evenodd" d="M575.694,303.795 L680.058,316.197 L680.058,328.685 L575.694,316.284 L575.694,303.795 "/>
<path class="Tuplet" d="M2939.45,391.436 C2941.57,390.764 2942.42,390.389 2943.5,389.671 C2945.62,388.28 2946.92,385.811 2946.92,383.28 C2946.92,379.014 2943.5,376.139 2938.47,376.139 C2933.56,376.139 2929.42,379.186 2929.42,382.889 C2929.42,384.733 2930.54,385.983 2932.25,385.983 C2933.73,385.983 2934.82,384.905 2934.82,383.421 C2934.82,382.655 2934.59,382.124 2933.87,381.405 C2933.42,380.999 2933.25,380.671 2933.25,380.358 C2933.25,379.28 2935.5,378.155 2937.61,378.155 C2940.62,378.155 2942.42,379.827 2942.42,382.608 C2942.42,386.624 2939.59,390.389 2936.57,390.389 C2936.43,390.389 2936.03,390.358 2935.54,390.311 C2934.23,390.218 2934.23,390.218 2933.97,390.218 C2932.97,390.218 2932.43,390.671 2932.43,391.483 C2932.43,392.202 2932.93,392.639 2933.73,392.639 C2933.97,392.639 2934.28,392.608 2934.64,392.561 C2935.26,392.421 2935.95,392.374 2936.34,392.374 C2938.47,392.374 2939.9,394.264 2939.9,397.061 C2939.9,401.921 2937.51,406.593 2932.07,406.593 C2929.56,406.593 2927.39,405.343 2927.39,403.889 C2927.39,403.405 2927.57,403.218 2928.29,402.905 C2929.59,402.327 2930.14,401.514 2930.14,400.296 C2930.14,398.718 2928.87,397.514 2927.26,397.514 C2925.32,397.514 2924.06,399.03 2924.06,401.374 C2924.06,405.749 2927.39,408.483 2932.79,408.483 C2939.59,408.483 2944.76,403.936 2944.76,397.905 C2944.76,394.405 2942.61,392.421 2939.45,391.436"/>
<path class="Tuplet" d="M783.758,391.436 C785.883,390.764 786.727,390.389 787.805,389.671 C789.93,388.28 791.227,385.811 791.227,383.28 C791.227,379.014 787.805,376.139 782.774,376.139 C777.867,376.139 773.727,379.186 773.727,382.889 C773.727,384.733 774.852,385.983 776.555,385.983 C778.039,385.983 779.133,384.905 779.133,383.421 C779.133,382.655 778.899,382.124 778.18,381.405 C777.727,380.999 777.555,380.671 777.555,380.358 C777.555,379.28 779.805,378.155 781.914,378.155 C784.93,378.155 786.727,379.827 786.727,382.608 C786.727,386.624 783.899,390.389 780.883,390.389 C780.742,390.389 780.336,390.358 779.852,390.311 C778.539,390.218 778.539,390.218 778.274,390.218 C777.274,390.218 776.742,390.671 776.742,391.483 C776.742,392.202 777.242,392.639 778.039,392.639 C778.274,392.639 778.586,392.608 778.946,392.561 C779.571,392.421 780.258,392.374 780.649,392.374 C782.774,392.374 784.211,394.264 784.211,397.061 C784.211,401.921 781.821,406.593 776.383,406.593 C773.867,406.593 771.696,405.343 771.696,403.889 C771.696,403.405 771.883,403.218 772.602,402.905 C773.899,402.327 774.446,401.514 774.446,400.296 C774.446,398.718 773.18,397.514 771.571,397.514 C769.633,397.514 768.367,399.03 768.367,401.374 C768.367,405.749 771.696,408.483 777.102,408.483 C783.899,408.483 789.071,403.936 789.071,397.905 C789.071,394.405 786.914,392.421 783.758,391.436"/>
<path class="Tuplet" d="M1540.68,302.964 C1542.81,302.292 1543.65,301.917 1544.73,301.198 C1546.86,299.807 1548.15,297.339 1548.15,294.807 C1548.15,290.542 1544.73,287.667 1539.7,287.667 C1534.79,287.667 1530.65,290.714 1530.65,294.417 C1530.65,296.26 1531.78,297.51 1533.48,297.51 C1534.96,297.51 1536.06,296.432 1536.06,294.948 C1536.06,294.182 1535.82,293.651 1535.11,292.932 C1534.65,292.526 1534.48,292.198 1534.48,291.885 C1534.48,290.807 1536.73,289.682 1538.84,289.682 C1541.86,289.682 1543.65,291.354 1543.65,294.135 C1543.65,298.151 1540.82,301.917 1537.81,301.917 C1537.67,301.917 1537.26,301.885 1536.78,301.839 C1535.46,301.745 1535.46,301.745 1535.2,301.745 C1534.2,301.745 1533.67,302.198 1533.67,303.01 C1533.67,303.729 1534.17,304.167 1534.96,304.167 C1535.2,304.167 1535.51,304.135 1535.87,304.089 C1536.5,303.948 1537.18,303.901 1537.57,303.901 C1539.7,303.901 1541.14,305.792 1541.14,308.589 C1541.14,313.448 1538.75,318.12 1533.31,318.12 C1530.79,318.12 1528.62,316.87 1528.62,315.417 C1528.62,314.932 1528.81,314.745 1529.53,314.432 C1530.82,313.854 1531.37,313.042 1531.37,311.823 C1531.37,310.245 1530.11,309.042 1528.5,309.042 C1526.56,309.042 1525.29,310.557 1525.29,312.901 C1525.29,317.276 1528.62,320.01 1534.03,320.01 C1540.82,320.01 1546,315.464 1546,309.432 C1546,305.932 1543.84,303.948 1540.68,302.964"/>
<path class="Tuplet" d="M991.791,379.035 C993.916,378.363 994.76,377.988 995.838,377.269 C997.963,375.879 999.26,373.41 999.26,370.879 C999.26,366.613 995.838,363.738 990.807,363.738 C985.901,363.738 981.76,366.785 981.76,370.488 C981.76,372.332 982.885,373.582 984.588,373.582 C986.073,373.582 987.166,372.504 987.166,371.019 C987.166,370.254 986.932,369.722 986.213,369.004 C985.76,368.597 985.588,368.269 985.588,367.957 C985.588,366.879 987.838,365.754 989.948,365.754 C992.963,365.754 994.76,367.425 994.76,370.207 C994.76,374.222 991.932,377.988 988.916,377.988 C988.776,377.988 988.369,377.957 987.885,377.91 C986.573,377.816 986.573,377.816 986.307,377.816 C985.307,377.816 984.776,378.269 984.776,379.082 C984.776,379.8 985.276,380.238 986.073,380.238 C986.307,380.238 986.619,380.207 986.979,380.16 C987.604,380.019 988.291,379.972 988.682,379.972 C990.807,379.972 992.244,381.863 992.244,384.66 C992.244,389.519 989.854,394.191 984.416,394.191 C981.901,394.191 979.729,392.941 979.729,391.488 C979.729,391.004 979.916,390.816 980.635,390.504 C981.932,389.925 982.479,389.113 982.479,387.894 C982.479,386.316 981.213,385.113 979.604,385.113 C977.666,385.113 976.401,386.629 976.401,388.972 C976.401,393.347 979.729,396.082 985.135,396.082 C991.932,396.082 997.104,391.535 997.104,385.504 C997.104,382.004 994.948,380.019 991.791,379.035"/>
<path class="Tuplet" d="M2409.45,315.365 C2411.58,314.693 2412.42,314.318 2413.5,313.6 C2415.62,312.209 2416.92,309.74 2416.92,307.209 C2416.92,302.943 2413.5,300.068 2408.47,300.068 C2403.56,300.068 2399.42,303.115 2399.42,306.818 C2399.42,308.662 2400.55,309.912 2402.25,309.912 C2403.73,309.912 2404.83,308.834 2404.83,307.35 C2404.83,306.584 2404.59,306.053 2403.87,305.334 C2403.42,304.928 2403.25,304.6 2403.25,304.287 C2403.25,303.209 2405.5,302.084 2407.61,302.084 C2410.62,302.084 2412.42,303.756 2412.42,306.537 C2412.42,310.553 2409.59,314.318 2406.58,314.318 C2406.44,314.318 2406.03,314.287 2405.55,314.24 C2404.23,314.146 2404.23,314.146 2403.97,314.146 C2402.97,314.146 2402.44,314.6 2402.44,315.412 C2402.44,316.131 2402.94,316.568 2403.73,316.568 C2403.97,316.568 2404.28,316.537 2404.64,316.49 C2405.26,316.35 2405.95,316.303 2406.34,316.303 C2408.47,316.303 2409.91,318.193 2409.91,320.99 C2409.91,325.85 2407.51,330.521 2402.08,330.521 C2399.56,330.521 2397.39,329.271 2397.39,327.818 C2397.39,327.334 2397.58,327.146 2398.3,326.834 C2399.59,326.256 2400.14,325.443 2400.14,324.225 C2400.14,322.646 2398.87,321.443 2397.26,321.443 C2395.33,321.443 2394.06,322.959 2394.06,325.303 C2394.06,329.678 2397.39,332.412 2402.8,332.412 C2409.59,332.412 2414.76,327.865 2414.76,321.834 C2414.76,318.334 2412.61,316.35 2409.45,315.365"/>
<path class="Tuplet" d="M1301.31,309.164 C1303.43,308.492 1304.28,308.117 1305.35,307.399 C1307.48,306.008 1308.78,303.539 1308.78,301.008 C1308.78,296.742 1305.35,293.867 1300.32,293.867 C1295.42,293.867 1291.28,296.914 1291.28,300.617 C1291.28,302.461 1292.4,303.711 1294.1,303.711 C1295.59,303.711 1296.68,302.633 1296.68,301.149 C1296.68,300.383 1296.45,299.852 1295.73,299.133 C1295.28,298.727 1295.1,298.399 1295.1,298.086 C1295.1,297.008 1297.35,295.883 1299.46,295.883 C1302.48,295.883 1304.28,297.555 1304.28,300.336 C1304.28,304.352 1301.45,308.117 1298.43,308.117 C1298.29,308.117 1297.89,308.086 1297.4,308.039 C1296.09,307.946 1296.09,307.946 1295.82,307.946 C1294.82,307.946 1294.29,308.399 1294.29,309.211 C1294.29,309.93 1294.79,310.367 1295.59,310.367 C1295.82,310.367 1296.14,310.336 1296.49,310.289 C1297.12,310.149 1297.81,310.102 1298.2,310.102 C1300.32,310.102 1301.76,311.992 1301.76,314.789 C1301.76,319.649 1299.37,324.321 1293.93,324.321 C1291.42,324.321 1289.24,323.071 1289.24,321.617 C1289.24,321.133 1289.43,320.946 1290.15,320.633 C1291.45,320.055 1291.99,319.242 1291.99,318.024 C1291.99,316.446 1290.73,315.242 1289.12,315.242 C1287.18,315.242 1285.92,316.758 1285.92,319.102 C1285.92,323.477 1289.24,326.211 1294.65,326.211 C1301.45,326.211 1306.62,321.664 1306.62,315.633 C1306.62,312.133 1304.46,310.149 1301.31,309.164"/>
<path class="Tuplet" d="M2252.76,310.826 C2254.89,310.154 2255.73,309.779 2256.81,309.06 C2258.93,307.67 2260.23,305.201 2260.23,302.67 C2260.23,298.404 2256.81,295.529 2251.78,295.529 C2246.87,295.529 2242.73,298.576 2242.73,302.279 C2242.73,304.123 2243.86,305.373 2245.56,305.373 C2247.04,305.373 2248.14,304.295 2248.14,302.81 C2248.14,302.045 2247.9,301.514 2247.18,300.795 C2246.73,300.389 2246.56,300.06 2246.56,299.748 C2246.56,298.67 2248.81,297.545 2250.92,297.545 C2253.93,297.545 2255.73,299.217 2255.73,301.998 C2255.73,306.014 2252.9,309.779 2249.89,309.779 C2249.75,309.779 2249.34,309.748 2248.86,309.701 C2247.54,309.607 2247.54,309.607 2247.28,309.607 C2246.28,309.607 2245.75,310.06 2245.75,310.873 C2245.75,311.592 2246.25,312.029 2247.04,312.029 C2247.28,312.029 2247.59,311.998 2247.95,311.951 C2248.57,311.81 2249.26,311.764 2249.65,311.764 C2251.78,311.764 2253.21,313.654 2253.21,316.451 C2253.21,321.31 2250.82,325.982 2245.39,325.982 C2242.87,325.982 2240.7,324.732 2240.7,323.279 C2240.7,322.795 2240.89,322.607 2241.61,322.295 C2242.9,321.717 2243.45,320.904 2243.45,319.685 C2243.45,318.107 2242.18,316.904 2240.57,316.904 C2238.64,316.904 2237.37,318.42 2237.37,320.764 C2237.37,325.139 2240.7,327.873 2246.11,327.873 C2252.9,327.873 2258.07,323.326 2258.07,317.295 C2258.07,313.795 2255.92,311.81 2252.76,310.826"/>
<path class="Tuplet" d="M469.951,302.964 C472.076,302.292 472.919,301.917 473.998,301.198 C476.123,299.807 477.419,297.339 477.419,294.807 C477.419,290.542 473.998,287.667 468.966,287.667 C464.06,287.667 459.919,290.714 459.919,294.417 C459.919,296.26 461.044,297.51 462.748,297.51 C464.232,297.51 465.326,296.432 465.326,294.948 C465.326,294.182 465.091,293.651 464.373,292.932 C463.919,292.526 463.748,292.198 463.748,291.885 C463.748,290.807 465.998,289.682 468.107,289.682 C471.123,289.682 472.919,291.354 472.919,294.135 C472.919,298.151 470.091,301.917 467.076,301.917 C466.935,301.917 466.529,301.885 466.044,301.839 C464.732,301.745 464.732,301.745 464.466,301.745 C463.466,301.745 462.935,302.198 462.935,303.01 C462.935,303.729 463.435,304.167 464.232,304.167 C464.466,304.167 464.779,304.135 465.138,304.089 C465.763,303.948 466.451,303.901 466.841,303.901 C468.966,303.901 470.404,305.792 470.404,308.589 C470.404,313.448 468.013,318.12 462.576,318.12 C460.06,318.12 457.888,316.87 457.888,315.417 C457.888,314.932 458.076,314.745 458.794,314.432 C460.091,313.854 460.638,313.042 460.638,311.823 C460.638,310.245 459.373,309.042 457.763,309.042 C455.826,309.042 454.56,310.557 454.56,312.901 C454.56,317.276 457.888,320.01 463.294,320.01 C470.091,320.01 475.263,315.464 475.263,309.432 C475.263,305.932 473.107,303.948 469.951,302.964"/>
<path class="Tuplet" d="M1144.62,306.064 C1146.74,305.392 1147.59,305.017 1148.66,304.298 C1150.79,302.908 1152.09,300.439 1152.09,297.908 C1152.09,293.642 1148.66,290.767 1143.63,290.767 C1138.73,290.767 1134.59,293.814 1134.59,297.517 C1134.59,299.361 1135.71,300.611 1137.41,300.611 C1138.9,300.611 1139.99,299.533 1139.99,298.048 C1139.99,297.283 1139.76,296.751 1139.04,296.033 C1138.59,295.626 1138.41,295.298 1138.41,294.986 C1138.41,293.908 1140.66,292.783 1142.77,292.783 C1145.79,292.783 1147.59,294.455 1147.59,297.236 C1147.59,301.251 1144.76,305.017 1141.74,305.017 C1141.6,305.017 1141.19,304.986 1140.71,304.939 C1139.4,304.845 1139.4,304.845 1139.13,304.845 C1138.13,304.845 1137.6,305.298 1137.6,306.111 C1137.6,306.83 1138.1,307.267 1138.9,307.267 C1139.13,307.267 1139.44,307.236 1139.8,307.189 C1140.43,307.048 1141.12,307.001 1141.51,307.001 C1143.63,307.001 1145.07,308.892 1145.07,311.689 C1145.07,316.548 1142.68,321.22 1137.24,321.22 C1134.73,321.22 1132.55,319.97 1132.55,318.517 C1132.55,318.033 1132.74,317.845 1133.46,317.533 C1134.76,316.955 1135.3,316.142 1135.3,314.923 C1135.3,313.345 1134.04,312.142 1132.43,312.142 C1130.49,312.142 1129.23,313.658 1129.23,316.001 C1129.23,320.376 1132.55,323.111 1137.96,323.111 C1144.76,323.111 1149.93,318.564 1149.93,312.533 C1149.93,309.033 1147.77,307.048 1144.62,306.064"/>
<path class="Tuplet" d="M2786.62,354.232 C2788.75,353.56 2789.59,353.185 2790.67,352.466 C2792.8,351.075 2794.09,348.607 2794.09,346.075 C2794.09,341.81 2790.67,338.935 2785.64,338.935 C2780.73,338.935 2776.59,341.982 2776.59,345.685 C2776.59,347.528 2777.72,348.778 2779.42,348.778 C2780.91,348.778 2782,347.7 2782,346.216 C2782,345.45 2781.76,344.919 2781.05,344.2 C2780.59,343.794 2780.42,343.466 2780.42,343.153 C2780.42,342.075 2782.67,340.95 2784.78,340.95 C2787.8,340.95 2789.59,342.622 2789.59,345.403 C2789.59,349.419 2786.76,353.185 2783.75,353.185 C2783.61,353.185 2783.2,353.153 2782.72,353.107 C2781.41,353.013 2781.41,353.013 2781.14,353.013 C2780.14,353.013 2779.61,353.466 2779.61,354.278 C2779.61,354.997 2780.11,355.435 2780.91,355.435 C2781.14,355.435 2781.45,355.403 2781.81,355.357 C2782.44,355.216 2783.12,355.169 2783.51,355.169 C2785.64,355.169 2787.08,357.06 2787.08,359.857 C2787.08,364.716 2784.69,369.388 2779.25,369.388 C2776.73,369.388 2774.56,368.138 2774.56,366.685 C2774.56,366.2 2774.75,366.013 2775.47,365.7 C2776.76,365.122 2777.31,364.31 2777.31,363.091 C2777.31,361.513 2776.05,360.31 2774.44,360.31 C2772.5,360.31 2771.23,361.825 2771.23,364.169 C2771.23,368.544 2774.56,371.278 2779.97,371.278 C2786.76,371.278 2791.94,366.732 2791.94,360.7 C2791.94,357.2 2789.78,355.216 2786.62,354.232"/>
<path class="Tuplet" d="M2625.64,302.964 C2627.77,302.292 2628.61,301.917 2629.69,301.198 C2631.81,299.807 2633.11,297.339 2633.11,294.807 C2633.11,290.542 2629.69,287.667 2624.66,287.667 C2619.75,287.667 2615.61,290.714 2615.61,294.417 C2615.61,296.26 2616.74,297.51 2618.44,297.51 C2619.92,297.51 2621.02,296.432 2621.02,294.948 C2621.02,294.182 2620.78,293.651 2620.06,292.932 C2619.61,292.526 2619.44,292.198 2619.44,291.885 C2619.44,290.807 2621.69,289.682 2623.8,289.682 C2626.81,289.682 2628.61,291.354 2628.61,294.135 C2628.61,298.151 2625.78,301.917 2622.77,301.917 C2622.63,301.917 2622.22,301.885 2621.74,301.839 C2620.42,301.745 2620.42,301.745 2620.16,301.745 C2619.16,301.745 2618.63,302.198 2618.63,303.01 C2618.63,303.729 2619.13,304.167 2619.92,304.167 C2620.16,304.167 2620.47,304.135 2620.83,304.089 C2621.45,303.948 2622.14,303.901 2622.53,303.901 C2624.66,303.901 2626.1,305.792 2626.1,308.589 C2626.1,313.448 2623.7,318.12 2618.27,318.12 C2615.75,318.12 2613.58,316.87 2613.58,315.417 C2613.58,314.932 2613.77,314.745 2614.49,314.432 C2615.78,313.854 2616.33,313.042 2616.33,311.823 C2616.33,310.245 2615.06,309.042 2613.45,309.042 C2611.52,309.042 2610.25,310.557 2610.25,312.901 C2610.25,317.276 2613.58,320.01 2618.99,320.01 C2625.78,320.01 2630.95,315.464 2630.95,309.432 C2630.95,305.932 2628.8,303.948 2625.64,302.964"/>
<path class="Tuplet" d="M1714.61,340.168 C1716.73,339.496 1717.58,339.121 1718.65,338.403 C1720.78,337.012 1722.08,334.543 1722.08,332.012 C1722.08,327.746 1718.65,324.871 1713.62,324.871 C1708.72,324.871 1704.58,327.918 1704.58,331.621 C1704.58,333.465 1705.7,334.715 1707.4,334.715 C1708.89,334.715 1709.98,333.637 1709.98,332.153 C1709.98,331.387 1709.75,330.856 1709.03,330.137 C1708.58,329.731 1708.4,329.403 1708.4,329.09 C1708.4,328.012 1710.65,326.887 1712.76,326.887 C1715.78,326.887 1717.58,328.559 1717.58,331.34 C1717.58,335.356 1714.75,339.121 1711.73,339.121 C1711.59,339.121 1711.19,339.09 1710.7,339.043 C1709.39,338.95 1709.39,338.95 1709.12,338.95 C1708.12,338.95 1707.59,339.403 1707.59,340.215 C1707.59,340.934 1708.09,341.371 1708.89,341.371 C1709.12,341.371 1709.44,341.34 1709.79,341.293 C1710.42,341.153 1711.11,341.106 1711.5,341.106 C1713.62,341.106 1715.06,342.996 1715.06,345.793 C1715.06,350.653 1712.67,355.325 1707.23,355.325 C1704.72,355.325 1702.54,354.075 1702.54,352.621 C1702.54,352.137 1702.73,351.95 1703.45,351.637 C1704.75,351.059 1705.29,350.246 1705.29,349.028 C1705.29,347.45 1704.03,346.246 1702.42,346.246 C1700.48,346.246 1699.22,347.762 1699.22,350.106 C1699.22,354.481 1702.54,357.215 1707.95,357.215 C1714.75,357.215 1719.92,352.668 1719.92,346.637 C1719.92,343.137 1717.76,341.153 1714.61,340.168"/>
<path class="Tuplet" d="M630.933,354.232 C633.058,353.56 633.901,353.185 634.98,352.466 C637.105,351.075 638.401,348.607 638.401,346.075 C638.401,341.81 634.98,338.935 629.948,338.935 C625.042,338.935 620.901,341.982 620.901,345.685 C620.901,347.528 622.026,348.778 623.73,348.778 C625.214,348.778 626.308,347.7 626.308,346.216 C626.308,345.45 626.073,344.919 625.355,344.2 C624.901,343.794 624.73,343.466 624.73,343.153 C624.73,342.075 626.98,340.95 629.089,340.95 C632.105,340.95 633.901,342.622 633.901,345.403 C633.901,349.419 631.073,353.185 628.058,353.185 C627.917,353.185 627.511,353.153 627.026,353.107 C625.714,353.013 625.714,353.013 625.448,353.013 C624.448,353.013 623.917,353.466 623.917,354.278 C623.917,354.997 624.417,355.435 625.214,355.435 C625.448,355.435 625.761,355.403 626.12,355.357 C626.745,355.216 627.433,355.169 627.823,355.169 C629.948,355.169 631.386,357.06 631.386,359.857 C631.386,364.716 628.995,369.388 623.558,369.388 C621.042,369.388 618.87,368.138 618.87,366.685 C618.87,366.2 619.058,366.013 619.776,365.7 C621.073,365.122 621.62,364.31 621.62,363.091 C621.62,361.513 620.355,360.31 618.745,360.31 C616.808,360.31 615.542,361.825 615.542,364.169 C615.542,368.544 618.87,371.278 624.276,371.278 C631.073,371.278 636.245,366.732 636.245,360.7 C636.245,357.2 634.089,355.216 630.933,354.232"/>
<path class="Tuplet" d="M2099.94,391.436 C2102.06,390.764 2102.9,390.389 2103.98,389.671 C2106.11,388.28 2107.4,385.811 2107.4,383.28 C2107.4,379.014 2103.98,376.139 2098.95,376.139 C2094.05,376.139 2089.9,379.186 2089.9,382.889 C2089.9,384.733 2091.03,385.983 2092.73,385.983 C2094.22,385.983 2095.31,384.905 2095.31,383.421 C2095.31,382.655 2095.08,382.124 2094.36,381.405 C2093.9,380.999 2093.73,380.671 2093.73,380.358 C2093.73,379.28 2095.98,378.155 2098.09,378.155 C2101.11,378.155 2102.9,379.827 2102.9,382.608 C2102.9,386.624 2100.08,390.389 2097.06,390.389 C2096.92,390.389 2096.51,390.358 2096.03,390.311 C2094.72,390.218 2094.72,390.218 2094.45,390.218 C2093.45,390.218 2092.92,390.671 2092.92,391.483 C2092.92,392.202 2093.42,392.639 2094.22,392.639 C2094.45,392.639 2094.76,392.608 2095.12,392.561 C2095.75,392.421 2096.44,392.374 2096.83,392.374 C2098.95,392.374 2100.39,394.264 2100.39,397.061 C2100.39,401.921 2098,406.593 2092.56,406.593 C2090.05,406.593 2087.87,405.343 2087.87,403.889 C2087.87,403.405 2088.06,403.218 2088.78,402.905 C2090.08,402.327 2090.62,401.514 2090.62,400.296 C2090.62,398.718 2089.36,397.514 2087.75,397.514 C2085.81,397.514 2084.55,399.03 2084.55,401.374 C2084.55,405.749 2087.87,408.483 2093.28,408.483 C2100.08,408.483 2105.25,403.936 2105.25,397.905 C2105.25,394.405 2103.09,392.421 2099.94,391.436"/>
<path class="Tuplet" d="M1891.9,383.574 C1894.03,382.902 1894.87,382.527 1895.95,381.808 C1898.07,380.418 1899.37,377.949 1899.37,375.418 C1899.37,371.152 1895.95,368.277 1890.92,368.277 C1886.01,368.277 1881.87,371.324 1881.87,375.027 C1881.87,376.871 1883,378.121 1884.7,378.121 C1886.18,378.121 1887.28,377.043 1887.28,375.558 C1887.28,374.793 1887.04,374.261 1886.32,373.543 C1885.87,373.136 1885.7,372.808 1885.7,372.496 C1885.7,371.418 1887.95,370.293 1890.06,370.293 C1893.07,370.293 1894.87,371.964 1894.87,374.746 C1894.87,378.761 1892.04,382.527 1889.03,382.527 C1888.89,382.527 1888.48,382.496 1888,382.449 C1886.68,382.355 1886.68,382.355 1886.42,382.355 C1885.42,382.355 1884.89,382.808 1884.89,383.621 C1884.89,384.339 1885.39,384.777 1886.18,384.777 C1886.42,384.777 1886.73,384.746 1887.09,384.699 C1887.72,384.558 1888.4,384.511 1888.79,384.511 C1890.92,384.511 1892.36,386.402 1892.36,389.199 C1892.36,394.058 1889.97,398.73 1884.53,398.73 C1882.01,398.73 1879.84,397.48 1879.84,396.027 C1879.84,395.543 1880.03,395.355 1880.75,395.043 C1882.04,394.464 1882.59,393.652 1882.59,392.433 C1882.59,390.855 1881.32,389.652 1879.72,389.652 C1877.78,389.652 1876.51,391.168 1876.51,393.511 C1876.51,397.886 1879.84,400.621 1885.25,400.621 C1892.04,400.621 1897.22,396.074 1897.22,390.043 C1897.22,386.543 1895.06,384.558 1891.9,383.574"/>
</svg>
